<mxfile host="app.diagrams.net" modified="2021-10-12T23:32:33.566Z" agent="5.0 (Windows NT 10.0; Win64; x64) AppleWebKit/537.36 (KHTML, like Gecko) Chrome/94.0.4606.81 Safari/537.36" etag="Vv2L1gYmrFZgbJ86zUYE" version="15.5.2" type="github">
  <diagram id="oOsvNKkaD9lJTVVv--VY" name="Page-1">
    <mxGraphModel dx="1006" dy="717" grid="1" gridSize="10" guides="1" tooltips="1" connect="1" arrows="1" fold="1" page="1" pageScale="1" pageWidth="850" pageHeight="1100" math="0" shadow="0">
      <root>
        <mxCell id="0" />
        <mxCell id="1" parent="0" />
        <mxCell id="shZay32Vncn5JO2l-WHq-1" value="Weeks before the event" style="verticalLabelPosition=bottom;verticalAlign=top;html=1;shape=mxgraph.basic.rect;fillColor2=none;strokeWidth=1;size=20;indent=5;spacing=-33;fillColor=#d5e8d4;strokeColor=#82b366;" vertex="1" parent="1">
          <mxGeometry x="160" y="320" width="160" height="40" as="geometry" />
        </mxCell>
        <mxCell id="shZay32Vncn5JO2l-WHq-2" value="" style="shape=image;verticalLabelPosition=bottom;labelBackgroundColor=#ffffff;verticalAlign=top;aspect=fixed;imageAspect=0;image=data:image/png,iVBORw0KGgoAAAANSUhEUgAAAlQAAAI1CAYAAAAQMGTWAAAgAElEQVR4Ae2dd5gVRbq4yUlyuIi6SlpFFLOYUcTHCLpGFFERI7gqCvtTV0TxomLOAUyL8bLKKqy6qAgisiq7RhQFFckIksMA80/9nm+u5+44c87M6arq7qrq9495Bmbm9On+6v2+763uPtU1SktLFV/EAAZgAAZgAAZgAAb0GahB8PSDR+yIHQzAAAzAAAzAgDCAUHGGjjOUMAADMAADMAADhgwgVIYBZGbCzAQGYAAGYAAGYAChQqiYlcAADMAADMAADBgygFAZBpBZCbMSGIABGIABGIABhAqhYlYCAzAAAzAAAzBgyABCZRhAZiXMSmAABmAABmAABhAqhIpZCQzAAAzAAAzAgCEDCJVhAJmVMCuBARiAARiAARhAqBAqZiUwAAMwAAMwAAOGDCBUhgFkVsKsBAZgAAZgAAZgAKFCqJiVwAAMwAAMwAAMGDKAUBkGkFkJsxIYgAEYgAEYgAGECqFiVgIDMAADMAADMGDIAEJlGEBmJcxKYAAGYAAGYAAGECqEilkJDMAADMAADMCAIQMIlWEAmZUwK4EBGIABGIABGECoECpmJTAAAzAAAzAAA4YMIFSGAWRWwqwEBmAABmAABmAAoUKomJXAAAzAAAzAAAwYMoBQGQaQWQmzEhiAARiAARiAAYQKoWJWAgMwAAMwAAMwYMgAQmUYQGYlzEpgAAZgAAZgAAYQKoSKWQkMwAAMwAAMwIAhAwiVYQCZlTArgQEYgAEYgAEYQKgQKmYlMAADMAADMAADhgwgVIYBZFbCrAQGYAAGYAAGYAChQqiYlcAADMAADMAADBgygFAZBpBZCbMSGIABGIABGIABhAqhYlYCAzAAAzAAAzBgyABCZRhAZiXMSmAABmAABmAABhAqhIpZCQzAAAzAAAzAgCEDCJVhAJmVMCuBARiAARiAARhAqBAqZiUwAAMwAAMwAAOGDCBUhgFkVsKsBAZgAAZgAAZgAKFCqJiVwAAMwAAMwAAMGDKAUBkGkFkJsxIYgAEYgAEYgAGECqFiVgIDMAADMAADMGDIAEJlGEBmJcxKYAAGYAAGYAAGECqEilkJDMAADMAADMCAIQMIlWEAmZUwK4EBGIABGIABGECoECpmJTAAAzAAAzAAA4YMIFSGAWRWwqwEBmAABmAABmAAoUKomJXAAAzAAAzAAAwYMoBQGQaQWQmzEhiAARiAARiAAYQKoWJWAgMwAAMwAAMwYMgAQmUYQGYlzEpgAAZgAAZgAAYQKoSKWQkMwAAMwAAMwIAhAwiVYQCZlTArgQEYgAEYgAEYQKgQKmYlMAADMAADMAADhgwgVIYBZFbCrAQGYAAGYAAGYAChQqiYlcAADMAADMAADBgygFAZBpBZCbMSGIABGIABGIABhAqhYlYCAzAAAzAAAzBgyABCZRhAZiXMSmAABmAABmAABhAqhIpZCQzAAAzAAAzAgCEDCJVhAJmVMCuBARiAARiAARhAqBAqZiUwAAMwAAMwAAOGDCBUhgFkVsKsBAZgAAZgAAZgAKFCqJiVwAAMwAAMwAAMGDKAUBkGkFkJsxIYgAEYgAEYgAGECqFiVgIDMAADMAADMGDIAEJlGEBmJcxKYAAGYAAGYAAGECqEilkJDMAADMAADMCAIQMIlWEAmZUwK4EBGIABGIABGECoECpmJTAAAzAAAzAAA4YMIFSGAWRWwqwEBmAABmAABmAAoUKomJXAAAzAAAzAAAwYMoBQGQaQWQmzEhiAARiAARiAAYQKoWJWAgMwAAMwAAMwYMgAQmUYQGYlzEpgAAZgAAZgAAYQKoSKWQkMOMHAokWLlO4XzYxmBgMwkDYDCBXN1IlmmnYi8P7pF+PRo0erGjVqRP6S1zF+6Y8fY8AYZJ0BhAqhohnBgBMMIFQ05Kw3ZI7f7xxAqGimTjRTConfhcTG+CFUMGCDI7YBR2kxgFAhVAgVDDjBAEJFI0yrEfK+sGeDAYSKZupEM7UBM9vwuygiVH6PH/nH+GWdAYQKoUKoYMAJBhAqGnLWGzLH73cOIFQ0UyeaKYXE70JiY/wQKhiwwRHbgKO0GECoECqECgacYAChohGm1Qh5X9izwQBCRTN1opnagJlt+F0UESq/x4/8Y/yyzgBChVAhVDDgBAMIFQ056w2Z4/c7BxAqmqkTzZRC4nchsTF+CBUM2OCIbcBRWgwgVAgVQgUDTjCAUNEI02qEvC/s2WAAoaKZOtFMbcDMNvwuigiV3+NH/jF+WWcAoUKoECoYcIIBhIqGnPWGzPH7nQMIFc3UiWZKIfG7kNgYP4QKBmxwxDbgKC0GECqECqGCAScYQKhohGk1Qt4X9mwwgFDRTJ1opjZgZht+F0WEyu/xI/8Yv6wzgFAhVAgVDDjBAEJFQ856Q+b4/c4BhIpm6kQzpZD4XUhsjB9CBQM2OGIbcJQWAwgVQoVQwYATDCBUNMK0GiHvC3s2GECoaKZONFMbMLMNv4siQuX3+JF/jF/WGUCoECqECgacYAChoiFnvSFz/H7nAEJFM3WimVJI/C4kNsYPoYIBGxyxDThKiwGECqFCqGDACQYQKhphWo2Q94U9GwwgVDRTJ5qpDZjZht9FEaHye/zIP8Yv6wwgVAgVQgUDTjCAUNGQs96QOX6/cwChopk60UwpJH4XEhvjh1DBgA2O2AYcpcUAQoVQIVQw4AQDCBWNMK1GyPvCng0GECqaqRPN1AbMbMPvoohQ+T1+5B/jl3UGECqECqGCAScYQKhoyFlvyBy/3zmAUNFMnWimFBK/C4mN8UOoYMAGR2wDjtJiAKFCqBAqGHCCAYSKRphWI+R9Yc8GAwgVzdSJZmoDZrbhd1FEqPweP/KP8cs6AwgVQoVQwYATDCBUNOSsN2SO3+8cQKhopk40UwqJ34XExvghVDBggyO2AUdpMYBQIVQIFQw4wQBCRSNMqxHyvrBngwGEimbqRDO1ATPb8LsoIlR+jx/5x/hlnQGECqFCqGDACQYQKhpy1hsyx+93DiBUNFMnmimFxO9CYmP8ECoYsMER24CjtBhAqBAqhAoGnGAAoaIRptUIeV/Ys8EAQkUzdaKZ2oCZbfhdFBEqv8eP/GP8ss4AQoVQIVQw4AQDCBUNOesNmeP3OwcQKpqpE82UQuJ3IbExfggVDNjgiG3AUVoMIFQIFUIFA04wgFDRCNNqhLwv7NlgAKGimTrRTG3AzDb8LooIld/jR/4xfllnAKFCqBAqGHCCAYSKhpz1hszx+50DCBXN1IlmSiHxu5DYGD+ECgZscMQ24CgtBhAqhAqhggEnGECoaIRpNULeF/ZsMIBQ0UydaKY2YGYbfhdFhMrv8SP/GL+sM4BQIVQIFQw4wQBCRUPOekPm+P3OAYSKZupEM6WQ+F1IbIwfQgUDNjhiG3CUFgMIFUKFUMGAEwwgVDTCtBoh7wt7NhhAqGimTjRTGzCzDb+LIkLl9/iRf4xf1hlAqBAqhAoGnGAAoaIhZ70hc/x+5wBCRTN1oplSSPwuJDbGD6GCARscsQ04SosBhAqhQqhgwAkGECoaYVqNkPeFPRsMIFQ0UyeaqQ2Y2YbfRRGh8nv8yD/GL+sMIFQIFUIFA04wgFDRkLPekDl+v3MAoaKZOtFMKSR+FxIb44dQwYANjtgGHKXFAEKFUMUmVMuWLVMPP/xwbNtPK2l433gKNkIVT1zh9T9xfeihh9Ty5cupSfS9WBhAqAArFrBEpg488EBVo0YNpArGimIMofpP40eC7MdCZErq0UEHHYRUUZOKqklR8xChAizrYJWXKSlgSJX95hA10X34e4QKTuLiNCdTuXqEVMFaHKwhVAiVVaHKJ1O5IsblP4pYVUUMoYKPqvjQ/V1FmcrVI6QK3nSZKvQ6hAqhsiZUVclUroghVRSxQsUIoYKNQmzo/ryQTOXqEVIFc7ps5XsdQoVQWRGqYmQqV8SQKopYvmKEUMFFPi50f1adTOXqEVIFd7qMVXwdQoVQGQtVFJnKFTGkiiJWsRghVDBRkQnd/xcrU7l6hFTBni5r5V+HUCFURkKlI1O5IoZUUcTKFyOECh7K86D776gylatHSBX86TKXex1ChVBpC5WJTOWKGFJFEcsVI4QKFnIs6H7XlalcPUKqYFCXPXkdQoVQaQmVDZnKFTGkiiImxQihggOTZmYqU7l6hFTBoS6HCBVCpSVUzz//fNn6UrkiZPodqaKIIVQwoNvIbMlUro698MILWnVRd/95XRjsI1QIlXbhQKrCKAKuFHOECp50WESm4EaHmzheg1AhVNpCJUAiVRQzW4UJoYKlqCwhUzATlZk4/x6hQqiMhErgRKooajaKFEIFR1E4QqbgJQovSfwtQoVQGQuVgIpUUdxMCxZCBUPFMoRMwUqxrCT5dwgVQmVFqARapIoiZ1K8ECr4KYYfZApOiuEkjb9BqBAqa0IlACNVFDvdQoZQwU517CBTMFIdI2n+HqFCqKwKlcCMVFH0dIoaQgU3VXGDTMFHVXy48DuECqGyLlQCNlJF8Yta4BAqmCnEDDIFG4XYcOnnCBVCFYtQCeRIFUUwSrFDqOAlHy/IFFzk48LFnyFUCFVsQiXAI1UUw2ILH0IFKxVZQaZgoiITLv8foUKoYhUqgR+poigWUwQRKjgpzwkyBQ/lefDh3wgVQhW7UEkiIFUUx+oKIkIFIzlGkClYyLHg03eECqFKRKgkKZAqimRVxRGhgg/hA5mCg6rqhMu/Q6gQqsSEShIBqaJYFiqIL7zwgtL9KrRNfu4Xb8iUX+NFfv12vBAqhCpRoZIERKp+m4QUJeIBA5yZggH/6wBChVAlLlRIlf+Fg+LPGNpkgDNT8GSTp7S2hVAhVKkIlQDPmSqKaFqFj/d1hz1kyp2xIC/MxgKhQqhSEyqkyix5KX7Ez3cGkCkY9p3h8vuPUCFUqQqVwMiZKopq+aLEv7PBAzKVjXHOUj4jVAhV6kKFVFFYs1R0OVZuQIeBMGseQoVQOSFUSFWYBYbGwbhWZIAzUzBRkYlQ/o9QIVTOCJUkFZf/KLahFFeOozLLyFTlmMBJODFBqBAqp4QKqQqnuNAoGMvyDCBT8FCehxD/jVAhVM4JlSQaZ6ooviEW3KweEzJFPmeBfYQKoXJSqJAqCnAWCnAWjhGZIpezwLkcI0KFUDkrVAIoZ6ooxlkpxiEeJzJF/obIdaFjQqgQKqeFSsBFqijKhQoYP3eXDWTK3bEhb+IZG4QKoXJeqJCqeJKfokpc42IAmYKtuNhyebsIFULlhVBJEnGmiiLtcjFl3/6XT2SKPM1qLiBUCJU3QoVUUaizWqh9OW5kihz1hdU49hOhQqi8EipJAs5UUbTjKIZs04wrZMosfvDnf/wQKoTKO6FCqvwvPDSPsMYQmQprPMlPvfFEqBAqL4UKqdJLeAolcbPNADIFU7aZ8nV7CBVC5a1QSdJx+Y9i7mvxDWG/kSnyLwSObR0DQoVQeS1UkghIFUXdVkFkO8WzhEwVHyu4ykasECqEynuhikOqpFlQBLNRBBnn6OOMTEWPGZyFHzOECqEKRhxsn6lCqsIvgDS56GOMTEWPGZxlI2YIFUIVjFBJ0UKqslG4aFDpjDMylU7c4d2PuCNUCFVQQoVU+VF4aBD+jRMy5d+YkWfJjhlChVAFJ1RIVbJFhKIdfryRqfDHmDw2H2OECqEKUqiQKvPiQIElhsIAMgUH1ILiGECoEKpghQqpKq4IJFEsS0pK1MaNG9W6devUjz/+qN577z01bdo09f7776uXX35Z3XPPPer//b//py699FI1ePBg9cc//rGor0GDBpW9ZtSoUeqll15Sb775pvrwww/VV199pebPn69WrFihNmzYoLZu3Ro053GNITLlTg7FNcZs194YI1QIVfCNhhvV7RWMKMV3yZIl6vXXX1fDhw9XJ510kjrooINU165dVe3atVWNGjVi/2rQoIFq166dOuCAA9SFF16oRLoeffTRMuESwYtyLFn8W2QqnbzJImuhHDNChVBlorEgVfE1BzkDtHjx4jJRuffee9WAAQNUr1691G677aZatGih6tSpE7s8FSNo9erVU40bNy6TrO7du6uBAweqMWPGlJ0tmzNnjlq9erXatm1bJvKhugaGTMWXL9XFnt/7G3uECqHKTANBquwVqvXr16upU6eWnX069NBDy0SlGKlx9W/krJkI4CWXXKL++te/qoULF2YmLyo2cGTKXp5UjC3/Dzu2CBVClanGgVTpFbRNmzYpOYsjzVYu3+2xxx5lZ59q1qzpxNknm6LWqFEj1aFDB9WzZ0912WWXqcmTJ6u1a9dmIk+QKb38QJSImzCAUCFUmWgU5QseUlV88Vu5cqV68cUX1RFHHKFClKdiRUwEcsSIEerLL78MNl+QqeLzonw94d/ELccAQoVQBdsgcpDn+45U5S+C8mk4+YSc3Asl90Ftv/32qlatWsGdhSpWpCr+XZMmTcouDZ5//vnqnXfeKfsEYT6+fPsZMpU/H3wbR/Y33XFEqBCqTAqVFB6bUtWmTRs1c+ZMr2P53XffqQsuuEDVr18fgSryU4g9evQou+fK52UZhNvWrVtbG/MXXnjB6zxAStKVEp/jj1AhVJkufjakymeZkqUNXn31VXXGGWcouXeo4hkZ/l/c8g5yQ/vDDz+sfvrpJy/zyZZUIVPIiM9CZLrvCBVC5WUDMAW//OtNpMpXmZo3b5668847y24uR5qKk6Zi4rTTTjuVffLxl19+8S6vTKUKmUKmytfVLP4boUKovCv8cSSqjlT5JlOyxtLbb7+tZJkD7ouyJ1H5REvW3zrvvPPK4r1582ZvckxXqpApZCqOuuzbNhEqhMqbYh93ckWRKt9kSh75ct111zmzyGY+CQnxZ7Ko6dlnn61+/vlnb/IsqlQhU8hU3LXZl+0jVAiVN4U+iaQqRqp8kilZoFIeudKxY0fujyryRvM4xK5ly5ZllwK//vprL/KtWKlCppCpJOqyL++BUCFUXhT4JBOqKqnyRaZkJfMnn3xS7b333t6JlKx3JSuXV/Ullyx9XBdrxx13VHfccYfy4VmC1UkVMoVMJVmXfXgvhAqhQqjyMJBPqnyRKdn3XXbZxUmRkjM18oDko48+Wg0aNEjdf//9ZV+PPfZY2bpO33zzjVqwYIFatmxZlV+y4KisXv7555+rRx55RD344INl30eOHKmuvPJKdeyxx5bFwFXpkk8FipDIpViXG0UhqUKmkCmXuU1r3xCqPM00rcHgfd0qUuWlygeZkof7XnPNNaphw4ZOyJTcP9S5c+eyBUL79++vRHbkOXnSpH/44YfYREIekyNSNmPGDDV+/PiyRUqvvfbaMsmSm8VdkSw5A3fiiSeqd999N7ZY2KgpFaUKmXKrTtkYY7ZhZ0wRKoTK6WKedqKLVLkuU3J5T870tG3bNlWRkstZ8pw/uWdLPk0oa1zJJwvTHsOK7y9ntt57772yS28ienLGrF69eqnGTh7KvGXLFudilYtdTqqQKTuNNxdXvocVT4QKoXK2iLtSbKSZuLIvFfdDbnIWKUhjGQQ509OpU6ey5QEeeOABNX36dK8+zSaxlCUNvvjiCzVu3Dh15plnlslzGrGUG+FPO+00JZcyK46xK/93OQ9ciRH7EZYgRR1PhAqhcraAR4U5S38vjzoZPXq0atWqVeJnVvbbb7+yszvffvttkOwsX75cPfHEE6pPnz5KLhHG8am/QtuU95NLo2vWrAkytlnKUY41e3KFUCFUFG7PGFixYkXZo2KSPJPSvn17NWTIEDVhwoSy+5Oy0CzknrRp06apP/3pT2qvvfZSdevWTUyuunfvrt544w1y07PczEJecIyFRRGhImEp2h4x8Nprr6mdd945kcYuN03/4Q9/UFOmTHHyXqgkC7vc3/TPf/5TDR48ONGb/u+66y7y06P8TJJJ3quw2KQVG4SKZKVge8CA3Osjl6GaNWsWu0zJmZgTTjihbBmDDRs2wEc5PuRS60cffaSuuuoq1a5du9jHQi4NXn311U7fsJ5W8+J93ROKrI8JQlWuWGYdBo7fzQIlazLJc+Hi/rh/hw4dyu6NWrx4MRJVRF3YuHFj2eKp3bp1i12sjjnmGBXqPWvUHTfrDuMSfVwQqiIKJ2BFB4uY2YmZfLz/8MMPj7VhyyKTt99+u5LH1DBu0cdN7mmThUnjfrzP7rvvriZNmsQYUbNhwFEGECpHB4bGFr2xhRazRx99VDVp0iQ2mZJ7pOTSFWek7LAmC4qOHTtW7brrrrGNmSyW+tJLL9FQqdsw4CADCJWDgxKaGHA80Rv2sGHDYmvKDRo0KFsSYNasWRTlGPJfHicjC602b948ljGU8fvzn/9c9ugdcit6bhEzYhYXAwhVDAU1rsFiu9koBPLw3ELrFJn+/Mgjj1SzZ89GpBLIe3m8zrnnnhvboqvHHXeckrNi1IVs1AXG2f1xRqgSKKwkgvuJ4MIYSXOUVc9NpSnf62VF81deeSXzyx8kPc4yphMnTlRHHHFELOPaq1cv7n2jhiPVjjCAUDkyEEkXet7PLcmTxhtX0z3nnHPUqlWrKLop5rrcuC4LhOaTXdOf9e7dW8nzHMlpt3Ka8cjeeCBUKRZZEi57CZdvzGVFbvlYvGljrfj6Aw44QP3tb39jDSOHclxWP5dP61UcK9P/y6XcRYsWIVUOjXW+XOdnYdd8hIoEpAinyIAsnCnPxjNtqBVfL+tWLVmyhLFNcWwLNU85WyifrrT9KJtTTz2VZwA6ON6FOODn4ckVQkUC0nRTYmDlypXq6KOPtipTLVu2VC+++CJjmtKYFtskt23bpqZOnar23ntvq+Pfo0cPRNrxsS+WEf7OP+FCqEg+mm8KDJSUlKgDDzzQajNt0aKF+uCDDxjPFMZTt/nNnTu37DE/Fc8wmvz/jDPOUL/88gsceMSBLj+8zi3pQqhIOgpvCgwMHDjQmkzJAp3y6cCffvqJsUxhLG00tRtvvNEaDyJj8gGHpUuXwoOnPNhgim0kL1sIFQlH0U2YgaFDh1prnrJ4pCwiKZeQKKDJF1CbMR81apQ1LkSqzjzzTD7dmXBu2+SBbfmXzwgVCUcjTpABmyugy7PjPv/8c2/H791331W5L/mUWsWvfJe9brrpJiVfoTabZ599VrVp08aaWJ100knBxipUBjgu/0QqN2YIVYLNNBd0vvubMCZjN2LECGuNsn379mUyYrI/Sb62ojjlk6UoPwtZqqZNm2b1ZvXnn38eqaLOw0ACDCBUCQQ5ycbFe7kpa88884w1merQoYP65ptvnC6QtgUqn2zJGa1Qef/555/V2WefbYWZRo0aqTFjxgQbq1AZ4LjcrOVVjQtChVBRaGNmYMaMGapt27ZWmqM8v23OnDlOjll5iconQHH8LOQzVcuWLVOyDIKNuLVu3VrxMGz/GnRVzZvfuTeeCFXMzRTo3YM+yTFZvHixkstzNpri1Vdf7axIydkiG8eos40kxzPp95JFQGUZBJ24VHzNwQcfrETSkj4G3i/bNTBL449QIVQU2JgYWLt2rRowYICVZnjdddc59Uk+ORuVpkSVlwXZl5CLtqx437NnTysc9e3bN+hYhcwBx+a+mCJUMTVT4Hcf/rjHyNbyCPLx97j3tdjtuyRSOakKXahkbNatW6fk0TK5Yzb5/t///d/O8FQsd/wd9dQHBhAqhIriGgMD//jHP9R2221n3ABlgcaFCxemPkYuilROKkK+j6p8E5GHH9t4VFHNmjXVgw8+mDpT5Y+NfyNMITCAUMXQTEMAg2PQL3ALFixQ3bp1M5YpuZH966+/TrXxuSxSOaHKEqsbN25UvXv3NmarVq1a6rPPPkuVrSyNG8eqX099ih1ChVBRVC0zcMoppxg3vC5duqT+XD4585OTFpe/+1RwbeyrPP+va9euxmPTq1cvtWHDBvLfcv7bGGO24aeAIVQkEwXVIgOvvvqqcaNr2bJlqiug+3BWKid4WbncV7HBfvnll6pu3brGrE2aNIn8t5j/FceJ//spRrrjhlCRTBRUSwzIelPt2rUzanJNmzZVf/3rX1MZE59ESoQqqzKVK/aPP/64EWsSQ7k0XVJSkgpvuePge7akI+TxRqgsNdOQIeHYiit4cgN57syJ7vfhw4en0txEpnT3OY3XZV2mcjk5cuRI43E799xz1datW1PhLnccfC+uxhAnt+OEUCFUFFILDNx///1KPj1lIhf9+vVL5Z4W1++VKv/QZBE/+aKx/KexXH755UbcCbMspfCfeMIWsdBlAKGy0Ex1g8/rwkjcTz/9VMnz0kxkqmPHjko+wZUkEy5c4svJkkgdsqSXD+vXr1cHHHCAEX+NGzdW8vzAJPnjvfTGm7i5GzeECqGiiBoycMwxxxg1M7m5eMqUKYmOg8iLiQDqvlYECnGy3xDkYdk77bST0ZjKpT+atf2xIabZiSlCZdhMSZbsJEu+sX7rrbeMmpisB/Tyyy8n2siSvMQnApU7+5QvfvzMXv489NBDxpedWZvK3njAdvZiiVAhVIk285CKjKzhs//++xsJVdIPPE5KpnJnokIab9ePRR5PI2eZdM8eyutOPPFE6gE9AQY0GUCoNAPnenFl/+KfHZmuOSWXaJYuXZpY8YpbppCo+JmrLq/nz5+vGjZsqC1VcsZ03LhxiTFZ3fHw+/SZYgyKHwOECqGieGowsHnzZrX77rtrNy65iX3y5MmJxV5kx+TMRVWvRaSKL7hJNKcHHnjAaKxllf4tW7YkxmYSMeE93GI01PFAqDSaaagwcFzFF51Ro0YZNa1BgwYl1rDikilEqnheksytTZs2qf79+xvxOXXq1MT4TDI2vJebzIYyLggVQkXhjMjArFmzVIsWLbQblnzEXR6gnEQRiesyn2w3if3nPfQa4Lx589SOO+6ozWjPnj3Vtm3bGOOItQFe9XgNJW4IFQlD0YzIwFVXXaXdqGrXrq1mzjTT84oAACAASURBVJyZSMzjkCnOSvnTMO6++24lvFV1ubbQ7+R1Y8aMSYTTUJopx+FPbsQ1VghVxGYa10CwXT+ScfHixUbr/ZxzzjmJNKk4ZErWj4JTPziVcZKFYs866ywtoRLRksVmFy5cyJjTI2CgSAYQqiIDRSPxp5HEOVYmoiKrUf/zn/+MvTiZ7GO+MxZyVirOmLLt+HLriy++UPLJvXzjWszPbr31VsaeHgEDRTKAUBUZKIp+fEXfl9jKIz5M7p3685//HHthsi1Tsj1fxof9zJ+j8ozIYuQp39/IfVhyzyCxzR9b4kJcyjOAUCFUFMsiGXj22We1G1OzZs0SeVZavqao+zMu8YXRLN5//33Vpk0bbXb/9Kc/USOKrBHlmyv/DiN/oowjQkWiUCyLYGD58uVK1ufRlZMRI0bEHmebyyMgU+E0g61bt6oLL7xQm91dd92VT/wVUSOiNF7+Npz8Kj+WCBWJEnujLw+cr/++4447tJ+TJg3p22+/jTXOti718Sm+MAv97NmzVZ06dbSl6sMPP4yVX1/rAvsdZr7ojitChVBRKKthoKSkRHXu3Fm7GcV9Y69NmdItJLzO/cZi8py/M888U8mZLsbZ/XFmjNIbI4SqmmYKnOnB6Ursp02bpi1TrVq1UitXroy1Eelehiz/Oj7JFz7nci9V69attVhu27at4ixV+Iy4UnN93Q+ECqGKtdn7mhjl9/vSSy/VakIiLHHfO2Xj7BQylY1GKSufm5ylkgVty+cF/84GN4xz8eOMUCFUFMkqGPjxxx+V3ANV/mxOsf+O+94pGzIlx8IN6MUXTN+bi8m6VLJkiCwd4nsM2P/s8J70WCNUVTTTpAeD93Mv0eXxHTVr1tQSKhGeOMe0WLGr6u+QKfeYi5MZ2fZJJ52kxbNwJJcN494/tp89JkMZc4QKoaJAVsHA/vvvr9V8ZHVqObsVV6GwcXYqbuGL69jZrlnDfemll1T9+vW1uB46dGhsTDOuZuNK/NKPH0JVRTMF0PQBTXMM5GZy3cd2HHjggbE2nqrOOhXzO2Qqu2zLM/4OP/xwLaGStdjmzJkTK9tp5jzvnd28sDH2CBVCRXEswMDYsWO1mk7dunXVE088EVtcTc9OcRM6TWP8+PFabMvlb7kMbqP5sA04DI0BhKpAMw1toDmeaMVr1apVqmfPnlpNp3v37kpeH0fM5Z6nYs5AVfU3cewX24zGV9rxEj5F/KvipNDv5OxW2vvP+/vFW1bGC6FCqCiOeRh46623VMuWLbUazrXXXhtbTE3PTnGpj0YkzU2WUBDxLyRNVf28QYMGsa+tlpUGzHGGlY8IVZ5mCuRhQa4znsOGDdNqNtKI/vGPf8QmVFU1uup+h0zBdflcePDBB7XvEeTTobBUniX+/b88IFQIVWzN3+ckO+yww7SEavvtt49trR7Ts1M+jwf7br+Br169Wu2xxx5anN92223UDXoHDFRgAKGqEBAKt/3C7VtMN2zYoJo3b67VaC666KLYikx1Z6Cq+j1np+A6Xx5effXVWpz37t1brVixIjbW8+0rP4Nh1xlAqBAqimIFBj799FOtJtO0aVP12muvxRJPzk7RTOJoJpMmTdJifccdd1QffPBBLKzHcZxsk/xJggGEqkIzTSLovIfbyf3AAw9oNZmDDz5YydmtOMa3qrNP1f2Os1Nu8xYHL8Vu84cfflC1a9fW4v3OO++MhfVi952/g2vXGECoECqKYjkGZNHDPn36aDUYuXwSR4JzdorGEQdXsk15Np8sQludlOf7vTzCJq79Yrsw7yMDCFW5ZurjALLPdgvPjBkz1M4776zVYCZMmBBLgzERKs5O2eUjxHy78cYbtZ5Xucsuu8TCe4gx5piykYcIFUJFUSzHgFzG0FnwUB5Rs2DBglhime/sQLE/o5Bno5CbjPPUqVNVixYtIk8i6tWrp77//vtYmDc5Hl4L82kxgFCVa6ZpDQLv604BuPzyyyM3FpGb9u3bx7JcAmen3GEj1Dxdt26d6tq1a2Tu5TE0EydORKjoITDwKwMIFclAMpRjQPf+qbPPPrts9WnbTVeeu1fs2aiKf2d7X9heuHIn90NV5KeY/8t6VLLqOmyEywZjW/zYIlTlmingFA9OqLHq1KlT5MZSv359NWbMmFiaSjFNLd/fcO8ULEfJ0dGjR0fmXri75JJL1Jo1a2JhP8r+87fw7gIDCBVCRTH8lQGZact9IfkEpaqfdezYUc2ePdt6HLncR5NIqkl89NFHWjemH3/88WrhwoXW2U/quHkfcswmAwgVQkUx/JWBefPmaTUVecisfPzcZmLKtkyEyva+sL2wG8+cOXNU48aNI08m5EHJU6ZMsc4+vIXNW6jji1AhVBTDXxkYN25c5IYiZ67kvqs4CkRVZ8Wq+h2X+2hGUXmUs0wdOnTQ4v++++6Lhf+ox8Dfw33aDCBUCBXF8FcG5AbbqkSl0O9uvvnmWGJY6P2q+/m7774by/6kXax4//gappxhPeWUU7T4HzZsGLzRR2CgtFQhVCQCiVBaqtauXasGDRqk1VDieH4fl/vikwfErHJs5f5BmVDIemrVCXvF359zzjnUEPoIDCBUlQsLxTabMZFLHrpLJsycOdN6MdEVKi73ZZNfG3Vr8uTJqkmTJpGF6vDDD7fOv43jYRvkQtIMcIaKmQXFsLRUffrpp6pbt26Rm0nDhg3VN998Yz2GuutPIVQ0Ed0mIg9K3mGHHSLngCw1ovuevA5eQ2IAoUKoKIalpUpm57KeVMXLGdX9Xx7ZEcfjN6p730K/5/4pGpRug1q+fHnZiv+F2Cr081atWqlVq1ZRR+glmWcAoSIJMp8E0oD+8pe/RJYpaTDygNhFixZZj2Gh5lXdz3WbKa9DxLZu3ar23XffyHkgyy38+9//tp4DMAmTvjGAUCFUFMLSUjVq1KjIjUTk5rDDDlOrV6+2GkM5y1SdOOX7vVwm9K0Asb9uNc3+/ftHZq9Zs2YIFX2E2sNN6W4VM5pLeuMhH/3OJynV/axfv35q06ZNVosJN6Snx0HWc1AnD0So5B7ErMeO4ydvOUPFzIJCWFqqrrnmGi2hGj58uNqyZYvVGCJUFOa0mvOQIUMi5wGX/OA1LV5de1+EKgGhkntspEnyZScGL7zwglWBkaTUFaq77rrLulDxCT8aVFqN4qqrroosVPJhjjgePyN5Ts20UzMljnHc65kWp66+L0KVkFBVd+mI39coupDHIVQ6lzpkzESoSkpKrAqerlDxCT9EzLTRXHnllUXnYa5myWKgzzzzjNUckOOQPM+9B9+Lr4+FYoVQxV8fECqEyruiFYdQ6S7q6ZJQmTZTXh9/wXU9xnImo1BDrurnI0aMsH4vIUJlLlHlxwyhij+/ESqESquAlk/UpP8dh1DpLGhYt27dsjNU8nFzm41S9wyVzX1gW/EXXxdj/Mgjj2jVgwsvvFDJOlY2jwmhQqhs8pTEthAqhEqrgCYtUeXfLw6hatOmTeQ4yKKecexL+WON8u8kCgbvEbZo/c///E/kPBBG5QyvPL7JJh8IFUJlk6cktoVQIVRaBTRKo7f9t3FIjM4Zqnbt2qkPP/zQahORpNeNVxIFg/cIW6jefvttVbNmzcgM9ujRQy1YsMBqLiBUCJVv9QahQqgiF0/dhm/rdXEI1U477RQ5Dl26dFHz58+32kQQqrCFxfUGIY9gql27duRckAck//TTT1ZzAaFCqFzPl4r7h1AhVJGLpy0x0t2OK0Ilq6SvW7fOahNBqBCqikU6yf+/+eabCFUNuyKjW+dsv46b0uOvLQgVQoVQlZYquXwXtYDtvPPO6pNPPrEuVDo3pcuns5JsvLxX/MU5jRhzhipMmZLahlDFn7MIFUIVWSSiioftv4/jDJWOUDVo0EDdfffdatu2bVZlBqGKv/ClISs+vKesZSbrSkXNWS75uS9iCFX8dQWhQqgiF8+oxdb238chVIcccohWHGQdKtvLJug8HNmHZs0+xl/QTWM8btw4rTw48cQT1eLFi61OLLiHyq6kIVTx5x9ChVBpFVDbkhRle3EI1fnnn68VBxGqzZs3W20k0hSjLLDI5b74C6WpqPjy+ttvv10rDyR/Vq5caTUPECqEype8ye0nQoVQaRXQKAJk+2/jEKrLL79cKw5xCZUkaDFShUwhU7libuP7DTfcEDkPZJmFp59+2vqlb4QKobLBdJLbQKgQqsgF1LYgRd1eHEI1ZMgQrTjE8eiZ8gWgkFTJfVY8uw+ZKs+KjX/rPhx51qxZVs9OybEgVAiVDaaT3AZClZBQySMd+LITA5eESm5Kt30PVaECIHKFRCFRhfiw8XMdoWrcuLH697//HYtQUTPt1EyJI/dQxV87EKoEhMpGoWMb8SbDtddeq3WG6rrrrktMqGAgXgaIb6m6+uqrI+dB8+bN1aeffmpdqBgPePeNAYQKoaIQlpYqEaOolx7l77t3767WrFlDDMmjIBgYOnRo5DxAqBAf38Qnrv1FqGgEQTQC0wS57777IjcSEartt9+eU+nkUDA5NHDgwMh50KxZM85QkQPB5IBJL0GoSAQSobRUvffee6pOnTqRm4kIle2HwpokNK/lbIEJAwcddFDkHIjrHiqT4+C15EEaDCBUCBVCVVqqZs+erXQekNyoUSP13XffEUPyyHsGZGFOeZxS1EvfLVq0UMuWLfP++NNowLxnWOKHUNEIKIS/CtV+++0XuZlI84njI+MU2rAKrQ/jKRy3bt06cg60b9+eGkIfgYHSUoVQkQgkQmlp2WMzTjvttMjNRIRq4sSJxJA88p6Bv/zlL0qeTxn1DNVRRx3l/bH7ILzso/uTLISKRkAxLC1VW7ZsUcOHD4/cTKT53H///cSQPPKaAeH/iiuu0OL/j3/8o9fHjqi4Lyq+jBFCRSOgGP7KwIsvvkhDIR8ymQ+rVq1SBx98sBb/8rQAXxoe+4k8xckAQkUDoRj+yoDcQxL1cof8/Yknnmj9OWZxJj3bpqlUZGDevHlKbi7X4f+5556jhtBHYIB7qCisFQtrlv+/fPlyVatWrchNpUuXLurHH3+koNBUvGVg5syZkbkX+dpuu+3UjBkzvD3uLNc7jt1+/+cMFU2AYvgrA/JMvrp160ZuLE2bNlUvv/wycSSXvGXgtddei8y9CFWPHj3UwoULvT1upMK+VGQ5pggVTYBiWI6BXXfdVauxyCM7slxIOHa/G9OoUaO0uL/xxhvLPtDB+Ps9/oyfnfFDqMo1U6CyA5XPcbzwwgu1GssxxxxDYyGXvJXqvn37Rua+Zs2a6q233vL2mH2uU+y7m70KoaIJUBDLMXDvvfdGbixy6aNVq1Zq9erVxLJcLCn6bhb9iuOyefNmtddee0Xmvnbt2uqLL76AeZiHgV8ZQKhIBpKhHAMy427Xrl3k5iJSxY3pfghERaHI+v/lhnR5wLEwHOWrfv36aunSpdSPcvUj6yxl/fgRKpKBgliOAXmeWa9evSI1llwTeuGFF4hluVhmvbj6cvzDhg3T4n233XaDd3iHgXIMIFTlguFLAWQ/4z0Tcv3112s1mAEDBlBcyCevGFizZo3q2LGjFu9nn322V8dK3Yy3bhJfnuVHQaABVmLglVde0Wow8pDY2bNnV9oehYZC7ioDb7zxhhbrclZW7jd09bjYL3IuDQY4Q4VQUBQrMPDtt99qN5mRI0cSzwrxTKOw8Z7FNdQhQ4ZosS73GX7wwQewDuswUI4BhKpcMCjCxRXh0OO0adMm1bZtW61G0717dwoMOeUNA8cff7wW56eddppau3atN8cZes3i+NzoXQgVxZ+imIeBs846S6vR1KtXT8kjbChwbhQ4xqHwOMiZ2A4dOmhxPm7cOBjPUzfgrTBvWYgNQkVSUBjzMCCP4mjSpIlWs5F7sLJQPDhGv5vHfffdp+rUqaPF+IoVK2A8T90gJ/zOCdPxQ6hICgpjHgY2btyojjrqKK1mI6tOy3MBTZOT12e7OMc5/rKY5xFHHKHFd+vWrWE7T82Ic7zYth+1AKEiMSiOBRi4+eabtRpOixYt1Ntvv01cC8SV5pB+c5AVzuXydG4NtSjf+/fvD9uwDQN5GECo8gSFgp9+wXdhDKZPn67VcKQ5XXzxxRQccstZBm677TYttrfbbjvFJW3qowv12cV9QKgo+s4W/bQTRj7F1LBhQ63G06lTJ+JKbjnJwMqVK9U+++yjxfVhhx2mFi1a5ORxpV0veH9EE6Gi6FMcq2DghBNO0Go8NWvWVN9//z2xrSK2NKB0GtBDDz2k5MHGUS7z5f72xhtvhGmYhoECDCBUBQJDsU+n2LsW90mTJml/2u+KK66g8JBfzjGw3377acmUSNU777zj3PG4VjPYn+z2DoSKgk+BrIKBLVu2qEMPPVSrAcmnoaZNm0Z8q4gvzSfZ5vOvf/1Li2WRqWbNmql169bBMzzDQAEGEKoCgaHQJ1voXY730KFDtZtQv379KD7kmBMMlJSUqD59+mizfMMNNzhxHC7XCvYt230DoaLYUySrYeCTTz7RbkINGjRQS5YsIcbVxJhGFH8jmjx5smrevLkWy7vvvruaP38+HMMxDFTBAEJVRXAo8vEXeV9i3KNHD61GJJdKLr/8crVt2zYKEbmWKgODBw/WZviWW25Jdd99qRPsZ7Z7BkJFkadQFsHAyy+/rL0Qoiz0+f777xPnIuJMQ4qnIX3zzTfa/MonVufOnQu/8AsD1TCAUFUTIAp8PAXet7hu2LBB7bvvvtoz/IEDB1KMyLVUGJDHzJx66qna7Pbq1SuV/fatRrC/9AqEiiJPsSySgZdeekm7KTVq1IgFEYuMM43JbmN69dVXldzLl1tLKsp34XbChAnUCNiFgSIYQKiKCBIF3m6B9zWeMtPv2LGjVmOSJnbRRRcpWYbB1+Nnv/3MA92HfAuzxx13HMzSI6hZRTKAUBUZKJqJn83E9rjpPjBZmlOdOnXUU089RXEi5xJj4PXXX9eeAAizb775ZmL7ajtX2R41O2kGECqKOwUzAgOLFy9Wv/vd77SbVJcuXdTGjRuJeYSYJ10UQ3m/zz//XG2//fbarMrCtJxRRUpCyYckjgOhorDT3CMy8OSTT2o3KZn133vvvcQ8YsyTKIahvccFF1xgxOltt90Gp3AKAxEYQKgiBCu0gsvx6M0+5RN/O+64o3azatq0qfr4448pVORebAx88MEHarvtttNmtHv37pxJhc/Y+Ay19yBUJA1Jo8HAs88+q92s5CzV3nvvzeUUjbiHWohtHtfKlSvVMccco82nrDs1c+ZM6gJ8wkBEBhCqiAGzWfjYlt4ZIhfiJiuf77nnntpNS6Rq7NixFCzyzzoDd9xxhxGXJ598svV9ciFn2Qd/660vY4dQUdApnpoMyPo+Ika6X7vssov66KOPiL9m/H0psknu57/+9S/tNaeE4/r166vp06fDJEzCgAYDCJVG0JIskLyXu7OqTZs2qSOPPFJbqKSBnXLKKUq2wzi7O86+jM3ChQvVQQcdZMTj6aefDov0BBjQZACh0gycL0WW/Yy3UcvNv3LPie5ZKnndiBEjKGDkoREDcgm6f//+RhzKhyW+//57o/2g3sRbb4iv2/FFqCjkFFBDBmQ1aROhql27tpo8eTLjYDgOWW42Tz/9tKpbt642h7Vq1VJPPPEEDMIgDBgwgFAZBC/LBZxj/89Maf78+UaPpBEZk2UY5JINcf1PXIlFcbGYOnWqkkU4TaReJgXEu7h4EyfiVIgBhAqhopBaYOCVV14pe7SMSVM76aST1Lp16xgPC+NRqOCF9vPVq1erI444wkimhNnXXnsN7uAOBgwZQKgMAxhageZ49GZfW7duVSJEJkIlr73pppsoauRk0QxcfPHFxsz17t1byYO/yX293CduxC3HAEJF8aaQWmJAblDfYYcdjBqcfGz9zjvvZEwsjUmu0IX4/bHHHjNiTQS+a9euatWqVfAGbzBggQGEykIQQyzWHJPerEtu7DU9SyWvnzJlCgWO3CzIwCeffFK2ZpQJa/JhCNac0stz6iNxy8cAQkXRLli08wHDz6ouJPLxdZPHfuQapJw5mDt3LmNDflZi4K233lINGzY0Fnce0l11LlPriE9UBhAqCnalgh0VIv7+t4Vn8eLFat999zVueJ07d1aLFi1ifMjR/2Ng1qxZVmRKbmQnb3+bt8SDeJgygFBRrCmsMTAgCyS2bNnSWKp69OihvvnmG8YohjEyLZ5Jv17WKrNxZqpdu3Y88gieqCkxMIBQxRDUpAst7+fmzOrxxx83XkVdLgHutttuaunSpRTADOfqxx9/rBo3bmws6MLTpEmTYCnDLNEv4usXCBWJRXGNiQG5n2rYsGFWmqBcovnqq68Yq5jGyuUmI2emGjRoYIWjgQMHwlAGGXKZ75D2DaEiuSiwMTKwYcMGJZdYcjebm3zv1q2bWr58OeMV43i5VtxnzpypmjdvboUfeRD3+vXr4SdD/LjGc+j7g1CRXBTYmBl4//33VadOnaw0xUMPPVR98cUXjFnMY+ZC4X/nnXeMl0bICbx8wGHt2rVwkwFuXGA3q/uAUJFgFNkEGJB1pWzcUCwNUj5BuGTJEsYtgXFLqzFMmzZNtWrVyoqEN2rUSE2cOBFeAuYlLU5539/ej4VQkWQU2oQYGD16tJWb1EWqunTpwvPXEhq3pJvGXXfdpWrVqmVFpurVq6eef/55cjxQVpJmk/f7rUBVjAdCRaJRbBNiQG5S79evn5VGKVLVokUL9fTTTyvZbsXE5v9VFz5X4zN8+HBrfNSpU0fdcsstsJFQfrvKFPuVXC1AqEg2Cm6CDGzZskX179/fWtOUMxmDBg3iZuMExzCOBiWLwZ577rnWuBCZGjNmDLntORdxsMY24xMshIqEo+gmzICcUTrnnHOsNU85W9W7d2/1ww8/MJYJj6WN5jR//nx18MEHW+Ohbt26nJnykAMbLLGN+GSpmNgiVCQeTTgFBuRM1YABA6w1UZEquYl5woQJjGcK41lMsc33N+PHj1e///3vrXEgZyzHjh0LAx4xkI8LfpauGOnGH6Ei8Si+KTEgZ6rOOussa81UpEpuQn7llVcY05TGtNhCvHnzZnXnnXda+yRfbuy5Z8rPRlwsN/yd2+OLUDleeEkgtxPIdHy2bt2qLrnkEqtSJc31sssuU2vWrEGsHMzvTZs2qQsuuMDqmNesWZN7phwca9P6wOv9qv8IFUlI002ZATlTdeaZZ1ptsCJVZ599tlq5ciXjm/L4lm+Kcp/bUUcdZXWs5TLfxRdfrOQycvn34t9+NWPGy//xQqgcKrYklP8JpTuGcqZKPq0nImTza5999lGyqKjufvE6e0zOmTNHtW7d2ur4CiuXXnop4kwdJ8cdYAChcmAQaFr2mpbPsZQzVWeccYb1hvu73/1OPfHEExTcFHNdHiPzX//1X1bHVlZAv/3229Xq1asZ2xTH1ueaw77b7T0IFYlIMXaIgbjOVMmZDKTKbvEsthk9+uijqnbt2lZlSj58MG7cOHLXodwtlgf+Lp08TCLuCBUJSVF2jAE5UzVkyBCrDViEqmnTpuqRRx5hvBMc7zfffNPaY2Ryl4L32GMP9fXXXzOOCY5jEs2Y9/BftBAqkpLC7CgDn3zyidWP1eca8lNPPcWYJzDm3333nfXxk2c4/vLLL4xfAuOH4PgvOEmPIUJFYlKcHWbg888/V8cee6zVs1Xt2rVTf//73xn3GMc9Dhk+/fTTuV8qxjFLuvnyfuEJG0JFgtJYPWBg4MCBVqVql1124ZNhMY37t99+a/0GdHloMg04vAbMmIY1pghVTEWVRAkrUVwYz7feesvqJaTjjz9eLV++nEZtsQbIc/nkDGDu8qrpd57LRx1xofawD8VxiFBZLKZAVxx0xEk/Th999JFq06aNtYYtj75hPPTHo3zs5HEyxx13nLWxkTWrpk+fzvhQo2HAEwYQKk8Gqnzh5t92GqCvcVy4cKHq0aOHtcb94osvUrAt1IHRo0db+0TfIYccgkxZGBNfc5z99rPGI1QkLc3UQwZKSkrUSSedZEWq6tevr15//XU4MOBg7ty51i7HyiODRJppqn42VcYtu+OGUBkUURInu4njwtiLVF1xxRWqTp06xmIlq3jTxPV4lvvQbHwSUx5wfMcddyi5dOgCX+yDHg/ELbtxQ6gQKoq35wyMHTvWykrc8oDm9evXw0NEHgYPHmwstCJTV111FbGPGHvkJbvy4uLYI1QkMEU8AAaefPJJK/fvyLPhXCxUru7TxIkTlciQyaf55PUSd1kh39XjZL8QFxiongGEKoBmCujVg56FGF188cVGjV2kYMcdd2R9qiJrwvfff6+6detmFPPcmSlkihzOQo0K/RgRqiKLZ+ggcHz+F3S596Z3795GDV6k6s477+RMSRF14frrrzeOtXwykNzzP/cYQ8ZQGECoiiicJAvJ4gsDIlWHHXaYUaOXhSm/+uorGn0VtUHOTpku4Nm3b19uQK8ixr7kHPtJf8gxgFCR0DTOwBiQT+vtsMMORlJ1ySWXwEUBLrZs2VL26UqT+6YOPfRQPlVZIL655sR3RMU3BhAqkprGGSADcoapbdu22lLVokULJauy+1bQktjf9957T8naXbpC1aBBA/Xmm28S2wDzLgn+eA93RROhIqkp7IEy8Oqrr2o3fZEFWTh0w4YN8FGBjzPOOMMorrfeeisxrRBTJMFdSWBsih8bhIrEprgHysDWrVtVnz59jJr/+PHj4aMcH3PmzFGNGzfWjqlIKp/oK75B0cyJlU8MIFTliqVPA8e+UmiKYWDZsmVGl6cOP/xwhOrXGiEr01922WXaMiWX+n744QfiSc2FgUAZQKgCHdhimi1/kw0pGzBggLYEyNmYn3/+mQZQWlr2yccmTZpox/K6664jjtRbGAiYAYQq4MFFmLIhTNWNs5wV1gUncwAAFo5JREFUadOmjbYIjBw5kiZQWqrGjBmjHcNmzZqp1atXE0fqLQwEzABCFfDgVtdo+X12hOvZZ5/VfjRNx44dWT29tFTJUge6n+wbPnw4jZRaCwOBM4BQBT7ASFN2pKm6sT766KO1heDDDz/MdDOYOnWq9jP7unbtqtauXZvp+FXHJr+nToXAAEKFUFHoM8KAPEBZ9wyLPCcwhIKncwxyM/p5552nHbuXXnops7HTiTevQa58ZQChykgz9RVQ9ttecV26dKnaf//9tcSgZcuWat68eZkUgy+//FI1bdpUK27bb7+9kuUr4Ngex8SSWLrKAEKFUFHsM8TAo48+qiUGtWrVUk8//XQmWXnooYe0YiZnA6+88spMxszVhsd+IWNxMoBQZaiZxgkS2/ajUC1fvlzVq1dPSxBkhXB5jl3WxvoPf/iDVrwaNmyoPvnkk8zFK2t8cLx+1L4kxgmhQqgo+Blj4MQTT9QShObNm6tFixZlihdZ1bxz585a8RIR27hxY6bilUTT4j0QGFcZQKgy1kxdBZH9Sq5IPvfcc6p27dpakjBlypRMCcL06dOVnGmKejN/zZo11d/+9rdMxYocTi6HibWbsUaoECqKfsYY+O6775R8lD+qJMjf33LLLZnhRc5OjRgxQitOjRo1Yu2ujOUVkuOm5CQ5LggVSZ+ZBplkYrn+XkOGDNESBXm4r+vHZmv/fvnlF3XkkUdqxWnPPffMTJxsxZvtICS+M4BQIVQU/gwyMHnyZC1R6Natm1q1alUmmJEzea1bt9aK0+jRozMRI98bIPuPxNlkAKHKYDO1CRDb8rMgrVixQtWvXz+yLLRr10598MEHmZCFt99+O3J85LKoxOizzz7LRIzIfz/zn3GLZ9wQKoSKwp9RBnTuo2rcuLF6/vnnM8HMfffdpyVUJ598spLLhTSteJoWcSWurjKAUGW0mboKJPuVXLGUdaV0bkyX+6/khu3Qx2rw4MFa8bntttuCj03oY8/xJVeHQoo1QoVQUfwzysDw4cO1hGGfffZRa9asCZ4bnQU9ZUX5v//978HHJqQmyLEgT7YYQKgy2kxtAcR2/C1GculO5wxVixYt1MKFC4OXhkMOOSRyfOS+tKw+85Ba4G8tYOzsjB1ChVAF3xgpFvmLxccff6zat28fWRpkUdDZs2cHzc2yZctUp06dIsemWbNmrI5OTQ06N6in+eupxAWhIvlJ/owysGTJEtWnT5/I0iBntWbMmBE0N1OnTlWtWrWKHJuOHTsGHReaaeFmSmyIDUKV0WZK8pP8JSUl6vrrr48sDSJUId8nJDfc33PPPVoPkZaFQMktcgsGsskAQoVQ0QAyzMD999+vJVSvvfZasNyIaI4cOVIrLueff36wcUESsikJjHvx445QZbiZkijFJ0qosRo3bpyWOIT84N+NGzdqC5U8+y9UVjgu6gUMVM0AQoVQ0QAyzMBzzz2nJVQiYqEW1w0bNmgL1c033xxsXEIdb46rakkgPsXHB6HKcDMlUYpPlFBjpStUDz/8cLDiYCJUN910U7BxCTUHOC7qoC0GECqEigaQYQYmTJigdYbqoosuCpYbuSn91ltv1YoLQkVzttWc2Y5/LCFUGW6mJKx/CWt7zN555x0tcdh///3Vzz//HKRUbd26VV1zzTVacUGoyCnbOcr2/GEKoUKogmyKFKHiitCCBQuUPC4l6orpNWvWVP369VOXXXaZuuKKK9R5552nzjzzTK+/zj33XHXxxRerdu3aRY5HLn4IVXHckZ/EKUQGECqECqHKMAPyibZ69eppC0ROJPheoyyGCBWiEKIocEzFcY1QZbiZkiTFJUnIcVq/fr2S588hRP8rRKZxQKjIqZDrBcdWNd8IFULFGaoMM7Bu3TrVsGFDhKoGQkWzrLpZEh/iUx0DCFWGm2l1cPD78AsIQmVHpHJntjhDFX7OUBcZ40IMIFQIFWeoMswAQoVQFWoO/BxxgIFoDCBUGW6mJEu0ZAkxXggVQhUi1xwTtS0NBhAqhIozVBlmAKFCqNJoPLwnwhMiAwhVhptpiEBzTNEKNUKFUJEz0XKGeBGvQgwgVAgVZ6gyzABChVAVag78HHGAgWgMIFQZbqYkS7RkCTFeCBVCFSLXHBO1LQ0GECqEijNUGWYAoUKo0mg8vCfCEyIDCFWGm2mIQHNM0Qo1QoVQkTPRcoZ4Ea9CDCBUCBVnqDLMAEKFUBVqDvwccYCBaAwgVBlupiRLtGQJMV4mQrXHHnuoo48+Wp122mlBfXXu3FnVqVNH63E8rJROToVYJzim4rhGqBAqzlBlmAFdoWrdurV69dVX1cKFC9WmTZvUqlWr1LJly7z+kgdFb9u2Tb3zzjuqZ8+eCFWG8wKBKE4giNNv44RQUTQQqgwzoCtUvXv3Vps3bw6WnZtvvhmhynBeIAq/FQXiUVw8ECqKRrBNkSJQfRHQFaq+ffsGzc2tt96KUFEbg2ac+lh9fYwaI4SKokHRyDADukJ1/vnnB8vNhg0b1MiRIxGqDOdF1EbK39uXEx9jilBRNIJtjD4mZNL7jFBVbgQIVeWYJM0l78cY+MgAQoVQIVQZZgChqty4EKrKMfGxubHPjGPSDCBUGW6mScPG+7lX4BCqymOCUFWOCblLTGCgegYQKoSKM1QZZgChqlwkEarKMaGZEhMYqJ4BhCrDzZQEqT5BQo8RQlWZAYSqckxCzwOOjzG3wQBChVBxhirDDCBUlRsJQlU5JjaaDdsgrqEzgFBluJmGDjfHV30BR6gqxwihqhwTcomYwED1DCBUCBVnqDLMAEJVuUgiVJVjQjMlJjBQPQMIVYabKQlSfYKEHiOEqjIDCFXlmISeBxwfY26DAYQKoeIMVYYZQKgqNxKEqnJMbDQbtkFcQ2cAocpwMw0dbo6v+gKOUFWOEUJVOSbkEjGBgeoZQKgQKs5QZZgBhKpykUSoKseEZkpMYKB6BhCqDDdTEqT6BAk9RghVZQYQqsoxCT0POD7G3AYDCBVCxRmqDDOAUFVuJBs3blQjR45UNWrUiPx10003kU8ZzicbTZltVM5JX2KCUJH8NIAMM4BQVS7emzdvRqgynBO+NG/2s3Luph0ThIrCgVBlmAFdoTr33HOD5UYu+V166aWRz07JGa2777472Lik3ax4f/cEgjH57ZggVBlupiTDb5Mhi/HQFaq+ffsGKw6rV69WxxxzjJZQPf3008HGJYv5wTFTI6MwgFAhVDSADDOwfv16Vb9+/cjysN9++6m1a9cGyc7ixYtV27ZtI8ekcePGasqUKUHGJEpT4W+RkKwygFBluJlmFXqO+z8FX27Arlu3bmR5aNmypZoxY0aQ8vDtt99Gjodc7uvVq5eaO3dukDEhZ/6TM8SCWBRiAKFCqGgAGWZg27Ztauedd9YSiHPOOUdt3bo1OH7k/jCdT/idcsopasmSJcHFo1Dz4OeIBQz8lgGEKsPNlGT4bTJkNR7HH3+8lkA0aNBAzZo1KyiBePHFF1WtWrW04jFgwAAlN7RnlSOOm3qSdQYQKoSKBpBxBoYNG6YlEHIWZ9ddd1VvvPGGKikp8Z6je+65RzsOEovx48d7H4OsN0SOHyk0YQChyngzNYGH14ZRfEQE5IZqnctc8pomTZqoIUOGqO+++847oZBLlp999lnZ/usev7yudu3aSm5mJyfCyAnGkXHUYQChQqhoAhlnYM2aNeqEE07QFqqciNSpU0d16NBBHXrooapHjx7qyCOPdPJL9u2II45Qe+21l2rXrl2ZDOWOQfe7bEunAPMaGjcMhMMAQpXxZkoyh5PMJmP53HPPGQuVroyE8LoRI0YgVNRSGMg4AwhVxgEwacK8NhwZkwU+W7dujVRpPL9v9913V/PmzaOZUkthIOMMIFQZBwApCkeKTMfy2muvRag0hGrs2LE0UuooDMCAQqiAgEIAA2UMLFu2TB177LFIVQSpkkfUmIosr2dSAwNhMIBQ0UxpCDDwfwzMnDlTNW/eHKkqQqo6depU9glBmmEYzZBxZBxNGUCoaKb/10xNYeL1YRSkJ554QntxyxBuMC/mGORxPbL+FsyHwTzjyDjaYAChQqhoCjBQiYGhQ4dylqrAWSpZIX7UqFGVYmajILMNGjsM+MsAQkUzpTHAQF4GbrrpJqSqglSJTE2YMCFvvGiE/jZCxo6xs8EAQkUzpTnAQEEGTjvtNKTqV6mqWbOmksf0hPhAaBvNhG0gJVlnAKGimRZspllPDo6/tOxxMq1atUKqatRQRx11lFqxYgX5Qs2EARjIywBCBRh5wUAmmG0KA19//bXabrvtEKoaNdTee++tfvjhB/KFmgkDMJCXAYQKMPKCgVAhVMIAj6Sp8X8y2bBhQzVmzBjyhZoJAzCQlwGECjDygoFQIVTCgI1P+8kZrp122knJuk277bab6tKlS6Jfv//979XOO+9ctr6W3AdVzLIIhf6mb9++5As1EwZgIC8DCBVg5AUDoUKohIHjjjtOW0AOOeQQ9dhjj6mPPvpILVy4UMlK7Gl9LV26VM2ePVs98sgjat9999U+pvbt26sNGzaQM9RNGICBSgwgVEBRCQpkCpkSBlavXq32339/Lfk4//zznb3fSOTu5JNP1jquOnXqqCVLlpAz1E0YgIFKDCBUQFEJCoQKoRIGPv/887LLdIUuf1X188WLFzvN1YIFC9See+6pJVVyposcIUdgAAYqMoBQIVQ0BxjIy8DEiRNVu3btIktHkyZN1JYtW/Jus2IBSuv/q1at0r6c+eWXXzp9bGnFlPdFMLLOAEJFM6U5wEBeBp555hmlswaV3GfkemFds2aNOv300yPLopyV++KLL5w/Ptfjz/4hXyEygFDRTGkOMJCXgblz56o99thDSzqefPLJvNt0oYhu27ZN3XvvvapRo0ZaxzZ//nxnj82F+LIPyFJWGUCoaKY0BxjIy4A8YuX444/Xkg657Hf33XeX3djuUnHdtGmTeuWVV7QuZcrZqXr16rFaOvmSN19c4px9SUdqESqKA8UBBgoy0K9fPy2hyt2wLmeBZA2offbZRx1wwAGpfMknFWWphM6dO6umTZsaHU/Xrl1VSUlJwXjRyNJpZMSduLvAAEJFM6U5wEBBBkaMGGEkIDmxCuX7oEGDCsbKhYLOPiAWMJAeAwgVzZQGAQMFGZgxYwZCVeN/Hz/TrFkzNXny5IKxopGl18iIPbF3gQGEimZKg4CBggysX79edezYEamqUUOdeuqpBePkQjFnH5AKGEiXAYSKZkqTgIEqGXjqqaeU6TPwQrjkx3IJ6TYrZIH4u84AQkUzrbKZug4w+xd/kZVlBo488shMn6WS44e1+FkjxsTYZwYQKoSKRgED1TIgj6GRJQNCONMU9RgaN26sZs2aVW2MfG4E7DsiAwPmDCBUNFMaBQwUxcB9992n5OHAUYXE97+//fbbi4oPDcm8IRFDYugzAwgVzZRmAQNFMzB06NBMCdUNN9xQdGx8bgTsOyIDA+YMIFQ0UxoGDBTNgDwD79JLL1W1a9cOXqwGDx5cdFxoRubNiBgSQ98ZQKhopjQNGIjMwGOPPab9LDzXLwHKelNjxoyJHBPfmwH7j9DAgBkDCBXNlMYBA1oMyI3ahx9+eDBnqurXr6969uyp3nvvPa140IzMmhHxI36+M4BQ0UxpHjBgxMCkSZPUcccd5+2nAOXyZZ8+fdT06dON4uB7M2D/ERoYMGMAoaKZ0kRgwJgBWVH9s88+U+PHj1fXX3992ZmevfbaS+29997OfMn+yMON5UHNRx99tLrkkkvU448/XrbfmzZtMo4BzcisGRE/4uc7AwgVzZRGAgOxMLB582YlN7H/8ssvTn2VlJTEcry+NwP2H6GBATMGECqaKc0FBmAABmAABmDAkAGEyjCAGL2Z0RM/4gcDMAADMBACAwgVQsWsBAZgAAZgAAZgwJABhMowgCFYNcfA7BAGYAAGYAAGzBhAqBAqZiUwAAMwAAMwAAOGDCBUhgHE6M2MnvgRPxiAARiAgRAYQKgQKmYlMAADMAADMAADhgwgVIYBDMGqOQZmhzAAAzAAAzBgxgBChVAxK4EBGIABGIABGDBkAKEyDCBGb2b0xI/4wQAMwAAMhMAAQoVQMSuBARiAARiAARgwZAChMgxgCFbNMTA7hAEYgAEYgAEzBhAqhIpZCQzAAAzAAAzAgCEDCJVhADF6M6MnfsQPBmAABmAgBAYQKoSKWQkMwAAMwAAMwIAhAwiVYQBDsGqOgdkhDMAADMAADJgxgFAhVMxKYAAGYAAGYAAGDBlAqAwDiNGbGT3xI34wAAMwAAMhMIBQIVTMSmAABmAABmAABgwZQKgMAxiCVXMMzA5hAAZgAAZgwIwBhAqhYlYCAzAAAzAAAzBgyABCZRhAjN7M6Ikf8YMBGIABGAiBAYQKoWJWAgMwAAMwAAMwYMgAQmUYwBCsmmNgdggDMAADMAADZgwgVAgVsxIYgAEYgAEYgAFDBhAqwwBi9GZGT/yIHwzAAAzAQAgMIFQIFbMSGIABGIABGIABQwYQKsMAhmDVHAOzQxiAARiAARgwYwChQqiYlcAADMAADMAADBgygFAZBhCjNzN64kf8YAAGYAAGQmAAoUKomJXAAAzAAAzAAAwYMoBQGQYwBKvmGJgdwgAMwAAMwIAZAwgVQsWsBAZgAAZgAAZgwJABhMowgBi9mdETP+IHAzAAAzAQAgMIFULFrAQGYAAGYAAGYMCQAYTKMIAhWDXHwOwQBmAABmAABswYQKgQKmYlMAADMAADMAADhgwgVIYBxOjNjJ74ET8YgAEYgIEQGECoECpmJTAAAzAAAzAAA4YMIFSGAQzBqjkGZocwAAMwAAMwYMYAQoVQMSuBARiAARiAARgwZAChMgwgRm9m9MSP+MEADMAADITAAEKFUDErgQEYgAEYgAEYMGQAoTIMYAhWzTEwO4QBGIABGIABMwYQKoSKWQkMwAAMwAAMwIAhAwiVYQAxejOjJ37EDwZgAAZgIAQGECqEilkJDMAADMAADMCAIQMIlWEAQ7BqjoHZIQzAAAzAAAyYMYBQIVTMSmAABmAABmAABgwZQKgMA4jRmxk98SN+MAADMAADITCAUCFUzEpgAAZgAAZgAAYMGUCoDAMYglVzDMwOYQAGYAAGYMCMAYQKoWJWAgMwAAMwAAMwYMgAQmUYQIzezOiJH/GDARiAARgIgQGECqFiVgIDMAADMAADMGDIAEJlGMAQrJpjYHYIAzAAAzAAA2YMIFQIFbMSGIABGIABGIABQwYQKsMAYvRmRk/8iB8MwAAMwEAIDCBUCBWzEhiAARiAARiAAUMGECrDAIZg1RwDs0MYgAEYgAEYMGMAoUKomJXAAAzAAAzAAAwYMoBQGQYQozczeuJH/GAABmAABkJgAKFCqJiVwAAMwAAMwAAMGDKAUBkGMASr5hiYHcIADMAADMCAGQMIFULFrAQGYAAGYAAGYMCQAYTKMIAYvZnREz/iBwMwAAMwEAIDCBVCxawEBmAABmAABmDAkAGEyjCAIVg1x8DsEAZgAAZgAAbMGECoECpmJTAAAzAAAzAAA4YMIFSGAcTozYye+BE/GIABGICBEBhAqBAqZiUwAAMwAAMwAAOGDCBUhgEMwao5BmaHMAADMAADMGDGAEKFUDErgQEYgAEYgAEYMGQAoTIMIEZvZvTEj/jBAAzAAAyEwMD/BweCkx2XgqyTAAAAAElFTkSuQmCC;" vertex="1" parent="1">
          <mxGeometry x="147" y="240" width="52.71" height="49.97" as="geometry" />
        </mxCell>
        <mxCell id="shZay32Vncn5JO2l-WHq-3" value="" style="shape=image;verticalLabelPosition=bottom;labelBackgroundColor=#ffffff;verticalAlign=top;aspect=fixed;imageAspect=0;image=data:image/png,iVBORw0KGgoAAAANSUhEUgAAAOgAAAD1CAYAAABa4bk9AAAgAElEQVR4Ae3dCdQtR1EH8CDuK+4mbmDirqDiAgJGlAgScYlBIJKHEhQUNREEI4gBJCBIjCARFFAEoyRiUFFcEFAMqAiiIiiK+4aC+77geH5jKq9ev557Z+4637vd58yZuXNneqmuf1d1VXXPaV1LjQKNArOlwGmzrVmrWKNAo0DXANqYoFFgxhRoAJ1x57SqNQo0gDYeaBSYMQUaQGfcOa1qjQINoI0HGgVmTIEG0Bl3Tqtao0ADaOOBRoEZU6ABdMad06rWKNAA2nigUWDGFGgAnXHntKo1CjSANh5oFJgxBRpAZ9w5rWqNAg2gjQcaBWZMgQbQGXdOq1qjQANo44FGgRlToAF0xp3TqtYo0ADaeKBRYMYUaACdcee0qjUKNIA2HmgUmDEFGkBn3Dmtao0CDaCNBxoFZkyBBtAZd06rWqNAA2jjgUaBGVOgAXTGndOq1ihw5AD6v//7v53jrW99a/c///M//fHf//3f3X/+5392//Ef/9Gf/Xb433Pxzly7W/3UVZ3/7d/+rfunf/qnvRz//M//3P37v//7CXSbM81KHviv//qvvv/xguvggcwHc23PUL2ODEADlJjoNa95Tff85z+/+97v/d7u8Y9/fPdN3/RN3cUXX9w98IEP7L7u676uu/TSS7tv+7Zv677ne76ne97znte9+tWv7hk+wDpEjH3cx0ivfe1ru2c/+9ndox/96L7+X/EVX9Hd73732/lx//vfv/v6r//6nnbo9od/+Ic9WPdBl6EyYzD7m7/5m+7lL39598M//MPdVVdd1T3mMY/pHvrQh3Zf+7Vf2/OBdjz84Q/vvuM7vqP7vu/7vu4nf/Inu9/93d/tgSuPo5JmDdDojH/4h3/oXvziF/ed8KVf+qXdZ33WZ3W3vOUtu1vc4hbd+7//+3fv9m7v1r3DO7xD93Zv93b9+V3f9V2793u/9+tufvObdx/3cR/XfeZnfmZ3r3vdq3vkIx/Z/ezP/mz3d3/3dz3j7aujlGuweOMb39g98YlP7O5617t2H/ERH9G913u9V/eO7/iO3du+7dt2N73pTXd6KBP93vmd37mnHbrd/e537571rGd1f/VXf7VXLQStDGR/9md/1g+43/iN39idf/753e1ud7vuoz/6o7sP+ZAP6d77vd+7e5d3eZfu7d/+7ft2oOO7v/u7d6effnp35plndp/4iZ/Y3fnOd+6+/Mu/vAftr/7qr3b/+q//ulc+GDNIzBKgGNiBMUjJe9zjHt0nfdInde/7vu/bvc3bvE132mmnTT68BwCf8Amf0H3xF39x95SnPKX74z/+4xtV4DHE2tQzGA6DYJYzzjijB+Qqbdr2O5j9rLPO6h72sId1f/AHf9DTalM0GJMPHqCm/vZv/3Z3+eWXd+eee24PSMC7yU1uMpkH0MvAh+af/umf3msoP/IjP9L97d/+7V4HoEW0mBVAdYj5AmB+53d+Z3fOOef0UpB0BLBVOyUY2fvywXgf/MEf3H32Z39294QnPKEHqnKVv+2kjFe+8pX9oPMe7/EefZvWbVe0b9PnoBct5UEPelD3R3/0Rzujkf54/etf35GWt7nNbboP+IAP6CXjpvgAUEncj/zIj+w1hauvvrrXrAyec0qzASjGpcb8xE/8RD9SGuUQcQzTYaTyGPOe/HX8Xe5yl+6aa67pDSTbBKm8//zP/7yfZ1LLh4BZtmWXv2t0U/77vM/7dN/1Xd/VmW5si0bydfzLv/xLX9Ynf/Ind+/5nu85SKeyriWdyv9rv71DAFCDL7roou4Vr3jFrNTeWQBUp/z1X/91P6k3opk/GClrBM33ENdzDmCLI+75Pz9fu/asDqLKfcM3fEP3J3/yJz2TbIMJqWtG6g//8A+vMl20J9qxjzN61Ojm/qd8yqf0BjfSbdMJvUkvhpwv+ZIv6QdO7a/VpezHIbqN5YN436D5qZ/6qb1x8e///u+3NhBNod1eARqd8lu/9Vt9p5gj6pSyA/xGxCCkZ97pnd6p+7AP+7B+4s/6SBUyV3L+qq/6qu5zP/dze8MLo4fng/HkUcvf/ze72c26L/qiL+p+5Vd+ZStzU0aOr/7qr+5V7FyHaJfB6cu+7Mu6Bz/4wd1DHvKQnR+XXHJJb3yh/ge9o55+GzhDik5hsmXP4gOgf8ELXtCRmvp2qJ+CVvpLv5omfPzHf3x33nnn3WjBxwfod9/73rf7jM/4jO4DP/ADb1SPl/EBQ5nneQIM1vtWefcG0AAnU/md7nSnvlMQLxgin3UKK6POALwnP/nJ/TzOXNUE/x//8R97NwoXDB+i3yy1pDIXy3d/93d3X/AFX9ADUD6LOh8Tnn322b21V+eo56bSL/3SL/V5l+3EaBjsN37jN3oVcl9+UOWiG5cEC2mtnhdccEHPuJuiCfrSLFiLaRYAMtQ/6uN/A8h97nOf7jnPeU73ute9ruNyIfH0Ox4IPqCO44+//Mu/7H7xF3+x9wKYz9KY0LxWjnvKYYji7iLR1XGTfDCFdnsDqBGTy+O2t71tD76SWH47ENL8h4+L0YBpnCN67MjmOc97j1vjUY96VO+aka+OqJXrP1ZjvlbMs6nEYsg1lMt0/UEf9EHdS1/60n4Ovqmy1slHsIJBkOsiD5ToxV0BFJtImJ7d4corr+xBN9Qf7jPskZQGW5qIgA7vjgGOZ/CbQBbgDQs6lTaAmvtEm/1WJg8CP/VYftsEXXIeewEogr3sZS/rpUkQKDMC4ugU0ozK96d/+qc9gUOijemU3EjPO7yvo9785jf36hB/aa18dXHffMQgEuXmPFe5/oEf+IHeVZSZwTUjlcFnX0xQtgWNfuqnfqofpMp++dAP/dBe0pfvTP2tP5TDjSZP/Z3Lco02NB6+TAEppKR3oj9W4QPvOoD1Va96Vfd5n/d5PRAXlY8Hf+/3fm/UYDCVDsue3zlAEVgkEJWzBg6dEqPlS17ykl6CbZpxdSypev311/cSnMqTQRPM4d7nfM7n9Ja9TUhSES2lVVIZX/iFX9gzwKbbuazzh/5Xjxe96EW9eyODRl2B5dd//deHXh19n/SjUXzMx3zMSbRXJsCwHwDQG97whh6YUwG5qDLy0k6gf+Yzn9kbCWvqtTa7z81Ecu+6j3YO0DCUkI658wMUOuXzP//ze58bMG+yU3KHyVf+ghWOHTvWRyPpjLJOOucrv/Ire0f9unVZBaDqOOUYqiPGquVTYzj3tglQ+VMzRXgZpEua6wcGO9MaUxPPD7Ur96lrz2qnAbU8/JeTPB0Ga8LgDne4Q6+11epDHRZSaF67y7QzgCIE/5a5Dcd3CQa/qZz3vve9+5EKkXeRdFr4JjFFrV6MU1dccUU/2o5llFrdpwBUOerGiMbAMfZgECmTvAxEjFQ5H9MMhqmScf3eFkDVRR3FGhuMS3qTnCLGqLTL5pjywieMWwZ+Bh1BIMJCf+7nfu6EQ3s8451aUhZam27UrMjqxVf68z//8z2gh/Kp5b3OvZ0B1GjGEMLsXXZKBuc+TNuIbZ4r4B5IayMoo5FON9qumqYAFEgwjZhi8zAMsuwgjZ7xjGecVD15Pe5xj+sHQM9EPlR7UkzfZIbbJkAZdxh6SmMZmuMD4Pz2b//2USAgXRms5CcMUNDJEK1oQk972tMGpbH2A7tpj5hdIC35AN0YjSwiQKNdpJ0B9C/+4i9631Sp2uoUc07zMMTehuREfAR1yN8Rv4Mx/TbXufDCC6sjqI63WsYAsmqaClCDwZT4Y7RkdCmTtollLSUWpuVSKiWV57chQdH6137t13opVaq26k6N5MdmaVWHoeQ/c8cf/dEf7W0EQvaARx4lqOK38p761Kf2+Uaf1/JHi5/+6Z/u3Uz6POfpWlnmrLTBXaSdANQILYTPio3cYMRDWNJpW24GnWFwoM5RT+KgBlFp8oCg46mB5iI6JzrXWb2N0D/2Yz+2shQ9ZIDqB0xtWVg5lUBbg4VFDKYbiwAEFMDJb2rFjXdLnsr9FtdjAapsUp4mIhAGf0Yezn5/2qd92s6sulsHaABEdEw5amowFY6Ksq3Jt/LF2VqexsHN5+hwjdDM7ZkhjN6AxPSfOyY6h8GIOpzfGTuSHjJADX7mh9THkq4A9rEf+7G9ekmCDSU056MNF1AJnjLf/HssQKNsg7o1pewPOZ8YTJ7+9Kf3QF6FD6KMMeetAzTmngBSjnQIbH0n1XJbDcUY3//9398PBMpTB4cOs17UaJnLdm3VxgMe8IBe9S47x9rDMBSMIXB+5pABar7IQEhlzzR1TfU271wWiK8vBZuIZpoCTmVMBaiyaF01m4my3Wfs8tw209YBSh2xqr029yTFrIgvpdgmGxwAxRh5gEBkUrIGUGqvHQU+6qM+6gRG8D7V184HQsimpikANVAY3ASOC29kXRxzmD+VSV7ozH2V82BYsUBAe/MghWabnoNy9HNnlVqUfrA2Uzz2MmYnPa+77roe5LkvAdBvkU+CS/iucztdWxQvhDG3s6RT/u05g8pll13W55vLc20uymioj7aZtg5Q0lEAejni6SjSk2l8m2kqQKMupChXAANWHvFj9Pz93//9eHT0eQpAZYpJfvM3f7MPDBAcMOZ4y1veUq2PuGUulZyHgJGa9rINgFJLqbGZ0dGVtZQLSwzwsvSmN72pNzSWIJcnqzC/6c/8zM/0hqjcTtfaKoJsauKWMoBk/lWeOthexaCxzbRVgGIwRheSsuwY8bXmnkapdZIyHJgqjrgn31UByoLKUEClzQDVDkYO6k82MI1pwyoAjbZE2xad49laXeI/58gj7pXP+3+TEjRie0srMlrG3HOMJKLekvoZLPpGvlxk4aKL9uXzUFvLtpe/aYCs9yzMJR/QsLZlO4l6bBWg1Efxp6VFVENvf/vb905zRFw16VQGG4tsWWTj8JtjHsjkbw46VsWNuniPUYO6lDvGNQaxZQqrpI4fm6YCdGy+m35O2zcFUPRhmf2ar/makwZpALVUcKzRTbyyNanlYG+qYmXL1AFzDN3kaUM3K21KPuBHppVM4YExZeZntgZQlbbci9pRElRD17GGRgNEkACfCTvAx+E36WyeuCpA1T9Gz3LE9ttaQ+2b0jmHCFD0F5Res94auKdYQwGU5b3sD1oOEI2RwsE7Y8/612oWPFUClJrL76yNU/hgbNme2xpAVdpGU+afJUDNO4RyMQ6tk8xbGGxKCY1wHN7mXasCVL0Q3a57FpLnNrg2LwmVamwbDhGgJBBjiqD4zOBoyN3lv7HMTcVl7CkBSsUVzM41Iq98jO2bRc9xvbEc89XmNuAzmwMYGMa2YVE5tf+2ClCRQaxqJXPbb4jqu26jtg1QBPuhH/qhkwIstIdaxTJpABibSPvaahYrexhrpuQ1tsxVnlOPIRVX3zG6jE2Yl0Vc/HVmbiAzyJlGjE2MRDQywCjzIkX5LQWgEAzmhnyqBoh1+Qw9lMsnmnlZG2gGZSTW2PaMeW5rAEUYqo1RMjfK9a1udave5D2mgoue2QVAg1HzqK0NzOyYa4paZZ4kMKOkB/Vpn4uCSxrrO4vVGXAyENSbtZRleWxih7CBeOlmQ09xrVOs+DQu9So1GnVUN/ftk2vbFNMdbh0qqKkIkK0KVO896UlP6rfrzH2nDaLjwtYxliZTntsqQH/5l3+53zqibBSGZAVdN+0CoAYZhqISoNQdS5QWRb6U7fvxH//x3rea6RGMde211/YW7VWZqCxr1d/KN3f/lm/5lj64PgMUDUi9KaBiJ+AHr01D7M80JbYZyKi53HO5P6KOaOm+g5Q1iJL4wEoTAqRV6Osd79tYLvedcngjWKnVbRtpqwDlYmHpKhtlv1vgXZQQRaON5vlwL4ixC4CSbBYNZ7VKewCU43vKPBrYa3MoeZujUYEZpoB+0UFqowk6LGO4TEfvLcoXAwOMeT2VsQSBeppzmeuNTdpjJU0NoMI/p+SlLer/whe+sJeUZf0CqOVZ2VRsCwbQbRnNyrZ5XoCETd1yma7Nf7kKgyfLd9f9vTWAYgZSsgZQEsnOeUMJQbzPwGQfGkHRDtekr9UEntkFQM2j73a3u1UBagHAFICqr+/IlOoewGN+/lVrDm9961v3ahpVrXaY1xvkHvvYx/bupCGGwzTqz6FuAQAXRS2/uGfXfXNrPj/MlwdW15hRRBK1dWzSZvWsAVQU0xSAKlNbSWUGN4OIeuV6luD02//aYyMwS86AdEpSJtW6jCyTp77kbjtyAEUE/kiLsDMBNcq3VfgshxKCGCkxjI6NTvCukVDcpmd2AVARKELFlB2drz4k6NT1oWhijyM7y2WaRL6ZmZS36EAXtBXtVFsBgmEYnuzOh4kMAIvyi/9q9XLP/5YEUm+nMKOd9vRXDaA+dGUR9dSk70kty81sYibvqL+z+g61wyBYW6S+qA7KMwXhC5V/9JdroD+yKi4jCh09E0ujSADGl6GUAZoJIh9Gll0ClJpOapf1EALoPwPJ2KRdpA9Vi0Ej5xmdPvYcTBj0yCFnwcA2u4oBMvfB2DLiOfW0VyyNQXvlPzaRLoLkawBVP3PKVZI6GPBIYEEjBj1g0S/KMiDV2uw/xika2th2eI6hKyR2SRda1JRBa0p7t6biqrAA6FizF41CNJbA5z73uYP1RBCMwNqbmdi7wZCe2YUENUrX2qAeqy4wZ1XktxPcPcRIQa9lZ/Qx4JmXYVh0wXxUudo8cll++X/0xtDAyRpKGk5N+tFu+iRXzlu9fRtnisumVrb2arf5M7oSCpYXAj9tSzkZqH6LKpviw1YGo5n+KvOybezUQavWjqF7WwUoP6H5Zm6Ua/4kox7C1hKCzAWgGB2Dlm2wfE5A/Sojp/bF3Izhwdwu558Zedm194Dcl9L4/9DNZt2x8fSq+WJkc1HzU4Pp1LDG6Fd9zJhm8XNui3pxiQhGXzehp0NfxGGQ8gGuAGmUrVztEnk0tu/Q1FSitB2gkQCGKdJ4alu3BlAEMzcSa1kyid8seFZeeK5M7u0boOpAdRGRVKpnOsZ8zHrAWv3L9tR+RxvNxXU+nyOfsdGd+ls7BDmEyhoMF2fvWRVCZbQjehnc7Tl0J8lqebtHQmBokpehyicUhNdhwFUTEGijASPqGmcMT9qtk/9QvdCXBZlhzAAWZaKBAdHODmMAKh9x3aWgkZ985ROay1Bd1rm/VYCytpl/YOggUJytTRyarAfz7lPFVQcagI/YRp3jrD0+BowBPLdq8m6M+IwlDEhiiM1Rv/Vbv/Wkg/sDmMtoJPVSJ1vHmF9ZiF4bFKnlQFfL2z1fJWchZ333OQV1U8d122hpnqCBoF+c1ZHqaBnYOmXU6C8/AywDX14yqEyhpugwBqCeoQHQmKLecTZws6Vsuu65PVsDqEI0jqXTqF0yDJWH6kRSlkmD3WfFjTma9zHhkBXX/3EgXBmLizm9H8/It7ajQtTFqGj+WYumMfL70I95z6aSNqOXchcdRnMLDUp1K+gTbQwmcvYfpz2AY9pF+auDY1NJu8xdDTplLKt62VVwaKAeUwf51w5tNMACVilB0YK2MaadjG+PeMQjemNnSVNai4FM+dtKWwWoSjMU8cFhnNxAo5ovUAloL5MGA6j3qF0khoMaxtRNKnuGBPMBXpbieMbZbyvhxW7qBEYKUSDej+fkq/N0QI3A5ogPf/jDe8bO9cZU5k6++lx7r2zLKr/lO3RQB7mvFrlqcn1dY1ABEqVULMtYpa5j3lEOVbYW9mnw5ludui4YHWhopknlgafwnSVutfhZ9wywYwD6O7/zOz3tSpDjZ376qfUeQ6/8zNYBCiQYvRw9NdA8x/4+RrucdKh7PnX3zd/8zf378nBwelPBPMNlIdzOCBf/O/ttZb0O9ByjifdyXq65awwEnsnJb8aL0r0SzG4Bb21gyXls61rdSCRWVWFsBowSkPk3Ogt++IVf+IVqW7dVzzJf1loRWeVAjfHvda979XvNlv1Q5hG/PWf+/4M/+IP9VMN0Ix8C220TU4Iz+s8Au2ypoDLwhq06yykDmhMwdhbcpBYV7cvnrQNUA2xVafTMjONaI4FpkZqAUOWRG+C6/D9+5+fiXnnOz0RepKc5GUNLBoBrI75vikyJpinL2MRvFlthd9S1kq7xW335Bi3tM1jtM4nvpdWU9VVHqiKaDmkzZb1JPoOu+aX3h46gQz4TFOpBAOCFoeQ/KvL5559/goosL+XRyMytS+EylN+q97cOUMQUfWKULEdPDeVj5ADPjvZVG7OJ9wwopK+Fwbljo2MsL6L2jFGPNlGfoTyoeKRiTcpHXUknRq5V3UFDZa9yHyPbl0jkT0lXfEG64pMxDJ8BWuY19BuvoYepwRh60FIE+duup8xTPqZnoaGtQo+x72wdoCpC2oidNFIiVG4wg46d65jzF41oYxu07nPC4zi5SyOMOnNx8ItawDuHumIQVt/ank/oLACflXHbatgYmqOX6Y7wPvHZmQfUlWQNy/iy/FYBqEGAMDBILBtcDRKMm1xDwFjWVbyyxR5jBpNlbVn2/04AqhKibrgASp+izjFXMHeMHRCWVXob/+s0DMSvVRtIdJR5DePDHMAZNAhVN/s90ZRBzG4Qq2wPGnlv+ozGltyRoqU25beBxrKuZaruWICig3wNCKKWLByneSzqP6DTx5a0lQEk8qMim+Puiq47AyhrF+KLnMkjkmsN5xwX+cEyu49k3ine0gLcsn5+qx+jwL7nciVtwqp73nnn9RIeQwInQ9YuP/JT1mvoN3sDHyQreklnfMCXyx+sXUMpA9Q7Q4cyTAH4Wn0UaYzEE+hxySWX9IN0rX7CKoUTMiDtIu0MoEYtkUWWGNWiYTAWF4oQQPr/olFuk4RRju0xqOBUoJpKYwS2uHjM3GWTdRuTl/qTONaasno/6lGP6oMNGDBqFuoxeW7zGeCKDyjRpoArgOAa/amWVHOAqvGBe4Lk9dmll1560sEIZLDnvhHFRNoN5RVtVS8DGv856zh+jHo5qxsXnSnOLuaeUa+dAVSBiODDrQwCpaobRGAdE9Gy7DMA0YB1zjqaxOZXNV8rO0Wd3KMecbssGtXXqccm3tUWWor2zGHOuahNgiX4podoDqRC9KikQ8DSF3iERC4P2tAyNTnqh274koHKulngzMCMa6otq7lAEe/sKu0UoBrFYGR1uiDsUE2CCAEIweniSZm5hzpoHQIhsA42f2O04OeqgVP9SFXMxDDU0uYoQKpxZZULEfBASFIAZhMQiABENWC4VzvG1NR7+JE13JfVBLiUfKAu7gn0IFx2PfjtHKCIQkXgaC+3kAigIgqjh/1v4luM0UHeXyVFJ8rHCG4+fMc73rFXW5QXZcdZp7DW2SyKVFq13FXqegjvoCc11Y7w5sxDfSC0E3hYVanswQer0ij4wMAv2MF2LGK+GYSi7/MZH1C5ffNmrFRetW6193YOUJVAJCMoP1MZpRHE0WHUYCOslSOCHahwCKuTpiTlec/oxwBxz3veszf6UFtqjOEeVccIvyziZEo92rMnUkA/Uhm5tQRU1PoCQAS3225E6J6tcvTjVKDiAe/QnAy4Bn5TFzHaVOqybL8dLM5U7VWX253Y4um/9gJQ1USwmP9ZwK0jSiIFWBlpRCLZKoXrQNgY1STAivC1I0DJbG6eackQU37NxxllqYeyhAaa28h3nwmdgrlqbVznnnz3nfSRTz9YAACk6B99kc/u06oYEvnN7avM4kqqjuEDABMiKnLN/BYwDdC5jLjGh8rznAUT+wKnvtkbQBWOQcztEJu6WxvJEC0IJjSQz9SXrgW63/ve9+7nKOaIHNCko50FrJKhuhiZqS+nn356/573Eb42EEQZjFSc/7u0JA+BBH0wnzkY074tVjZ1GOS0EcD3CVRlq4M2xubQi/oIjxhgWVQNpKZBvuXKakvSUUXxgWB4fMW/TkUWj8y/DeSl9TiAGbzmf9MfajVBsE/67BWgAVIqixUalh4h/lAHZUJ6xghI/RGFgvBxcOO4H4DM75XXAUxS2lxD55qj7rNTgi7AaQQ3DTAwkTCbOjA4Qx3rNIDsO6E3MHCNAF4M1rXBNPrQf57Tz+aQ+j14wBlf4KehqUzk4xx8gM52p7BaiTq8bz7YO0CDGTEJlZdTmTUtOigTsbxG1GVH+U75WzlGVv7ZiGTad6egCXpQ4TCaOhqQNn1gXIEBFovPoc3qYFDibxZDPGaA1Z/LeMD/Zb/n3/4nNa1y8TEnWt0cBi18MAuAxuitg4xaPi1ALbFyJDopOiETdpVr+WB0+ZIifLLUxjmMlkEHZ4xqSdyYgWoVOngHLaj/nO9zYUhtVxdzS4soRO6QhAYT/abOq7Y33gteQlsSlsQWPbSL1Sm5j8dczwqgKgykOgiDsthZBYOJqHY6KYi8ytkoSSKZw7IMW4sKmMqbgwTJHUbNtpvDJhhyiFbyxqBoDBBzSsEH1F42BXNCmg6wAtZQm5bd12aDs8GfvQEwqbP4bY58MDuAZiaJkVSUh50TLPWyVQoLHKBhLqCrqX7um1d6Tseax+lk236Q0HMFpvZrt8GpNiBhsFp7x96rAd7WMpbQzW2QQosAKkuq+bKpiK0uxUaLtQVYgBuaBuAD9ogwLrIC2wlB3LWtN+emOWX+dz1rgEYHRScxJoku8g0TDm6f7bNu0ychSBuRJ85+M5H7ZAPfmXmF5WykEuaf40gZHaOtRnMxppgrSwTgMuBo5yqHOVYN9FQ8DKvcOSY0CR5QR4EurNostzZR4z4zlxb1VfIBK6/5rBhbi8IFJ2RpKd85p9kDtCRedJSRD+AEPDAqWMdJCjj7bac4/89ZUpZt81v7uD9qOxrSCAw6BhttnXpY8sfhX0pRUujYsWN79ffVaDF0D40cgKZ/qcGWCgrdpG2hi4GchETL7Cv13lFKRw6gQdzopDHneOconEl3+yyVTnugMne22ic0gDFtz89gZh9vKg1P1A8/rmoAACAASURBVGPGGN+h8fxRSrl9y66PUruirjsHKCIa1YxylkjFYY8Z2y8aDQ85kQq+FE1aZkkHVFS4dRaMA7aA79pCZBFWAjSOGkA3zSsCJgxU+DHzJpcX3tw1fXYOUExi/mB9pVjIOO50pzt1Fh2LzTzkZKlUbccBhg5zKWr7qkyC9gK+a/kzuHHQM8YccrIO1TQCP2be5PKiMq9K+1VpuheAitZh3Cktj6yz5klHIekoDG9FRoSVCTOzKJ0UXKUj5WfDMoEa2Tjk2j3+SnmvmtTJ+/b+qbkqRFKRHOoxNcnbXM880LYmwi+p6rFr/Cr0mFqHTTxvK08umMybaMUgSetbhTbr1GsvAMWE5jyZCalz3CFHBaA6ys4A1FGWQyZ/hh1WY9+SnDraYmBzRNZpRpuSNtwDDGDrMrr3qW615VWW19kHduogIE91s8PBfe5znz6u2nyZO8SO8gw269Z7HSaf8u5znvOcfv5f0t+nShjnDhagCHIUAKqDqIEWnes0YDLaGmCc+eRYSqmLljSxKpIsGHSISd0HCtJYfGx2r8hXntR/bqZNJG4KA6T6ZkakRltgIORRfRbVFx20i93ASiErTPgmwwCl3q4B1eJ70VrqP5TnJtq1iTwaQG9Q446iBMVcmNcibn63mk8xGB7ISCSMy/JKM8DQZZInF4GwNht9cahj7sjHtXubDMczj7V3UYAplyWgw9YftADuKlI9J/UFNHYEK4bOPffcfmDNdY78nN3nu7UjosB/BsI5pwBobo/rg5KgL37xi7tzzjmn71hS02H+aUc9EmeOicSITaUAL0u5zJD5WseSfiykYn7ttWSOZ+E5kAgxYznlg2S4sRqjlGp+A4040U1JH6ATqQQ4JSMqTz2o7eKhRXCpM61BELntQezKx4Ci30qQ5/bHtTIYoQxq2msR/K5VxbE8ZWCyPhk/Zt60Dec+VPWdz0ExmQ4StmWXhHxYyznHEVadzbHsX2QLjszUwYTLzqHuWXQuXM0hAoZaCMRD75PSgLKO9bZkTuDQB7e//e1PGhByPaLOZ599dj/XpqramZ0RZRUaAL9B2KL7db6tWrZnk78tHve5wcyXrg1opgabGiTH1nnnAFUxjcQk5jn5cG/XBFhGKHUSuyukrLapFIbGrJh5mTTxHMlrFQ0md+3eELO7z5jDsrhJ2qAxKe6bLWPq7Bn1Nd8e+3ypCQTwvU8DYUkGBu2aU0KbzJNxvUn6T2nvXgA6pYL7fFZnUe/s3IBBg8nyOUBkKw0rI8S1Ys5FwMvv1669Kw/MbO4WropN0gLDsUr6xKNy1qlztNWAw0DmuyUXXXTRScEWua1WKImP3fU2lpuk4S7yagAdoDIGJjmBU9gdJswM5hpTYzQ7ztu/iAFJpI5tNixlCglZvjf0O4BJrWXN9XlEESzbkjKMPaywVvgw2rHiLpOQZd3RQDvNWamuaEZ9NmcmJbmfhmhHIxEAwHq9rTYOdO+Rub03gJJOtWMOlFMvDGavG+AsmTKAhCn5dBlPvCNhNAH8wsUwfuy1FBJqKC//M9pYp2r9I2Caj0e+26ILFc5OFtorwMDmXZb0Zak6VGfPWKp21VVXnVRf+QJqfF9T+2r5AKmBSIjdtts6lobqUTvGvr/J53YO0Gg4RmZNzIdO3XcnqZe50YMf/OCTrJwYLMDJcMLhXzPeaIN2MSqwSmNAcbQhUUOihPRhpRXwwBBBEgvHU49d0UI5ytMWoYZcQupsYzYGrABXtJ2EZywSmGC7FBbesr6RJxpY5iWII9qdgSpvILVP8i4GpGXg0Y7Mk3Fdtm9ZPpv6fy8A5V6wreX973//Ew5Myrq3r4SpjPpUsyHJSWqwflINdd4yEOlYgOOisX4xmF4wvHBHTn7hcbHn777ansvNdb7yyiv79bXq6/AxIht78d2OCTxAH8DnA6VxBNgzSAEXSOWLDstomuu66WufFWStz7xJk+LLNoXZdd12DlCdLxbXCEyi5EPUCcPFPhLCW61gPolZSkYK6WEBsC0rx4Az2iFv7faO74kYoLhtSB73/Lfrjo+6DZ1znUk2q2j4AdWZpjOlzvICZj5Gi8aHJKlNyoVPTqHtUP1Xvc9izsqe+dK1qYdY3F33014AWovFNaJyDO8rFleUj+BuuzHUGEgniS2ND7eu01HeXeX9eA84HICi3piflCoP9/0fgApQrVP2qoyvTHURqRPz8ixFXRsUDYD7NBpFJFGuG344qEiiuQEU45JqlhlRYXPnBOOI9BEBta/RXR2pyiQwt4u5HzXbChpS32c0fGiIYUoInnBEGzej9Wtf+9p+6sAQY04IyKuAdFVwxnvKNGgIW2SIKgdCv9FfQMQ+ggLUswG0EourYxz7kKCYxnwq9gAqmQbDYKYxX34ORlz3rE4AGSqxJWzAyChjPkTKoBVjjSPUMXWNI+7FM8INbbpm93ZzPZqK+T4ghHFuF6BVBqu3gcSUpjaVUGd7JJG4u6hT7q8AaOYD1wclQW2pz9DC75YPTv5dz0GN6BbpDn1hi5+TdGLd3AWzKIOhxHI1u+1jZDvui48FPgztwDRTjnjPWT6xJzBJKxiDAYRk3UXSRoOioHz1qGksQippCQaqXSYDsTjczJeuhVuyyO+6Pjufg+oczmw7yF944YUnHD6QSlrsMhnNqVxG7TxqYhpSyAqTbTMKmuh46ivJ9uxnP7tfXmYVizoEIEtGXue3tsqXG0XoHcn8/Oc/v/eHMgSpk2NbSXsZykh1A0ZuS9TLlGLXgLj++ut7FbvkzSuuuKKfG2+TJjVa7xygUYlgSh0Qx7aZIsrOZ/M6LgASqgQoV4vVHNveiwYgWEl9wp5mwZ2RpWNm3k1f53KEM1LlDBACJdBmW0lfG5BEamlvbheAGpzYBXYN0BpfqoP7+0h7A+g+GlsrE/GZz83rSoBiGuZ1En/TjKLDzbEAwT6/lt/FcrNaPTIDu/YMRnbEvLN2jmem5EnFAxwSlUXVXHjTCT2tGuEXLtumHZbnmX7sCxibbu+q+R08QDGAkZxD3prFklnMQanApNymkjL5Fn16wiqZWMI2FkRWlYg+sr7S8jVSz8LwCy64oD/ucY979Lun3+Uud+klMhCY35tLle2r/Q7wWxpmm07xxebFm0zm9KYPtYAQIY+sz5seFDdZ/13ldfAARWiMIGzv1re+dS+RMtMazTH8JvyzgKksKzjEr/KrAs0QMAMo5scsntRfC4eBRmicb6Iy8MRG3UDvEAts3szgZk5FEiqPpdp3WJRrUNA2ZQyVT/oCy13vetfe8hurataVat4XrGJBgDKC3tFe89Ic37wrMMyxnAbQG3oF8/nkfSlFMc0ZZ5zR+8eoXOskqqJ5leVYFmpn5gwmzWcGIoET973vffuQQLsZsLauKlkAg2uF5GaZpsaKEV60YFx91FM9rFbZRBAB1w4akJ55cHBNzWcT2IZavU7f7evdnQMUk+hkuycwRuTjmmuu6VdW7IMYGMIn0qmNmWmCQW0CturSL21mcCHNWAf5MMsylOMeMDCaCIUk8azmj608AVNe6yTvy8f8lyQHhgc96EG99mBwWlQvvlR+VHRAr1XqomwbiFmHWpal7XaZsGBg1UFoHdp4V1w0P3HmS75RUWamQqu0eZ067RygCG+7E8YXAQD5oGKK99xHQniMYeE1yZUlmWtzPsy8imXTOy996Uv7SKVyS81cDoYl0aiwfLMkzbaT/qA9MNgIEre955BkVz/+YkvS+ARXkXLaZMMy8c657a6p+8CxT+OQ6QBtIfOla9FNBqaDAGiE+unwODDFPiKJMgBE1JgbAUnJpEBrhYP53tikMzn/qaZ2RqjtRYsxlYXx7SlrTSbARHTP2LLWeU49SVTL7DjqfZ6Py6WkgbrqL6opg5Q1pFPrKZbZru3mvxmgyvJ5yH3vsEBacvGoT+bNg9+4WmftG6CYnDpJ5WOYyQyks8wbxb6OlRyYngWUy6Cc20be8rXCw/rLVaXSOuAs3yXtLTYnxWkN6hd1zWfSzoBiTjtWHTVYaWe5y4Iy0Eco46atxWX7lv2OUL/cVvU7qFC/kKCZCK7nAFDqFSnm+5tl/UhRC7mXrQskkTAtK6oQMWptjdHlZ/vK5z3vef2OAqTRHJJ6GKjEw5qT11R+7SFJheuNWcOJHoIxSOdSMsvLOlMD1L5p0ACaguV1TBw6jYN8E+6MdZgcuLgofNxJ3TJI/bbIGqMtkhryIFl8BoJVMufhWj4kNGY1N9231Biil61QbKgtFrgWCqkdYmlFWy1TddHLHN6mYiU99L0oKvNTtNtnOngVVwcIAj927FhvOWQYcvCJkSZ2HthnUj9+RBbUkpEwpC93LwMoRrNBc6nKRX7cGnyrtjihUu6bKYforV4GD0Y9fVNzxwAXHy2f7KJBy38WbDNCBR3iLA8unH1YScu2awdpHnwZvGm3D/aHXffVzq24Gii2lauFSTsfDATr+hpLgk/9jZGs6heFEwwUZwAlWal/Qx1lfuqzCGeeeWZVlWMcITnNTXe1emQqDcrn1ZMLytfPqLvokGkCYCyfiz4Yha7mttbc5vfl4zdQGJwXgbys1zZ+C5AAxMyXrsdu8bLpOu0coBqAuR06ozyGGH/TDR/KDzMyVrCqBhMGE4mqMV8ccgNoi0XR559//kmMLA/gZMEkkRiQ9t3WIRqU99VTm/muAbG0wAIY3y0r95B/VB5o6/MXLMQZpK4ZnViQDd77TOpZ8qTf++qrvQB0nx2wrGyuA1/4KpmQlBDyZneCoYQBn/70p/cWycyAAXAGF362fWsJQ/Vfdl/7xCWL6y3bhz5sCKzcGHoovfzlL+/dKZ7PA6DffOM2bWvpOAUaQI/Toh8lSQnulJIBzb8sbhbrWktGWMzlwzsl88lL7KtPLRwlyVm2M6QgSUmbyDRyzZBkrrpoXu0/m1V7PwPU+wxqdo5YBPCyTqf6770BtKZKuOfYVYryMATgsLxinsx4WfqZh9WYRz5UO+pbKXm9z8cnxE/+Rz1pK/uBUMTSV6ytXGUsoUPuEvQTJeX9DFDXBjaRXKzH+sOz0Ue7opvylFse7u8j7RygGor4LHbma/mwBGlsEMC6xFIPKhtmYAQQe8lnWc49g3EEdw/5P3WmMMH4LktmPGBnocaUnjsVknZQ1S3FKwczmoYlcOhaY2r3WMkFOZSDmbwAXFgd9w5601iG5vzboCWeUL/Ml65Z5pe5krZRn70AVLiX4HOjaD5YTrfhZsEUDgTmNgAmMb9AafkVRmOdNIKXDOc34PHhDQFMvnbSq1k4+Ql9JOgoq7Yl46GlgfSe97xn73rJNEND+9vGF9nKd/32vk28rRLK7xrY/JYHWpou2AbHYMCyCiiMSPoh+rSW/zr3zKGp6ZkvLc/zuciDcLMgrnhXDn8dkY9tBCroSIutqWX8l3YvEEca6yGVjylKRgkpaJTHiEMBFPI3ynOrlHlgMms4bXTtuVMp6Ucqf7kzHxqw6NJGFgVgMBahTSlFA6TyCd6gSgtYN/e14kmEFreH+eymUw5UiPKdWyzuhkP9AjiMDs94xjP6OSBJqLMDlAHCoTMmsepC0EHN/K8MjCo0EBjLfAQq+Bo16XmqJW3Xrrvf/e7VtosvHpqzowWVkXQsjU0lDeO3vgBm7hh580f7yJTwwEUDwVS6t1C/FOoXxI/zJmNxAYoKa8Np8yIdHEeUt+iMGYDTYmmStyYBg0ntclBKAmVxq9ipofbuVMaZ4/MGJ1uo1sIZ0e6yyy4bHJy8a15ulY+YXoPmov6I/6IPPS/G2fvqsCnXVQNoAmgQO86bAihAAIZ5BODIPzq4dva/DiddGYksN+PztG6R3xMz1UDmPtXZQubMYPKztIw/dZcGjl2DGE0MhL4tmtuPxgZF4DHfr9HOPXN3i7eF0Zn32QMJ2KPPxvQbzYWFfFNrNUPFVXYc2mY1i83l9Pku086NRBpofaQlWFTOODC5za3slbpu0vEc6vZ7rQEy30N8I7gIGY5yH9+lsgqYl0+NuaJ+2uLTeuVqFXlqj8XHi96PfI7yGY1snwIoGVBogKb2tl1EA/8xOOl3hiWLxu2qIGZ3aIle7j/X4qM3tclYBPQHXzrrS0ZNQSyL2rKNftw5QDVQzCbGtpFVPswVmbjXTZhGUADrbNmZmMgIDZQ+Pissj++NpZAF2bwK8MZ0hOcuvvjiG1XoKAuzYppFsanrtnEu76MBcJlLAmXQAJ3R34bPY2jpGf3GzWHfJpLMutxzzz23n3MaBOWfB4Eoy2cN9Z/3103mtDZky3zpWhD9rr4ukNuwc4Dmwrd1vQigVCiGDeqr/X6YzjHZKsnIbz/dzJiYBjNRb08l18oQfQCLGh9W+QCNM4OO7VFWBQ76sp7TRCwg54arzXc3CdChdu7r/kEB1Oh71lln9Za/KZKy1jkYU2gf9acc1c2lWX5XZcxaeXO9F5LPZmI1Q5mpDK3Ic6ukyJ+lVhgm1bekdwPoKpTd4ztDElTHUmuNzOsmjMOXB4xZargGWitWVpXM69Ztl++jg3Zed911JwEULfg6h6zgU+tJ9dV/DaBTKTez53cBUEwp6MHSqRKgpPRQWODMSLWR6gCp+XstNvdWt7rV0hUuYyvRADqWUht4TqfWjqGsa8/GvfKdbQNUucrg5ytXZZiPWoVPhT6kZKFz7VOCBisfEkavddMqAA0eqZ2H6lN71r19pJ3PQTVUqJbd3ZjU82GbEZKnTEK6nvnMZ/YW0/y8GFf7uZaq5C4ASk22YRaDUJagpAgfalmnsk2n2m9zRJ+2L9VP6v6Tn/zkvQAUH9j4jDU4843f3Ck10NkNw8KI/Lxr+exDK9o5QDGuCJKzzz67t8ixysXBbwm8ZTI6c0ZzjcSzznxUPtdQjs67AijfGEtlABRz8t25vw+A5pG/pOG2fwtYEBhSAlSsroUEZR+tUp8pEhQtDKL2fhJyGXxD4xHlZHCv9RGLMfdQPO/sHR+n4oKpvbNKW8a+sxeAxrabOjMfQ5FE4jYRKEeYeE/Ujw8Bl0afXQFU0H12pqsTwIox3VVHYkRlObQ7Dr8DsGOZYZ3nANR2LqXLSZ9yaZV9tEpZqwBU8Ik+ynymj0jRWh9FqF9+3nXbF3dBsHwAtOx8c559AlSQQw2gArlrnb8KU5bvBOjkj+mt6rB1pyAPC8Yf/ehH99MHcch2DbTSBmgDsGV+m/ptGkK1L/uI9Kr10SrlTgUoO0AAtNRyhBfW+igAGs87N4CedlqvJi6ToGXnzxWg25SgmMpiaHNvi56t7KBGAgKLss8WOFPjrLcUPinayRpcUTo1plwFLOU7QwC1hLA2DSnfH/O7AXQMldZ8BoOU60Gprg5rNGvrLklQcwkhdJ4DVAemZEklIXLyuxbqZyTchB805jc1FZdEPXbs2EaBEGosQwza2bHA4GTdZTlo5ZHftf+pdGhlu09zfPSR5yYTFVe9yvqYzzEIln20StlTAUrD0GYLF9TLgX/89oWA2mAlHtgAl/nMdawH3TTdltFh53NQDfRJeWqP71PGwQhkQa49Z8tkdLYC3zOOeEcYmZjektC7Aqj6lh9E2rQVN8BpVQi1jKHMQIXZDDglIGu/Ped5dcN8ABORVCWtV/1t8PC5jLJO+7Ti4guxwIx2wTP4x29TgBrYrK656KKLTuAz78jHyqXaO6vSbMx7ewGoRgKRES4fQyP7oud1Qkm0XQBUGQaZmh9UoLz/103RbkEAPr9gJC8BUAPkonvetxSMRkJVLge3Vets1wpSvayfnRC4yDZBjykSVDvQT/uUXfJZjW+8435+Nq6Hnl+VXmPf2zlAo2KIVzvi//Jcezbulc/qkG2ruMqwpI1EKgFhXeM68afRHkzhk4B2XR8DTuAYI1k9RxW3H9Mm6qkf7PFEspe02HckUfBI7Rx0Ls+1Z93bR9obQLfZ2DEAXZfgwONT8owxJVNS6xZt9zGm7epn50N7+9TAGWA0v1QHZQoat4uDgAE+Ym4o0rIGWu9Tl7kb+JlXpYf30MLKIPUsaeFL2iTfqvkHrbw/VYLGu0f5fHAAxcTxnY11Og7DWO9pB7uSKVmj113NYo7IbUIqAVNZBgORwA6qqk8m+K6NdwxOrLWMQU996lO7c845p7fy1sADuOq/TigeOiiT478sQ72tZqFKr5OUwQ5hfqj/Snq01SzrUHcP7y6SoNwQQreM+LYzsZm0zo85BmYYm8xP7HmL0TOARJ/Y23XV7U7UhbQA9JIZ/Za/LULscMfPGXXP9Q7gUGF92s/uBoxEOT/XBgBRXatuKakcA0K5LlbepDtD3hSaetahTQxPVPxXv/rV3dVXX31jNFluA7o3gOaePwLXAOqblUM7KuhgzMrlcskll/SfxbM1JrBitrFJOQ94wAMGd1RYxeqHOUlCvtTanE7sL5O/mNEaMHPdg9nVk3vGBmrlYILBwxViwJma1IERy6CR80ZjavZTnvKUSQDlrqENCLJ41rOe1VtcBdzLuwRmDIoNoFN7bc/PY0jbVPjGSnRiedbZOp1ahrnsCMCNYaTGHEZuzIIBh5L/qJdAk5lHvtTPoYDsofzclyfV2fslwxtUxLua32rj2ASonqc18DXnuqKLeSpVlOrv2SkpaF2q4upuAKSWLspTe1mAbfqlXT4+ZSdFH/qVp/4p61v2pdVDyz7aNKVNc3r2lJyD6nQbk9XUz7Jz/cYAcXCb2KXOShVOa9JBfrXkPtWQBCrBJB9f2J66HaQ8rTMtQa9+VF4+zKH61OqY75GQ6lQyvbqTQnYsWASmnFdcG8So27n9AXqhf29+85sH81Qfi7mtFOGb5Ec1WERfONf6K9/TFlvYbMIQFW2a0/mUBCgmE33EyMLML5igZMrcyfkaU2A2zzOgMH74dksNFMqhjopW8XzORx5jvsZdMoNyMGswauRJmhg41CWDyPyZQcgKIfvDxuE3SZzVVnljZNbdDChtJlmtOsl5l3Urf8vPh4gNRiWYRC7ZjG1I0nvXh5LtKcx/Gv1T5hPtz+foHy4uVmIrUAwUU+petmWuv09JgAaxGUh8cNd3NYzmnOa1eV3u/PKa+8IHfTFAmTAERhPNRP0s38X0j33sY3sQl+8O/QaomuSnhpuX+j8zIrX08ssv7xeJm2PGIQ/qNxdKJO8ZUFh2M0DVm1+UYUt7xiR50Q7MwWttJw2pt0P5GUCF2wFnSbeh38BrsJX3eeed1weK2NZTXqdqOqUBGgDSgSyBVirYHc7SIZtPcVXEyD3EFABNopkj1ZIyhOHxPZZMTwpagjVF/eL7rH2flK+TKkgiKTOS/XvDoISBHeoBNKy3rLyRvOd9EVClxPceTYDldEwCPIa1m9/85ie0Wz7AbqUPuue65nz1xx3veMeT6hH9EG1RT+q+zcS5lCxdM+jSGtRVPYbKyOUd1etTGqC1TiEJxQJzUQi0txxpkWTFKMDsc3hD0gDTP/KRjzwJ7N6N1RxjrMMYjVpasz67V6sDgJJiGXDKNbDYyQDgI8lfGxhi8vMBCjvB26lwDMOjo3KBUXmRh2t1tfxtUT58tLWBSD7yMLiRlKKdTFUYuCyYHkPHaO+pcD44gAaTAhXp4uNKrK3URGC1dCuYLTOLD/sOfcYA0wt1w3ClFAUE8yQ7AA4BPBhJ3cLolOvgGtPb8b7MYypAtdvGzDWA2neWyrwoqaM8XvCCF5xkaVZPWgmtQb1qAHXPBtAWGni2BDf6C06/8sor+yV1PrdAUiqzlt+iup4K/x0cQGudpuOpY3yLpEJmmgCK7SO5X0qAyM/75nb2VKoxvnkWqzC/6LJk3jwUnUQqYdScAqAkpnrHERK0puJSE2v1pPrnOWsuJ6611SBiTg9gQZ84szTzX5b1jPfRz9zUoBXvxNngxspsySHjV0td1wB6AxcEyEhThqESpOJWhe8NGSQwntFeoHwpRf2mRlPrqGjKGkqAzvJc5hFum5qRyJzSHJgqHoffllRlwEUbqbJl/sBmrj0ELPX1PuCYx7MEZxq5Nu9lgFrkWiENaSuAHMB09j4a84WWbRyi1SHcbwAtepnxgTGilDAYWuA6EA4lzGvdaukiwYDyE1LH6liTwpEngPhgMGbPACARBSkIoMgAB3iuFzsmvOIVr7jx8FtkFGaPpFyqeM3NwghlHp3zjvfi7H1z95pBDH2ArqaGx/vOXCsGCO3JAPX+ne9851FaRs7vVL9uAC162AhPUorZzQwELBjQ3CszfX4dAzPyCMUrJZS8WCMtBvaVrKEkD9baWqACt425mWcCSM4O98oj/lOWa/UeClSwdQpwea6W3DdfF5RQU20NSmKchyy33qcdqL/BIA8+rr3PnYX+LR2nQAPocVr0V5icQccC6QxQ10BnedbQ/qgBAnOsmoUyQP7EJz5xcImX8klJ89AS5KSOkETS0XNDYCqa1D9HMrOElqqpdpHWiyy4yrEihWGnFpSgniKRSume6yEPc0taSNkudBGEQXtZpGLn/A7lugG06GmMxMroO6E1RgIQ4WkAUkveJ0VIQU71LCkC5IIJbPpVY0bvkzQh6cpBwgoRcbOLPiyc6yU/5VB/a6qp/FmIfeNzSDNwn0+Vz7PWHnUaak/UBb34L9WhbBM6C2HkElLflo5ToAH0OC36KwzC1SBwvmQkzMmA85rXvGYQoDLBjKyrD3zgA3uQl0xNnePfI1FqDOl9wQ01aSUvvkdWUN+sNAf1vENejvgNmObFthw588wz+3lfrotrc+Pb3va2fcxxrS7usW4LKijnjfG+cEjl1N4P8qqT+at6lHQFUHUUNL8oj8jrkM4NoEVvY2pLswCxZCQMSc0b8vFFVpgMQ4qWsdKiJomBj1W3xtjeJ7WGFmyrB7CYE9sM6yUveUkvfUjeOBiIrr322n7OqCx18F5uk3uWhA0t2FYPAQlC8oQa5vddB7ipv8uA5f9XvepVvSqd6+BaXr6qyTghlgAAEQ9JREFUzX2Dbi0dp0AD6HFa9FdcBNwWNWkhODuMRMsYUmYMHpaveS8zdzClbSpjXWdRjZ5RgUPwgLqU7weTAxmJDGh8tYw4Fmfn3f/i2XyWH+DaZHvI9WOwYjiybCy/61q5jD3C/Ty3LKGX2F175NYMYNrgK9kGrJaOU6AB9Dgteingu541qUdakFaLLLApq/4SUwpOIIFqIGMNtYJEcEItkSbetyoGA9dA6p4DYMoj/ivB5b75sdjbRfM+moLNsRmRyjzUx7zVIDJmsIr2WQYYm6DlPNXd5+5J/paOU6AB9AZaYDKq2pBaafmUZU2kzZQkXwYaPkwgL5lSELhBYUgKuf+GN7yhnwOWuxbkvMZcB5BJdN+6GQpd1D7lWpd6i1vcogd+zh+YSGt7GE8Bp3wFTgh0IL1znupmwLLwmpo+Nd8pfXKUnm0AvaG3MKRQvtvd7nYnSSrMY1EwN8AqcyThdgLXuTgyU7rG7IvifDGquvGvUke5X2oSrcy39hsAWGItEhjyVyKHMm07QnqqX84LLQxWXDarqKPoZzdEA1bO17WyLCN7y1veshKdjxLwxta1AfQGSlH1nvSkJ/UW0sw4GJLEEWA+VZ2LTsCU3CJAXqq68jdnJGWH3BzykYc6kuLC6YQjUlMxtTxynePaff+TViShxQA+tKScRRLKXNFuEsIGI6840wJsBMbSvcpgpVwDltjk0g2lvuanUceg3yGfG0BvkBiWoAlOKCUGhhQYziK7TgIK61HtNVQCikS0sHtoLhrlhjQ1LxV1YzcC++DWgg+Uwb9JUgHUdddd16uXQLUInMqyzYuIp5qhjAQ3j1w0mER9h87Kt3SO8SnTOwYUoY5cLi21YPmeWc2LrJHkcC/BYyUKY8hQkPwUJmJgojYysIREcsakgLbMvxplBVAxseDyu93tbicweuQp2IFaHr7SZcCUP3VaQAHpmcEjTwOJPMesyom6Dp2psXZwMK/OtEB/En9qtNRQOUf9/sFLUBKFEUagdglOjGNtYzDLup1NdeSQJ0UzUwbziwGe4qwHOHNTjF4aoEg/A8sYH2W0S36A87CHPeyk/NCGmuzjy9qxbkJ3Ut2i7JIW2sJiPuT+Wbfso/T+wQMUE4jI4TcsASpix8ZXU5h8UedjShItvhaeGZO04vPk2vDc2ASgVNgaQAWmm7eOTco1GA3FITNSLYq3HVuO55TFiswoVKrSaEFzWbSj4pSyjvKzBw9Q6q242dJ4AzzUL9JkkTtiaudzIQBOuT+twQFTWo42RUJtEqCkN2MYK20ePNTN1i1UX/XfRCKtLZNjuCpVfuVRpxmLpgxWm6jX3PI4eICSoKKDyiVQwaBWaTDIkKKbSlbLiG3NczxMSQoKapgi9TYJUICxaXQpjdXTbgss0ZtIwCkgwYKEcosZdFceA5e1qw2gm6D4Ec4DA1DbzONq/kXMYikUq+Mqfr8aaVhrrZ3kUoiBwBlIrfYAOkw8Jm0SoKyz5oTqkeulnlPV5UV1Z3DjFzanLctSLn+txeM0ibF0WFTeUf7v4CUoBqC28UPyL5bSAwMBLiOSdZ5T1M8hxmAptR2J7VEyEFxT98yJl/kqI+9NABQN+HjteVSzZLMwC8hX73WT+GT79XKxoHUGqGv3rPRhKT506YnWBw/QYDjzLxtQU2kz0wSAONXjo0Xr+ACVBxC2kLRIOvKPM4lt+dbYoIhNAZQWwQhUtt1v2oWVJutIM++aTrDcWt5GSkab46zt/uNz3sRgEH17lM8NoDf0HgbiYuCaYBDBLME4zhiVqmcuZtnUOsYSZVGXL7744pOiaUKlNg8dI0E2AVDl2CvIbvQZoK5JVBFWYweMITB432oVoZTAmctBX+22C4XVM021PU7FBtDjtOglhBhU25pwu2SAxjVJatWFyKNlaiggOjxXYzrW43KXAozLUW/B9q4ASrLZzVC5GTiu7VVE5c5JmwBO/aKN+f987X/5m8MPSU7lMNKVO+HnfA71ugG06Hlgon5amF3umh6SlFQxJ6WK1SQppsS85lsC8B/ykIf0q2So0TmZ92LaLK0xK5ePyKYxat4mJCijlWVvNX+kTzgYLCJpG+l+v/vdrzfkCPJAs9pg4lltptbaKqYmObXXwGDLE7va1/KJsg/x3ABa6XXAEHZn+83SRxcgBV7rRq3MAFLMGMAkMSxkZqn1nUv+TV+g5uP0TCR7HwlayNZjDMtQYoDA+MvSJgAaK1dKAxnAWhqWY4QBSCC9YH1ST6A/XzEXDbr5P+gAyFxUaDBERxqJ1TyWrjVwntzbDaAn06S/QyU1LzPnrAUxhKQTtocJgdQ7tqZkbOFCIBkwPQkp6IHxh1QNkHoHc5fL0ORN4tSkc1ndTQCUf5MrSbmhyjurl21Zoh7qDXSMWwCnXdpni1Kxuw996EP7sEkDC2lIKp9xxhn9M2XefsvDdIIBaoy2ULb9EH43gC7oZYxGRbWaBTOVTIaJManlaJiTtZPjvVxGFVLXIuccHYMpxeYCcwaGcgC6VIlrVV0XoEBH1Qaysn23vOUt+7ljgCekZy2WGB0Y0bSF9KcCG6Dcz20LWlB3fZXNAoImOWs9+//3GkCHadP/A6R237M9yNAcKqRBSJWS0YNBMbDomfgcA8bkX6zt+UNq+zhuSNuhaq4LUFKfe6kGJMYw82z1VA8quS0/0SHalM/aLR90oLbX6OCe6QH1v0nOoV49fr8B9DgtBq8wp8BtDnSSDZPVmC8za772LFWQZLVKIz4fIV/zP5+EyM+79jxDUYBjqHLrAFT5onp8rqIGUFIwtjXxbBi1AMzzU2ngeVJVOOOynRGH2nto9xtAR/Y4oNhR3geGGH1qDF2CLIDJZUO9FT1ECmH2SCR07VMRAGp3Qeplfj7ei/O6ALUQgJW51h5qe1azgwZPeMITesMPjaD2XkmHGHD4l7WpWWuj95afG0CX0+jGJwBF0DwmMw+rGY8wI6al4lkVwjEvhM52njGXuzHDG6KK7F7AdZMZG0AFrgPwNgFKkl1wwQUnSUNqrA3UyrL91g6heHaBYKE1f1XfmkR1T142R7vqqqsmLQTIdDrU6wbQiT2PQVk1uRp8wiHPxzAj0FpKRm2losYGWN4rmV3R7rHuMjRlBgdymzkrq/ZeVHsdCUoivvGNb+zrmst2rQ0CKWpJfbzrsCoFULlbWH2zRJUPlZbP2G59ywabWlmHfq8BdAUOwKCkSFh4+QTt8k6qWkb2tKc9rVfjlqmnipYXJz3rbwYJRhcXvG2ACsoArly2a26T5z73uUupE7QgiR/zmMf0e/jaRJs6Kw+WbYEONe1haebtgRYsvyoPhBQxh/PpBDumW6WxTGKW5ckntkHJIAFQTM7KSlINpXUlKPDUwg2B1taaY5I2BFDVh0r/+Mc/vnfRxJzb/y1Np0CToNNpdsIbGA+ASAjnqYzoeVtp+gJ3Vg9dMy5tG6BiisvF6soWOE8tnZqCHmixCj2mlneqP98AuucextC2EjnrrLNOAijDkbBBjD6U1pGgBhUrc5RTSm/GLT7alvZLgb0BFGPWjv2SY/elo4ElVhZvlxKUw19QQ8xla/TiRzXPY0XNVmDGKkvnsopZvm9+e/31158UVKAe5tL+O7RU0ij/3gct9gJQTMfxL0InHwwWJMYhJQzwwhe+sHdXZICSaFw1oonMEzOd8rVgfTvWlwD1m3WYISs/n6+pt3yzpbtIPXwlTWDCoSVuNIEkmU6uLWjfB2/uHKAY0koRzGMpUz4EASDEISX08D1S6y5LgAKZYH2fjc90ytfihGt7+8jLN04FQeTn87UtL2u76R8yQH3ISrRXppMBUOB/RFXtkj93DlDzKZsfWz2RVTLXXBVGq0NKQwAtabPL34cMUJ/nKBfr02YMlKt+PGsdfm4AXYd6G3i3AXQDRNxgFg2gTYKewE4AaiG3oISs4u5SYpZlUa2t+Vz3g1EnNPSI/GgAbQA9gVUBlKtEOFwOGyxBs8vfVuxccsklfTTUCZU9gB8HBVDM5wintbN4TA5wc1ASIx8iZ1gs8/OuI59TlT+4OxiK7nCHO/QgzT7JDEz3M71WvV6Uv/mXZXV2k9BXp2oq+TJ4jlVb8H9JW3NQ9pEISInnt82bW5uDaoitNFggfX8jH7YEEUhuG8Z8iKjxeb78rGvfi7RpNGKcikm77JJncPJtFIHzGZiuBaLbbf2aa67prr322oWHZ4YO8bW2GcGAZRkWjusDAfQimE5VehsQhTFahF/yGtqgb+ZL17YePXbs2AnPex9/521sNs2fWwOo0ZfJ2iLlWGHPr0eNM7/xFS2EyoeVEbbZ8Fw+MKdV/0atUzkBhEHNSpISPPb2IWXtp8sfB0BTD+95/+qrrz7Jb6o8n1pcd4PqufcPGqOBRep4MfOZ6wsvvLDfJC3zJToDtCVzJS9bE+uL4dviza0C1Lc+NDqrVEZun9l75StfeUJfIpzAc8aSkjktWTKqbYsIJ1Rkjz/QgBpV+6CQL1sLvUMDz62SvOd90rUMbAiAmg+vmv8qddr1O9oGoL41U6MBHyjAZRq4tq9v6avGywB7ZAFqg6waQBlESoDqKACtfdC1AfS0LgN0VabGaIsA6ts0hwTQmpofAM00bgC9gRoNoOMkaGaeKdcNoP+//jYk6MED1BzUBlNiPakTDhLVHFSMKUNSHOasb3rTm3o9P56NM6PJocxBh1Rcc9AXvehF/ZwdrYJuU87eM7diCKox5yFJUHNQvBg8FmdzUAsMMo1dW9Bg+pXfcY2/bby2renX1uagKmy3cdtM2p08H3YSt/pefGM+3LORc37W9WWXXdZ/C4UEOJWT9g0BlPvDqhXbi2SaTb32fm0PInPQQwAo/gG4l73sZVVee8QjHtFdfvnlJ9HYgvySl/GqeyTytnhzawBVYQeg5lHeCM4Pauf0GLWcYy8fVsz8fFxviwBzArw2DgE0fKCZZqtek57ZcBdGuUMBqD5H6+CtfOYHtWtj1vpchx80S1bv4e9t8ubWABqMr/L50KgIlsck+RAszxeYn4/ryO9UPmvrEECBKNNq3esAZT4fEkADpMFfcRZJFLvsB40NaDlYPp6N8zZ5cusALStvxAmAZuZwfYirWTJ9dLivhZ1++uknuZpKWm36N2ZkXd/HkqpMg31fH1SoX43YDaA1qhy/x0Bhw66aEWfToMz58edxMeSNqo/X6nCuGkDf+tY+IuY2t7lNdQ5qzd0hJwPYFVdc0e9RBDSrzjPHvmd+JTje5xGFAZLih5zsd1ybgwoJtNPCrumzcxVXA+2ocOmll/ZbdVitHoed1O2vesgJfVgFbcVJotn1YJuHnQPERouUEdJ26Il1V8xt8GSc7bK/D/V/LwBlKBIXKkC8PEiQQ09Aig4AI4xsmwcfHsu68nYtHebYz6y0JU/6jV/3wZs7B+gcO6XVqVFgrhRoAJ1rz7R6NQp0Xfv0Q+OCRoE5U6BJ0Dn3TqvbwVOgAfTgWaARYM4UaACdc++0uh08BRpAD54FGgHmTIEG0Dn3TqvbwVOgAfTgWaARYM4UaACdc++0uh08BRpAD54FGgHmTIEG0Dn3TqvbwVOgAfTgWaARYM4UaACdc++0uh08BRpAD54FGgHmTIEG0Dn3TqvbwVOgAfTgWaARYM4UaACdc++0uh08BRpAD54FGgHmTIEG0Dn3TqvbwVOgAfTgWaARYM4UaACdc++0uh08BRpAD54FGgHmTIEG0Dn3TqvbwVOgAfTgWaARYM4UaACdc++0uh08BRpAD54FGgHmTIEG0Dn3TqvbwVOgAfTgWaARYM4UaACdc++0uh08BRpAD54FGgHmTIH/A90o2WhA59rDAAAAAElFTkSuQmCC;" vertex="1" parent="1">
          <mxGeometry x="333" y="244.97" width="42.61" height="45" as="geometry" />
        </mxCell>
        <mxCell id="shZay32Vncn5JO2l-WHq-4" value="Project Ideation and Team Formation" style="text;html=1;strokeColor=none;fillColor=none;align=center;verticalAlign=middle;whiteSpace=wrap;rounded=0;rotation=0;" vertex="1" parent="1">
          <mxGeometry x="192" y="250" width="130" height="30" as="geometry" />
        </mxCell>
        <mxCell id="shZay32Vncn5JO2l-WHq-5" value="" style="shape=curlyBracket;whiteSpace=wrap;html=1;rounded=1;flipH=1;strokeWidth=1;rotation=-90;" vertex="1" parent="1">
          <mxGeometry x="249.5" y="194.5" width="20" height="201" as="geometry" />
        </mxCell>
        <mxCell id="shZay32Vncn5JO2l-WHq-6" value="Day 1" style="verticalLabelPosition=bottom;verticalAlign=top;html=1;shape=mxgraph.basic.rect;fillColor2=none;strokeWidth=1;size=20;indent=5;fillColor=#fff2cc;strokeColor=#d6b656;spacing=-33;" vertex="1" parent="1">
          <mxGeometry x="320" y="320" width="40" height="40" as="geometry" />
        </mxCell>
        <mxCell id="shZay32Vncn5JO2l-WHq-7" value="Days 2-4" style="verticalLabelPosition=bottom;verticalAlign=top;html=1;shape=mxgraph.basic.rect;fillColor2=none;strokeWidth=1;size=20;indent=5;fillColor=#fff2cc;strokeColor=#d6b656;spacing=-33;" vertex="1" parent="1">
          <mxGeometry x="360" y="320" width="120" height="40" as="geometry" />
        </mxCell>
        <mxCell id="shZay32Vncn5JO2l-WHq-8" value="" style="shape=curlyBracket;whiteSpace=wrap;html=1;rounded=1;flipH=1;strokeWidth=1;rotation=-90;" vertex="1" parent="1">
          <mxGeometry x="410" y="235" width="20" height="120" as="geometry" />
        </mxCell>
        <mxCell id="shZay32Vncn5JO2l-WHq-9" value="Project&lt;br&gt;Teamwork" style="text;html=1;strokeColor=none;fillColor=none;align=center;verticalAlign=middle;whiteSpace=wrap;rounded=0;rotation=0;" vertex="1" parent="1">
          <mxGeometry x="346" y="250" width="130" height="30" as="geometry" />
        </mxCell>
        <mxCell id="shZay32Vncn5JO2l-WHq-10" value="Day 5" style="verticalLabelPosition=bottom;verticalAlign=top;html=1;shape=mxgraph.basic.rect;fillColor2=none;strokeWidth=1;size=20;indent=5;fillColor=#fff2cc;strokeColor=#d6b656;spacing=-33;" vertex="1" parent="1">
          <mxGeometry x="480" y="320" width="40" height="40" as="geometry" />
        </mxCell>
        <mxCell id="shZay32Vncn5JO2l-WHq-11" value="" style="shape=curlyBracket;whiteSpace=wrap;html=1;rounded=1;flipH=1;strokeWidth=1;rotation=-90;" vertex="1" parent="1">
          <mxGeometry x="489.5" y="275.5" width="20" height="39" as="geometry" />
        </mxCell>
        <mxCell id="shZay32Vncn5JO2l-WHq-12" value="Sharing&lt;br&gt;Results" style="text;html=1;strokeColor=none;fillColor=none;align=center;verticalAlign=middle;whiteSpace=wrap;rounded=0;rotation=0;" vertex="1" parent="1">
          <mxGeometry x="467.5" y="250" width="90" height="30" as="geometry" />
        </mxCell>
        <mxCell id="shZay32Vncn5JO2l-WHq-13" value="Weeks/months after the event" style="verticalLabelPosition=bottom;verticalAlign=top;html=1;shape=mxgraph.basic.rect;fillColor2=none;strokeWidth=1;size=20;indent=5;spacing=-33;fillColor=#dae8fc;strokeColor=#6c8ebf;" vertex="1" parent="1">
          <mxGeometry x="520" y="320" width="200" height="40" as="geometry" />
        </mxCell>
        <mxCell id="shZay32Vncn5JO2l-WHq-14" value="" style="shape=curlyBracket;whiteSpace=wrap;html=1;rounded=1;flipH=1;strokeWidth=1;rotation=-90;" vertex="1" parent="1">
          <mxGeometry x="610" y="194.5" width="20" height="201" as="geometry" />
        </mxCell>
        <mxCell id="shZay32Vncn5JO2l-WHq-15" value="Community of Practice" style="text;html=1;strokeColor=none;fillColor=none;align=center;verticalAlign=middle;whiteSpace=wrap;rounded=0;rotation=0;" vertex="1" parent="1">
          <mxGeometry x="576" y="252.47" width="90" height="30" as="geometry" />
        </mxCell>
        <mxCell id="shZay32Vncn5JO2l-WHq-16" value="(optional / ideal!)" style="text;html=1;strokeColor=none;fillColor=none;align=center;verticalAlign=middle;whiteSpace=wrap;rounded=0;rotation=0;" vertex="1" parent="1">
          <mxGeometry x="554" y="293" width="130" height="30" as="geometry" />
        </mxCell>
        <mxCell id="shZay32Vncn5JO2l-WHq-17" value="Slack conversations" style="rounded=0;whiteSpace=wrap;html=1;strokeWidth=1;" vertex="1" parent="1">
          <mxGeometry x="160" y="380" width="160" height="20" as="geometry" />
        </mxCell>
        <mxCell id="shZay32Vncn5JO2l-WHq-18" value="In person / virtual hackweek" style="rounded=0;whiteSpace=wrap;html=1;strokeWidth=1;" vertex="1" parent="1">
          <mxGeometry x="320" y="380" width="200" height="20" as="geometry" />
        </mxCell>
        <mxCell id="shZay32Vncn5JO2l-WHq-19" value="" style="endArrow=none;dashed=1;html=1;dashPattern=1 3;strokeWidth=1;rounded=0;endSize=2;startSize=2;jumpSize=5;" edge="1" parent="1">
          <mxGeometry width="50" height="50" relative="1" as="geometry">
            <mxPoint x="320" y="370" as="sourcePoint" />
            <mxPoint x="320" y="310" as="targetPoint" />
          </mxGeometry>
        </mxCell>
        <mxCell id="shZay32Vncn5JO2l-WHq-20" value="" style="endArrow=none;dashed=1;html=1;dashPattern=1 3;strokeWidth=1;rounded=0;endSize=2;startSize=2;jumpSize=5;" edge="1" parent="1">
          <mxGeometry width="50" height="50" relative="1" as="geometry">
            <mxPoint x="519.4300000000001" y="370" as="sourcePoint" />
            <mxPoint x="519.4300000000001" y="310" as="targetPoint" />
          </mxGeometry>
        </mxCell>
        <mxCell id="shZay32Vncn5JO2l-WHq-21" value="" style="shape=image;verticalLabelPosition=bottom;labelBackgroundColor=#ffffff;verticalAlign=top;aspect=fixed;imageAspect=0;image=data:image/png,iVBORw0KGgoAAAANSUhEUgAAAc8AAAFMCAYAAACtXDddAAAgAElEQVR4Ae2de9QVVf3/H9MyrxmS5iXzgoqoKV4IRGVF6MobaC5UvKFIWoEKokISWog3oFBQJDF1aYhYimK6MDUBES9piAtE0FBAvKSCJmjyz/zWR7/79xxPZ87svWfPzN4zrz+eNeeZ+3w+78/7tffMnH1a1q9fH/FHDNAAGkADaAAN6GughWDpB4tYESs0gAbQABoQDQBPet7ceUADaAANoAFDDQBPw4DR6qTViQbQABpAA8ATeNLiRANoAA2gAUMNAE/DgNHipMWJBtAAGkADwBN40uJEA2gADaABQw0AT8OA0eKkxYkG0AAaQAPAE3jS4kQDaAANoAFDDQBPw4DR4qTFiQbQABpAA8ATeNLiRANoAA2gAUMNAE/DgNHipMWJBtAAGkADwBN40uJEA2gADaABQw0AT8OA0eKkxYkG0AAaQAPAE3jS4kQDaAANoAFDDQBPw4DR4qTFiQbQABpAA8ATeNLiRANoAA2gAUMNAE/DgNHipMWJBtAAGkADwBN40uJEA2gADaABQw0AT8OA0eKkxYkG0AAaQAPAE3jS4kQDaAANoAFDDQBPw4DR4qTFiQbQABpAA8ATeNLiRANoAA2gAUMNAE/DgNHipMWJBtAAGkADwBN40uJEA2gADaABQw0AT8OA0eKkxYkG0AAaQAPAE3jS4kQDaAANoAFDDQBPw4DR4qTFiQbQABpAA8ATeNLiRANoAA2gAUMNAE/DgNHipMWJBtAAGkADwBN40uJEA2gADaABQw0AT8OA0eKkxYkG0AAaQAPAE3jS4kQDaAANoAFDDQBPw4DR4qTFiQbQABpAA8ATeNLiRANoAA2gAUMNAE/DgNHipMWJBtAAGkADwBN40uJEA2gADaABQw0AT8OA0eKkxYkG0AAaQAPAE3jS4kQDaAANoAFDDQBPw4DR4qTFiQbQABpAA8ATeNLiRANoAA2gAUMNAE/DgNHirE6L89NPP40efPDBaOjQodHpp58ede/ePdpzzz2jLbbYImppaeGPGFRKAxtvvHG0yy67RF27do169+4dDRo0KLrzzjujFStWVBK8wBN4VlL4cY2gt956K7rhhhui4447Ltp0000rZY40CGgQ2WpAgDp8+PDor3/9a2X8BHgCz8qIPQ6Yav64ceO+aFnbGgjbAR800BKdcsop0bx580rvK8ATeJZe5AqOcdN77rknOuSQQ+hlchsWDTjSwIYbbhgNHjw4euONN0rrL8ATeJZW3HGwrJ0vBU5vgR4jGshGA/KMdMqUKaX0GOAJPEsp7FpANvr84YcfRkcddRTgdNTTAD7ZwKcscb344otL5zPAE3iWTtSNYFk7T57HlMWUuA6gFYoGjj322FJ5DfAEnqUSdC0kG31etmwZ4KS3iQYK0sCQIUNK4zfAE3iWRsyNYFk/T57B2LbUN9tss+j73/9+dNBBB0XdunXjjxhUSgNdunSJ2rVrF2211VbWNSS1N23atFJ4DvAEnqUQcj0kG/0vX+w2BeeJJ54YjRkzJlq0aFFl4tQodsyrzuAgOrl+7733voDgeeedF7Vt29a4rubMmRN8PQFP4Bm8iHWKffz48UYF3qNHj+iRRx6pRGx04sc6wDNOAwsXLozOOusso/rq2LFjtHbt2qDrC3gCz6AFHFfQtfPfeeedL2436fY6r7322tLHpDY+fAaMLjQgt2O/9a1vaUP06quvDrrOgCfwDFrAOkV/2WWXaRf0ww8/XPp46MSMdQCqjQaWL1+uPUrXdtttF73++uvB1hvwBJ7BilenuOfPnx9tvvnmWvCcOHFiqWOhEy/WAZouNLDPPvto1dwFF1wQbM0BT+AZrHh1ivzCCy/UKmJ5ZqOzP9YBLmggWQOvvfaa9i3cpUuXBll7wBN4BilcXQOTr5UkPeuUcW1198d6ycZJjIiRaOCWW25JrD2pTVkvRM0AT+AZpHB1im3x4sVaxXv//feXNgY6cWIdYJeVBmRUoaTG66mnnhpk/QFP4BmkcHWKffLkyYmFy+1awKGjJdax08msWbMSa1BeHAoxvsATeAYpXJ1iO+GEExILl16nnSnqxJ91iK1ooHPnzol1+MILLwTnQ8ATeAYnWl1T7tChQ2LRrlmzprTXrxsn1gNyWWpA52f/pk6dGlwdAk/gGZxodQt9yy23bApPGZ9Wd1+sB2DQgJ0GHnvssaZ1KM9EZQjM0OILPIFncKLVKbIPPvggsWBlrFudfbGOnWkSN+ImGnj55ZcTa1G+UhaaXoAn8AxOtDpFtmDBgsSCHThwYCmvXSc+rAPY8tKADCKf9Mat/ABDXufj6jjAE3gGJ1od8evcKhoxYkQpr10nPqwDPPPUQBI8Q3yEAjyBZykBAjyBQ55w4FjN9QY8AU0pQVPGwgeezc2sjDnnmvzNOfAEnsAzEA0AT3+NFMhVLzfAMxDjpDirV5z1OQeeaKBeE/xfnCaAJ/Ck5xmIBoBncUYJpIh9vQaAZyDGWZ84/q9eMQPP6uWcOvc358ATeNLzDEQDwNNfIwVy1csN8AzEOCnO6hVnfc6BJxqo1wT/F6cJ4Ak86XkGogHgWZxRAiliX68B4BmIcdYnjv+rV8zAs3o5p879zTnwBJ70PAPRAPD010iBXPVyAzwDMU6Ks3rFWZ9z4IkG6jXB/8VpAngCT3qegWgAeBZnlECK2NdrAHgGYpz1ieP/6hUz8Kxezqlzf3MOPIEnPc9ANAA8/TVSIFe93ADPQIyT4qxecdbnHHiigXpN8H9xmgCewJOeZyAaAJ7FGWWZILVq1aro1ltvjYYPH+7k77777qukhwDPQIyzTMXLtdhBAHjaxQ29tcbtkksuiZJM33b55MmTKwXRpDh169YtuHi0UCytxUIsyhML4FmeXBZRlyNGjMgMnAokjz76aHDAsM2Fuua4KfCkZ1qZYrAtory2A57A01Zra9euzRycApFjjjmmMn4RB001H3gCTy+LQUBiayShbgc8gaetdqdPn54LPAUc//nPfypRmwqScVPgCTwLKwSBhfyJCOWvmUhludyWkj9bg/F9O+AJPG01OmHChNj6iasr2/lLliwpbQ3Wxj8pPsATeOZaCAIIAWAzWCaJVpaXEaTAE3jWmrfJZ+DpXjtJPgQ8gWcu8FQ9zCRB2iwvS28UeLo3QBMAhbwu8HSvnSQvAp7AM3N4pu1lJolYLQ8dosDTvQGGDESTcwee7rWjfCVuCjyBZ2bw1IFBnDBt54ug5bgmxuPLujrxCr2B4Eusy3YewBN46mia73kGAHwxeVsAutguRMgAT/cGqGMoZVgHeLrXTpIP0fMMAEShFXfR4FSiDw2gwNO9AYZWO7bnCzzda0f5SNwUeAJPp7c4fQGnEnxIAAWe7g3QFkahbQc83WtHeUjcFHgCT2fw9A2cSvShABR4ujfA0CBoe77A0712lH/ETYEn8HQCT1/BqYQvYLI1pry2A57uDTCv3BV9HODpXjvKO+KmwBN4poaK7+BU4i/a4JKODzzdG2BSzMuyHHi6147yjbgp8ASeqeEZJy7f5vsuduDp3gDLAsek6wCe7rWT5F+++0kjzfBVFY+AH0qvUxWCz7dvgad7A2xkIGWcBzzda0d5RtwUeHoEohCLOk5Yvs73WfDA070BhlhTNucMPN1rJ8nDfPaSOA3R88wI+GLe8ie9SRGG/MUJKGl53HY+zJdrjBNXkfOBp3sDLDKfeR4beLrXTpJXAc+MQJRn4aQ5lhh2M0gmCSjE5b6KHni6N8A0tRHStsDTvXaSvM1XH2mmW3qeDoBfRWjWFoNcfzORFbEMeLo3wCLyWMQxgad77dT6RaPPwNMBiIooljTHDO0ln0bCTTsPeLo3mzSaZNt0+QCe6eLXSH9JHgM8KwZPSXiSKKqw3Efh0/N0b4CNTNHlvFmzZkX33HNP6r/77rsvWrFihfXdEODpXjtJPuijhyRpm9u2lsCnx9nylYZDktDyXg483RtgVjkcPXr0V7SUZLS6y3v37h0tWrTIGKLA0712knIGPC1BlFVRZrVfwPlVcEph+HbrFni6N8As6mnYsGGZgFOZ9fbbbx+tXr3aCKDA0712VD7ipsCzAvAEnP8LTuDp3myyAJVv+1y5cmWm4FRGLTVrcu3A072eVS7ipsCzAvCMS37V55salImZ2axLz9O9Adrkodk2N998cy7w3GmnnYBnwd6c5I/As+AENStUF8skwUkiqOpy38QPPP2H56BBg3KrJ5P6p+fpXjtJvuibf+johReGNIHP7drGt2tVUfgmfuDp3gB1DMVknbzgucEGG9Dz1PQ5k/yZrKt8Im7qm3/oXBvw1BAV4GwOTikI38QPPIGnMmrgWbwWVC7ipr75B/DUAGNSkHRMOE4QVZrPM8/iDSpJy74tp+fZEi1ZssSoV+xbDnXPJ8kLgacDWOkmI6/1JKlJiWd5yxcD4OeVE53j6DR6fAO+znWVaR3gCTyVdwLPksETcCbfrlXi9w1EwNP/njDwBJ7KP4BnieAJOPXBKQUgsPKpVwQ8gacyZp55Fq8FlYu4KfAsATzFdPMCp/TWdEw+TnA+zQeexRuUT40XnXOh50nPU3kY8AwYnnlCUwSjbnOWBZ46ZpnnOjpxVTnI87w4VmsjA3gCT+AZIDTFXBUw8+ppilDkWHLcWhPN8/hKrC6nPkIIeLZCqlZrPn0GnsBT+RA9z8AgKqYvfyqBWU/jIAM83Rs98HQfU9fgBZ7AU3ku8AwMnrVmkBVIRRRx0FTH1zF6JTIfp+o6fJrqxDQpLz5dTxnPBXgCT+VnwDNgeNabk4KpTa9QAVMMvH6/cf/bHEcJr8iprwACnvQ8VV3wtm3xWlC5iJsCzxLBsxHkxJDVn4Kr+l9NG22nM0+2jxOWz/N1rq2IdXTi6Sv4i4hXEcek50nPU3kb8Cw5PLM2mNB6nz7DB3gW39tIqhfgCTyBJ9DUvj3bzFB0DF+JzYdps2speplOLH2Gf9Hxy+P4wBN4Kh+j5wlEU0NUDF0Jyuep7+ABnvQ8Vf3wzLN4LahcxE2BJ/BMDU9p8ft++9Z3cEoMgWfxhpnUe6XnSc9TwRR4Ak8n8NQxfiW6vKchgBN4Ngfnu+++G7366qup/5YvX55K78ATeCr/Ap7AM5WZ1LbUfQRoSALXiV8oDYFaXaT5fNddd0Vt2rRx+lhg8803j8aNG2ele+AJPIEn0LQyjyQj1AGAEl/W05DAKXHViV2V4Dl06FCn0KzX209/+lPjGgCewFPpKDR/EY9pSTJwlje/BZZ1fHQgoASY1TREyOjELcTrstHb4sWLMwWn0t306dONAAo8gafSDvCkB2pkHiZGKEavhJbnNFTAAM/WRt/IkSNz0U6fPn2M9A88gafyMuAJPI3MwwSesm6eABUxC4BMz9GX9YFnKzx79uyZCzx33313I70AT+AJPIGmkWmkBUyWEA0dmiq2wDN/eLZr186oDoAn8ASewNPINJTBp526hKhAM9RbtI3iCDyBpzJmBklo1UKjWsljnspF3JTbtkC0MIgK+ESAceJsNF/1MkO+PRtX+MCz1TDzum1Lz7PFqP6kJpcsWVKIZ8TVTVbzG/lP7TzgCTy9KAQBh8C0/k/mq7+sisSX/QJP4KnMmZ5nqxaKqk+Vi7gp8ASeXsCzqALx6bjAs9Uw6XluYFSXEyZMMO5BxkEhaT49zy9768ATeBoVqU+wKdu5AE/gqcBFz7NVC0XVucpF3BR4Ak/g6YkGgGerYdLzpOdZFDTVceOgqeYDT0+MUyWMaauBVi0WwLM198ATeBZd/wqScVPgCTzpeXqiAeAJPJVRc9u2VQtFQVTlIm4KPDWNc/Xq1V/8HNLs2bP//9ufYnb8EQOXGogrVDVf3kZ2ebxnnnkmWrZsWbR27VqvGlH0POl5FgVNdVxVc3FT4NkEnjNmzIgGDBgQ7bbbbrm9yRaXKOabfx+NmJnFTMzgmmuuiZ577rnCQQo8gaeCWFHTJP8Ang3gOXfu3Ojkk08GmC1m5pskNpaHEc9vfOMb0UUXXRS98cYbhUEUeALPoqCpjpvkV8CzDp5Tp04FmkATDbS0RLvuuusXt4iVmeQ5BZ7AM0+9NToW8KyDY6MgqXny6/JJAWN5GL0n8uQuT/KMVdVIXlPgCTzz0lrccZI8hJ7n/8FVXsRIChbL3RkysQwrlgsWLMgVoMATeMZBLa/5SR4FPNevj26//XbAya1aNNBEA/LSXJ4ABZ7AMy9Ixh0HeCbctl2zZk209957Y5xNjDNJRCwPqxdpm6/TTz89t94n8ASecVDLa35SnVS+5zly5EjACTjRgKYGHnrooVwACjyBZ16QjDsO8EzoebZv3x7j1DTOJDGxvPw90D59+gDPHOqFEYYYYSgO6mnmt6TZuHbbZ599FnDmYARAtTxQbdOmDfDMoWaAJ/CsZZWrz87gyRu25TF1AJ1fLvP46gq3bblt6woYtvtJ8pRKP/M899xz6Xnm0IpOEiHL8wOfi1hPmTIl894n8ASettBztV1SrVQanr169QKewBMNGGrg97//PfA0jFmSEdcv57Ytt21dNQJq9+Pstu0RRxyBcWZsAvWmwP9h9TIb5UveUK8tyCw+0/Ok55mFrkz22Uj7tfMq3fM87bTTgCfwRAOGGvjDH/4APA1jVmu6Op/pedLzNAG97rrOep7yyxE6Qmad8HtL5NBdDh944AHgCTwz14AuELJaL8kzKt3z5BdU3BlqktBYXp5Yy49nZ2VYar/ctuW2rdJCUdMkz6o0PN9++216nhm3oJMEyPKwoNqpU6fMwSlmCTyBZ1HQVMdN8qZKw1OCdOyxxwJQAIoGNDUg341W5pLlFHgCzyz1pbNv4JkwPN/MmTMxTk3jTBITy8PqRZrma4899ojee+894JlDvfDCEC8M6QDedB1nLwypA/fr1w+A5mAIpmbN+n7BeMKECbmAU+qSnic9T+XPRU2T/Kfyt21VYvbdd18ACkDRQIwG8rpdq+oReAJPpYWipsAz4bZtbWKSgsVyv3pC5COffPzkJz/Jrcep6hF4Ak+lhaKmSf5Cz7MOrueffz69j5jeR5KYWJ4PzPKM889+9rPcwSlmCTyBZ1HQVMdNqjPgWQdPCZw825GXI5KCx/LywYKcfpnT7t27R/fff38h4ASeLREvDPHCkIK4y6nzF4YanZy8VSjPeeR7bRgqkKyKBo4//vho0qRJhUFT1SI9T3qeSgtFTZNqnp5ng55nfbJkRBX5GaZhw4ZFRx99dCRBK/tfknCqsLyIHCfF1fU59e7dO5KB3mXIvY8++qhwaKraA57AU2mhqKlOLRZ1brbHzaXnaXtyZdhODDpJOFVYnvcbpvIj00lxzfucitJzXvBs27atUYNh0KBBiTlKyqHucpPYy6Mm3f2mXW/JkiVGMTO5Dp/WTYqT+KRP56tzLsBTo7esE8i4dYDnl7ep8wYV8Gx9ztW/f/9cYGA63OCoUaNyOa+tt97ayJjvueeeXM5LgPL+++8bnVucz/g+H3hmDBrfBWBzfsATeNroxuU2ecHgiiuuMALBM888kwuk+vbta3Re7777bi7nZdpTd6mJvPcFPIGnURGKQIEn8MzbqBodL+s33jfaaKNo1apVxvXxox/9KHNQzZs3z/i8Bg4cmPl5TZs2zfi8GuU2hHnAE3gaix14Ak8fzG327NlR+/btMwHClltuGclPEtpc59KlS6PDDjssk/MSw7YdBnHdunXRCSeckNl5mfbSbWLr0zbAE3gaGwTwBJ4+mZh831R6VaecckrqPxnH+o477jCuiUbxkB+VGDJkSOpzkus644wzookTJ0arV69OfW5PP/10NHz4cCfnJec2duzY6M0330x9Xo1i6PM84Ak8jUUPPIGnz6bGubW+WEUssosF8ASewNNyuEHets3OmDB9Yuu7BoAn8ASewNNYA74bG+cHfLPWAPAEnsbGyW1bbttmbUzsH/j5rgHgCTyBJz1PYw34bmycH/DNWgPAE3gaGyc9T3qeWRsT+wd+vmsAeAJP4EnP01gDvhsb5wd8s9YA8ASexsZJz5OeZ9bGxP6Bn+8aAJ7AE3jS8zTWgO/GxvkB36w1ADyBp7Fx0vOk55m1MbF/4Oe7BoAn8ASe9DyNNeC7sXF+wDdrDQBP4GlsnPQ86XlmbUzsH/j5rgHgCTyN4PnWW29l9qsMSWL0bflee+1lFLu0ZsCPYQOUtBpie3caSvIj6WSEFu+W0E44pPO94YYbgGfNbd6XXnoptwIBnu6ML6Sa41z9zDvwpOdpZP6HH3448KyB569//Wuj+KUxQuDpp4mmySnbhptT4Ak8tc1/5cqVgLMGnFI88mPMeRkg8AzXaPPSCMfJTyPAE3hqm//1118PPOvgKQU0f/587RimMTfgmZ8xpskT21YjT8ATeGob/6GHHgo8G8Bz+PDh2jFMY6xz5sxJjP+wYcNyOZc018G21YBLmfO8bt26xFo84ogjgqtFXhjKoEGwYsWKRLEktcTKunzPPffMpUj+9a9/JebgnHPOyeVcymyMXBtwT9LAm2++mViLffv2Da4WgWcG8Bw3blyiWMoKR53revHFFzMvlM8++ywxBz179sz8PJKMheXAp+wa+Mc//pFYi5dddllwtQg8M4Bn165dE8WiA5myrpNXoWy77bZN87DffvsFV7BlN1qur3yNiWnTpjWtQ/G5G2+8MbhaBJ6O4bl8+fJEoZQVirrXtccee+RSKB07dkzMxRtvvJHLuQCF8kGBnOrl9Oyzz06sw+nTpwdXh8DTMTx/97vfJQpFFzJlXu+FF17IvFjOPffcxFzcdtttmZ8HJqtnssSpnHHq0KFDYh2G2IgFno7hecghhyQKpcxQ1L22X/3qV5lD64EHHkjMRY8ePTI/D6BQTiiQ1+S8/ulPf0qswVAfnwBPh/Dklu2Xg8DrALRdu3aZQ2v16tXRN7/5zcTile/kYoTJRkiMiJGJBj766KNo//33T6y/IUOGBFl/wNMhPMeOHZsoFB2wVGUdeQvPpBht1u3Vq1diTnbcccdo4cKFmZ+LzfmzDcAKVQMjRoxIrD3xukceeSTI2gOeDuHZpUsXLbFUBY5J15nHIAWTJk3Syoncbg/VpDhvAOubBnRG+BJ/+OEPfxhs3QFPR/CUB95JsGD5V2/r7rbbbrkUzo9//GOt3PTv3z+X8/HN6Dgf4OtaA7peN2XKlGBrDng6gueYMWO0DFpXVFVZ7/nnn8+8eHReHFLxlltNro2E/QGnqmhg4sSJ2j4oj1RCjgvwdATPzp07a4tGGTXTlujSSy/NpYBOO+007fzIus8++2wu5xWyeXDuNAqUBuRlSd1nnMr3nnjiiaBrDHg6gOeyZcu0jVkJh+mXt3B33XXXXApIvlfatm1bozzJbdy5c+fmcn7KhJgCpJA08Nprr30Bze22286otoYOHRp8XQFPB/AcPXq0kXAA51effT733HO5FNLNN99sladOnTpF1113XTRv3rxIzGLNmjW5nG9IJsq5lh/68usoMsi7vCU/derU6MQTT7SqpzPPPLMU9QM8HcBTzBUgfhWIJvG45JJLciumX/7yl+SqwU/FmeSLde21XvXYbbbZZtHatWtzq/csG3XAMyU8dX76quoFk3T9u+yyS67FJKMKJZ0TywEEGnCvAblzkyXQ8tw38EwJT7mdR5GlL7Jnnnkm16KSUU3IW/q8EUNiqKOBDTfcMMq7xrMGKfBMCc+DDz4YE3ZwG/Diiy/OFZ5SWDfddBO5c5A7HfNknepCVgaGX7p0ae71DTxTwi3LAL7++uuYryPz3XnnnQsprjvvvDMyfVMQEFQXBOTeLPfHH3989MEHHxRS21l6v+ybnmcKOF9zzTXA0xE8xZTkbdasBd9o/+o7akDUzBgBCfGK08AxxxwThfgbnY38IW4e8EwBz4MOOgh4OoRn0b+uoCAqLzDFmQLzAQYaiNdAFaCpYAo8LeEpb41RRPFFZBObnXbaqZCepyqG2ql8j613797RxhtvTJ4dNpBsdME2buvMdTyPPPLISL5DXaY3aWu9IO4z8LSE59VXX42pZmCqTz/9tDcAVUXz8MMPR5MnT45+85vfROeee24kretu3bpV7s/GdEOIU1mvy3XsjzjiiKhv377RZZddFt14441f3JZ9++23vatXVbdZT4GnJTwPPPBA4JkBPC+66KLKFmPWxZ5m//LzcTaQkWER0xw3j21trmvTTTeNqgyOPPLi+zGApwU8lyxZYmUkNkVatW2+973veW+2vhd1FufXvn17Y823adMmiFzKcHE2dSa/IJJFrNlnGEMdAk8LeF511VVWxWZToFXchsHY/TKPhx56yErvw4cPDwIu8gs6NnUmz/oAnV9azTMfwNMCngcccIBVsdkUaBW3GTRoEKZkocusjEN+XcZGhytXrgwmj9JLtrnGl19+OZhrzEofVd0v8DQ0qVdffdWqyGwKs6rb7LjjjhiSoS6zMjD5BRnTn3IT3e61115B5VB6yTb1NnLkyKCuMyudVHG/wNPQpEaNGmVVZDaFWeVtnnrqKUzJUJtZGNgdd9xhpffx48cHlb+33nrL6jrlLlQWcWef/t8OBp6GBtWxY0erIqsyCG2u/cILL8SUDLWZheH26tXLSu9ZnEvW+/zBD35gda1///vf0aoHWs1aH/X7B54GSV+8eLFVcdnAo+rb7LDDDhiSgTbrC9vF/7ZjN3fv3j3I3E2aNMmqvi+44IIgr9eFRqq8D+BpYFBXXnmlVXFVHYS21z979mxMyUCfro1szJgxVnq/9957g82bjVZlZKzPP/882Gt2rZuq7A94GpjTfvvtZ2UmNgXJNi0RLfpin/t07drVSu8hm6eMHmVTeyE3GELOV5HnDjw14fnKK69YFZVNIbLNl2N5br/99rTmNfXp2kTkh4ttdNinT5+gcyZDMdpc96mnnhr0dbvWTxX2Bzw1zUleSa5SDBAAABC0SURBVLcpKrZJN6j1rFmzMCVNjbo0rKFDh1rpfc6cOcHny6ZmZbi+VatWBX/tLjVU9n0BT01jsn0Tz6YQ2aYVuOeffz6GpKlRl2a1xx57GMNzq622KkWufv7znxtfu9Qsw/UV+5jBpf519gU8NYxp0aJFVsUEBFshaBsL+YFqHSGzjjvjmjFjhpXeBw8eXIpcyahBNnpluD53GgyhnoGnBjzlp6hsiolt0sNTYvjkk0+WwpRDMAQ5x379+lnpfenSpaXJk3xVyqZ+Ga6vOgAFnhrw3Hfffa0Kyab42OZ/gTtw4MDSmLLvAF29erXVcHy77bZbqXJk++MPDNcHPEtVCGkMa+HChYAzg9/tNGkkfPe730WPGo28NDpX2952221Wer/22mtLlSN5+cdEo2pdhusDnqUqBGUMNtMrrrjCqohUMTH9356kTUwYAi0fUzruuOOs9P7xxx+XzjO6dOliFQu0mo9Wbfzc5Tbctk1o0e+zzz5WBWQDCLaJB+2AAQNKZ84uC9nFvuSZpY0GO3fuXMrc3HXXXVbxYHAP4FnKgjAxGdu37mwMiG3iwSmx2XbbbSuvRxPt2qx73XXXWcFCfnnF5ni+byND7tnUpQzX99///reUMfE9Z3meHz3PJj3Pyy+/3Kp4bAqObZrDU+LzxBNPYEhN9JrWOA455BArvac9rs/bn3TSSVYxYbi+8vc+gWcTM9p7772tCgcQJoPQJka/+MUvgGcTvaaB0NNPP22ldfnJsjTH9X1b+ZqUjVYZrg94lrowmhXuggULrIrGptDYRg+222yzTWX12EyrLpZdeumlVnqfOXNm6XOyySabGMdGhuuTH9h2kRv24SeI6XnGtORHjBhhXDBAUA+CaeL0+OOPY0gxmk1jsjbD8X3729+uRC6GDBli5QUM1+cn9NLUSe22wDPGiGSorTQmz7bZgHTUqFGVMOzaIs3684MPPmil9fPOO68SubB9cZDh+oBnJQqk3qDOPvtsK0MBmtlAU8W1rG921usvz/9ttf7SSy9VxhtseuaiWXn8k2cuOVZ+wKbnGdPz5LZtthBUMDSdPvbYY5hRjGZtjPPDDz+0Go6vXbt2lcrD9ddfb9WYZri+/GBmo/802wDPGCOaP3++VbGYwoD19SHNj2O7N6I//vGPVjqXr3GlMZ7QtmW4PvfaC00D9ecLPGPgKYHq1KmTlbEARH0gmsSKr6q4N7Bjjz3WSuPvvPNOpeApftCjRw+rWPH9ZPe6rQdZEf8DzybwlLflTMyddbOBporrs88+WznDztIUlixZYqXvsg7HlxTrv/zlL1bxYrg+4FlJ45JfSVDmzTRbODaLb//+/SupvyRDT7NcfgmlWczjllX1Kxgy5F5cTJrNl+H6Pv30U/TbpKOSRsdFbUvPMyGh8oJKs8JgWfZA7datG8aToFMbA2E4PvMe0VlnnWXlBwzXZx5rG03nuQ3w1DAlAJo9IOMaIVtssQXg1NCoqWnMnTvXCgLHHHNMpfMhPzcWp9Vm8xmuD3hWtnDk+1odOnSwKpxmRcWyeDB37969snozhaHp+hdffLGVlqdPn175nLRt29Y4djJc34oVKyofO1Od+rw+PU+DVv3y5csj+f7ndtttZ1w8QDIekvWxkefMVX2ulpdZ2Hzpf+utt8b816//wgPqNavzP5ouV+8TeBrAUxmbfOdr/PjxkTyL23333SO5tahTPKzTGKBiyvKj43369IlmzJiBQVtoUmlTZyq9Rxst9u3bl9ysXx8xXF+5IKhTM43WAZ4ZG1WjoDeaJyC2MbSit5GeeKPrYZ6/BmP70su8efPI9f/5RceOHa3qtUpDGpbdA4An8LQyAQVt4OkvJBuZ1/vvv281HJ/c5m20v6rOmzRpklXdMFxfWPXSTN/AE3hamQDwDNMEJk+ebJXvSy65BHjWeIX8VqeqAZOpPM9vZsgsC6eugGdNQRQpXG7bhlM0Reok7bFth+NbtmwZpl/nFccdd5wVQPlN2nLUOvCsK4i05mS7PfAsR0HZ5j+P7RYvXmxl9l26dAGcDXziz3/+s1U8Ga6vHLUOPBsURR5GVn8M4FmOgqrPq0//X3PNNVZmP3bsWODZwCdkuL4NNtjAOKYyXN+6deuIaYOY+lQvSecCPD1JIPAEnknFmna57XB8GH28NgcMGGAMT3lGOm3aNODpiffa1hXw9CSBwDPeoGzFzXatMX3qqaesTF6ekRLH1jjWx4Lh+uJjUx+rsv0PPIGnlamqNwz5qkoY5mE7HN+UKVOAZ4JHyG1YVQ+6UxmuT0YsKxtQqnQ9wDOhMPISAz3PMCCUlx5cH8dmOD4Zw9X1eZRxf6NGjTKGp0D2pptuIr6e+K+NLoGnJ8kDnsDTpoB1trEdjk9GItLZf9XXkR+N0O1x1q535JFHEl9P/NdGw8DTk+QBT+BpU8A629gOx8f3EfU12bVrVyuA/vOf/wSgnniwTi3VrgM8PUkc8NQ3qloB87l53P79739bDce35557YuoG3nDzzTdbwfO3v/0tcTaIs0/1Djw9SRzwbA4Bn4ompHO55ZZbrExdXjAK6TqLPleG66te/QJP4GllrurZDW/b+m0atsPxLVy4EHgaesMpp5xiVUt/+9vfiLVhrItuLMnxgacnSaPn6TeEfChW03N45ZVXrMxcnt+ZHov110cM11etGgaewNPKYOl5+m8UV199tVVuZRg/YGie388++yzafPPNjWMu3xNdu3YtMffEi3W1Dzw9SRg9T3Oz0hV5VdezGY5PxmqV3/ysaszSXvfgwYON4SkN0alTpxJzT7xYVwPA05OEAU/gqVu0OuvNnj3bysR79uyJiafwhCeeeMIq7qeeeipxTxF3nZpwvQ7w9CRhwBN4uixu2+H45MeyXZ5HFffVvn17Y4AyXF949Q88gadxoavnnTLlbVs/i95mOL7vfOc7gNOBH1x55ZVWNTVhwgTi7yD+eTXYgKcnyaLn6SeE8ipEl8e5//77rcy7X79+mLcDP2C4vmrUMvB0UCwujA94VqPgXGglaR+2w/HNmDEDeDryAxm3tvYOje7nF198kRw4ykFSnaRdDjw9SRTwBJ5pi1m2f++996yG45PndC6Ozz6+1LHtcH1XXHEFefDEk5O0DDw9SRTwBJ5Jxaqz3HY4vksvvRTTdugFK1eutOp5HnDAAeTBYR50asZ2HeDpSaKAJ/C0LeLa7WyH43v++ecxbcdecMYZZ1gB9NFHHyUXjnNRWyOuPgNPT5IEPIFn2qJetGiRlVkfeuihmHUGPnDvvfda5WPgwIHkI4N8pK2v+u2BpydJAp7As744Tf+3HY7v2muvxawz8AEZrm+bbbYxBqgM1/fJJ5+QkwxyYlpTzdYHnp4kCHgCz2aFqrPMZji+r33ta9Hy5csx6ox8YNCgQcbwlDdz7777bnKSUU50aklnHeDpSYKAJ/DUKdi4dWbNmmVl0r169cKkM/QA2+H65OfN4nLNfD+8AnhmWDgmIgeefhSESc58Wtd2OL5bb70Vk87YAw488EDjho0M1/fmm2+Sm4xzk6aGgacnyQGewDNNIdsMxyfP4z7//HMMOmMPsB2ub/z48eQm49ykqTng6UlygCfwtC1k2+H4zjnnHMw5h/p/6aWXjHue8txTRimy1QTbZe8nwDOH4tERMvDMXuw6eQhxHdvh+KZPn44551T/Rx99tBVAX3jhBXKUU45Max94epIY4Ak8TYtX1n/nnXeshuPba6+9MOUca3/ixIlW8Lz88svJU455MqlB4OlJYoAn8DQpXLWu7XB8Q4cOxZRzrP0VK1ZEG220kTFAGa7PX18AnjkWkDK8RlPg6W+RNMqXL/Nsh+N76qmngGfOtX/66acbw1Oefc6cOZNc5ZwrnfoGnp4kBXgCT52CrV1n4cKFVmZ82GGHYcYF1P20adOs8jVgwADyVUC+amut0Wfg6UlSgCfwbFSgzebZDsc3evRozLiAuv/000+jnXfe2RigMlzfxx9/TM4KyFmz+gOeniQEeALPZoXaaJnNcHwbbrhh9Oqrr2LEBdW97XB9U6ZMIWcF5axR7ck84OlJQoAn8Iwr0kbzbYfjO/744zHhAmv+8ccfN+55ynPPk08+mbwVmLdGNQg8PUkI8ASejQo0bp7tcHy33XYbJlxwzXfq1MkYoDJc37Jly8hdwbmrrUfg6UkygCfwrC3MpM82w/Ftu+220Zo1azDggmt+5MiRxvCU3ucNN9xA7grOXW1dAk9PkgE8gWdtYTb7bDscX//+/TFfD+p9/vz5VvDs0aMH+fMgf6o2gacnyQCewFMVZdLUdji+Bx98EPP1pN6POuooK4A+//zz5NCTHAJPTxIBPIFnEjRl+dtvv201HF+HDh0wXU9qXfJ40003WcFzxIgR5NGTPAJPTxIBPIGnDjxth+MbNmwYputJrUueZbi+Lbfc0hig+++/P3n0JI/A05NEAE/gqQNP2+H45s6di+l6Uusqz6eddpoxPOXFoUceeYRcepBL4OlBEqSYgCfwVKYaN121apWV2R5++OGYrSd1Xptb2+H6Bg8eTD49yCfw9CAJUlAXXHCBlTFKS7TIP0Y+yQ/6jz32mFWux4wZg9l6Uue18Fy3bl20yy67GOdUGtq1++FzfjVYG2vg6UlR3X333cZFVCQ01bFfe+01CjknDQkEVdx1p1//+tcZji+n/NQaq+7nCy+80DinW2yxBTXnQU6BpwdJkEJ75ZVXjItI10CzWo83OPNt8U6dOtVYIyeccAJG60mNNwKqzd0EGaGo0b6Yl289Ak+PCuukk04yNseswKiz30mTJlHEOepnwYIFxvq4/fbbyVGOObIB2MEHH2yUV76uki8k43IKPD0rLBnDUgdcRa9z5plnYsoFaKd79+7a+uDZmB8mG2e+av4dd9yhndO2bdtGMkKR2pZpcTkGngUYYDPBz5kzR7uQigKoFHCza2BZdgUtxinPvJJyv8kmm0QyjB+5yC4XLmOre9dp5syZ5NQTzwaeniSithDlh2/79euXaJBJBprFchkarvZc+Zy/OQsUm/VAO3bsGD355JPkycPablYvQ4cObVrz48aNI6ce5RR4epSM+sKSF0TkbbzOnTs3LaosIKn2udVWW0U9e/aMrrrqqujhhx+meD3SizxzPvHEE6MddtghatOmTSTPzkaNGhV98skn5MmjPNXXdbP/5QUiGQhDfYVFbr1fdNFF0eLFi8mpZzkFnp4lpFlhsSz/Xh4xJ+ZoAA000gDwBJ60aNEAGkADaMBQA8DTMGCNWiDMo2WKBtAAGqiWBoAn8KTFiQbQABpAA4YaAJ6GAaN1Wa3WJfkm32gADTTSAPAEnrQ40QAaQANowFADwNMwYI1aIMyjZYoG0AAaqJYGgCfwpMWJBtAAGkADhhoAnoYBo3VZrdYl+SbfaAANNNIA8ASetDjRABpAA2jAUAPA0zBgjVogzKNligbQABqolgaAJ/CkxYkG0AAaQAOGGgCehgGjdVmt1iX5Jt9oAA000gDwBJ60ONEAGkADaMBQA8DTMGCNWiDMo2WKBtAAGqiWBoAn8KTFiQbQABpAA4YaAJ6GAaN1Wa3WJfkm32gADTTSAPAEnrQ40QAaQANowFADwNMwYI1aIMyjZYoG0AAaqJYGgCfwpMWJBtAAGkADhhoAnoYBo3VZrdYl+SbfaAANNNIA8ASetDjRABpAA2jAUAP/D2Vkc/s+RQtUAAAAAElFTkSuQmCC;" vertex="1" parent="1">
          <mxGeometry x="443" y="249" width="45.29" height="32.47" as="geometry" />
        </mxCell>
        <mxCell id="shZay32Vncn5JO2l-WHq-22" value="" style="shape=image;verticalLabelPosition=bottom;labelBackgroundColor=#ffffff;verticalAlign=top;aspect=fixed;imageAspect=0;image=data:image/png,iVBORw0KGgoAAAANSUhEUgAAAg8AAAHaCAYAAACHPqqjAAAgAElEQVR4Ae2da6htVRWAj2Zp9jRvWomKFGmFPSzNzLKHBWIpomloqGUE3UJMM0wyKsmuWBm+qEghMh+lRmUaPrpSEmpIoWVqKlr24KZGahL3z4pxb9O7zj5r7b3mWvMx5pjfj8PaZ5+912PMb4zxzbn2OWdp/fr1DV/EAAZgAAZgAAZgYCgDS0NfyOuACgZgAAZgAAZgQBhAHlh5YeUJBmAABmAABrwYQB4AxgsYZh3MOmAABmAABpAH5AF5gAEYgAEYgAEvBpAHgPEChhkHMw4YgAEYgAHkAXlAHmAABmAABmDAiwHkAWC8gGHGwYwDBmAABmAAeUAekAcYgAEYgAEY8GIAeQAYL2CYcTDjgAEYgAEYQB6QB+QBBmAABmAABrwYQB4AxgsYZhzMOGAABmAABpAH5AF5gAEYgAEYgAEvBpAHgPEChhkHMw4YgAEYgAHkAXlAHmAABmAABmDAiwHkAWC8gGHGwYwDBmAABmAAeUAekAcYgAEYgAEY8GIAeQAYL2CYcTDjgAEYgAEYQB6QB+QBBmAABmAABrwYQB4AxgsYZhzMOGAABmAABpAH5AF5gAEYgAEYgAEvBpAHgPEChhkHMw4YgAEYgAHkAXlAHmAABmAABmDAiwHkAWC8gGHGwYwDBmAABmAAeUAekAcYgAEYgAEY8GIAeQAYL2CYcTDjgAEYgAEYQB6QB+QBBmAABmAABrwYQB4AxgsYZhzMOGAABmAABpAH5AF5gAEYgAEYgAEvBpAHgPEChhkHMw4YgAEYgAHkAXlAHmAABmAABmDAiwHkAWC8gGHGwYwDBmAABmAAeUAekAcYgAEYgAEY8GIAeQAYL2CYcTDjgAEYgAEYQB6QB+QBBmAABmAABrwYQB4AxgsYZhzMOGAABmAABpAH5AF5gAEYgAEYgAEvBpAHgPEChhkHMw4YgAEYgAHkAXlAHmAABmAABmDAiwHkAWC8gGHGwYwDBmAABmAAeUAekAcYgAEYgAEY8GIAeQAYL2CYcdibcVx//fWN7xcc2OOAMWVMfRhAHpAH5MEAA+3mf9pppzXua7/99mvc19LSUhP7yx1Ltu4cZNs+P58CxWtpaDCgkwHkwUDjILl0JlfIcWk3X2nGrknHloGY++8SjJAxY1/284IxzjfGyAPywMqDIgacJFgRhLHy0RYLiQlNIl+TIPbEvosB5EFR4+gaIJ6zm7hOFCysIoyVBN/3taWC3LCbG4yt/rFFHpAHZnWJGBBZcCsKvk2T1/d/XkNiKl+sUOhvOEiBnTFCHhI1DpLGTtIMGUtWFfqbfWwRcqsTyERdOTckL3lNOCaQB+SBlYdADEiz4hZEPmnokxJkIlzDoPkSS8cA8hCocbiAsq0nudqrC32Ni+f1yYS7zUGu1pOrjHX4sUYekAdWHjwYYHVBnwxMETREInxToVHXEVPkwaNxkBR1JMXsODthmNKkeK9+6XC3N2bHn+/rzHvGff64Iw/IAysPHQw4YZCGQuPX3/hDjxErEvMbB42V+CAPHY2DxKgzMRCG+iRhiHQgEnXWA/rA/HFHHpCH6lcenDQMaSS8pm7BEJEQXmgs8xsL8bEfH+QBeaiyECIMdUvAVAnk8xH2myMCNH+MkQfkoSp5QBqQhqniMPt+WY2g0cxvNMTHXnyQB+TBfOFDGBCG2YYf43s+G2GvQSI9/WOKPCAPZuUBaUAaYkjCkH2yGtHfdGjINmKDPCAP5uQBaUAahjT4FK9BImw0SoRn5TgiD8iDGXlAGpCGFEIw5hhIxMrmQ0MuOybIA/JQvDwgDUjDmIae4z1IRNkNE+HZNH7IA/JQrDwgDUhDDgEIcUwkYlMToiGXGQvkAXkoTh6QBqQhRAPXsA8koszGifCsb5AH5KEYeUAakAYNDT/GOSARSERpQoI8IA/q5QFpQBpiNGyN+0QikIhSJAJ5QB7UygPSgDRobPApzgmJQCK0SwTygDyolAcpnimKNMdAULQywP/PQCA0CwTygDyokgdZbdBazGs7L2letV2zxutlFQKJ0CgRyAPyoEIeuEURdgVAGr+buUrzkS+JcdfXmMLUtR93nPYWAQk3rhLXMWPFe5CPGAwgD8hD9oJEg/FvME4OnCC4Zh6jSITapztHJxfuGjTO9jWfExKBDITKySn7QR6Qh2zyIM1Ec5HWcG6zciAxm5Lwmt8r19YWCw3x13oOCAQCkTuXkQfkIXkzkiYhTVFrYc51Xm4mLvGxLAk+Ra8tFLnGRfNxkQgkwiefQr4WeUAeksqDFDvNxTjluSEL4wo/qxPLb3MhEOM4CtlIa9wX8oA8JJEHVhuWNqy2sKoQvtCzOrFRJpCI8GzVKAVDrxl5QB6iy0PNqw2yuiDNbWhC8rrpDcCtTKRcRdJyLARiOj/k4LAYIg/IQ7TGVuNqQ/tWBEVoWBGKGSe3KqGluac6DyQiP3sxudawb+QBeYgiD1K0UxXK3MdBGMoo1LWJBAJRBpcaRGDMOSAPyENweZCilbuhxz6+ux0hDWlM4vGevIXdiYSMY2xWcu8fRvOyZjXXkQfkIVjzkyJlvRg7abBaEGq9LuvCyyoEAhE6t5EH5CGIPFguvghDPYVXOLYqwAhEPRyHFoWu/SEPyMNkebBabJGGeoutu62R+5ZDjOMjEfVy3SUBY59DHpCH0fJg8TYFwkBhnS2mFlfVEAg4n+Xc93vkAXkYJQ8iDjFmRbn2iTRQTBcVT2m4lkQCgYD5RczP+znygDx4y4OlAoo0UEDnFci+n1nJAfiH/z7GFz2PPCAPXvIgxSbX6kDI4zLromguKo5Dfm5FIsgH8mEI7+3XIA/IwyB5sPL5BookRbJdAEM9tiAR5Aa54ZMPyAPysFAeLHy+geVZCqNPYRz72tIlAoEgT4ayjzwgD3PlofRiiDRQDIcWw5CvKzlvJGdCxoJ92cxB5AF56C0UpRdAWTGhcNksXKWMa8k5RP6QO/PyDHlAHjobbKlFj5UGCt68gpfjZ5JLpeYTAkE+9eUM8oA8rJAHacAhf7Mhxb6QBopcX5HT8rwIRIm5JeetJYach548Rx6Qh2WFgeKmJzkplDbHosRVCATCJotTagzygDxskAdZnixNHFhtoKBNKX6531uaRCAQ5Fs7Z5AH5KERcUhxayHkMbgXSyFrF7JSHyMQcFwqu8hD5fJQmjjIakOpycZ50yj6GChJIliBgGPhGHmoWB5KEgduUVCw+hqvlecRCBgviWXkoVJ5KEkcmOlQVEsqqlPPtRSJIC/rzkvkoUJ5KEUcWG2ouzhNbcIlv19yVPgP+TmhGPviNmK9OYo8VCYPzGrqTfaSm2mt515CviIQddYU5KEieSihEMnsSGZdtTYLrrvOQjxv3EvIWwSiPm6Rh4rkYV6Bkobd/pKCJV8pl04pQPUVoHlM8rPlPOSQCMlJ9+Vqgtu264V7zJgtHzPL8UAekIfBs3wpEK5whL5/Kvu1nGhcWz1FNeZYS56Ezj3ZX1sQEAFYHcIw8oA8jG7aTiak8EwpaLKfIbDyGooaDKwP8k+2JGeRBPJpSj4hD8hDsMbtuyohBWwKvLyX4lczAz7SLq+V/ETUyZlQOYM8IA9RGvii5VX5eSiI2Q8FsVYG5uUZwkBexMwL5AF5iNrEpbjNFjhmPxS1mEWttn3P5pdIAzlGjsXOA+QBeYgqD22ApchR1ChqbSZ4HI4HcitcLOFycSyRB+QhmTyQkIsTkhgRIxiAgRIYQB6QB+QBBmAABmAABrwYQB4AxguYEoyYc2TmBgMwAANxGUAekAfkAQZgAAZgAAa8GEAeAMYLGGw+rs0TX+ILAzBQAgPIA/KAPMAADMAADMCAFwPIA8B4AVOCEXOOzNxgAAZgIC4DyAPygDzAAAzAAAzAgBcDyAPAeAGDzce1eeJLfGEABkpgAHlAHpAHGIABGIABGPBiAHkAGC9gSjBizpGZGwzAAAzEZQB5QB6QBxiAARiAARjwYgB5ABgvYLD5uDZPfIkvDMBACQwgD8gD8gADMAADMAADXgwgDwDjBUwJRsw5MnODARiAgbgMIA/IA/IAAzAAAzAAA14MIA8A4wUMNh/X5okv8YUBGCiBAeQBeUAeYAAGYAAGYMCLAeQBYLyAKcGIOUdmbjAAAzAQlwHkAXlAHmAABmAABmDAiwHkwSAwf/vb35prr722+frXv96sXr26OfDAA5s3vvGNzc4779xstdVWK7522WWXZs8992wOOuig5vjjj2/OPffc5sYbb2weeeQRL5gw/bimT3yJb2oGrr/++sZ9nXbaaY187bfffk9/LS0tNfLlnnOvka17X+pz5nhp8gR5MCAP69atay6++OLmuOOOa3bbbbcNyeySeur2da97XfOJT3yiufLKK5snnngCmTDAC8U1TXEtMc6u4YsMTK0d7ffL/kQoSowJ59ydL8hDoc3g3//+d/Ptb3+7OeCAA4ImeTvhZx9vscUWzSGHHNJ8//vfpwgUyg2FsLsQ1hyXWMIwWz/c904k5Lg1x730a0ceCmsCt956a/Oxj32skUbukjHH9oUvfGFz4oknNn/4wx8oAIUxVHrR4vzDCJC7BZGjfrSPyYpEmPFMnRfIQyGF/4YbbtjwmYR20ml5fNRRRzW33XYbElEIS6mLDMfT1RykWWupHe3zQCJ0cbIob5EH5QVfmrLcKmgnmdbHxx57bHPvvfciEcqZWlQU+HlZRXzoeMltAq21o31eSEQZ/CEPSgv9k08+2XzqU58qItnbib/ZZps1X/jCFxAIpVwNbTS8rowCPmScRBpCfwCynfOxHiMRuhlEHhQW+SuuuKKRX5+MlZQp9rvHHnts+HXPIcWN1+guEoxPmeNTqjTM1ickQid/yIMyeZC/szCbPCV/zyqEzsRHCGyPizTckuvG7LkjEPp4RR6UyMNdd93V7LvvvqYS3hUA+eNT//jHP7iVoYQ1xEFfIQ45JtbEwdURBEIXt8iDgoJ+9dVXN6tWrTIpDi7xd9111+aWW25BIBTwFrJRsS9dBd2qOLg6Ip/dgDkdzCEPmYv5RRddZFoaXNLL9rnPfW7zk5/8hOTPzBzFV0fxDTkOVj7f0K4X8x7L9YaMH/vyzwnkIWMhl/8hMS9BrP7ssssuI/Ezckeh9C+UmmMmjdRqrZh3XdzGyMsx8pCpiJ9zzjlVJrwrBghE3sTX3Aw5t+Fs1CoOro4gEMNZCZ1XyEMGebjwwgurFgeX+NzCyJf4oQsJ+8szli6Xat5yCyMTeyR92sBLw6w50dvXLp+BkP/VAYNpGSTeNuJd4h9+aud/qMd8iDIPz6w8JFx5uPPOO5ttttkGeVhaejoG8i/E5V+K09DyFADiXmbcrf9Wha9YIBDpOUYeEsrD3nvv/XTT9E0Oy68/+OCDkYeEHCIM6QttyJgjDpsmH+26yOcf0nKNPCQq2h//+McRh9aKQzvp5fEXv/hFBCIRiyEbGftKW7ARh25xcPUEgUjHI/KQoGBfcskliMMccXCJv3btWgQiAY80/HQFNmSsa//NClcnFm35AGUavpGHyMX60UcfbXbYYQfkYYA87LnnnshDZB5DNjP2laZIuziz6jB/1cFJBZ9/SMMl8hC5WK9evRpxGCAOLvFPP/10BCIyk64ZsU1TZEPEGXEYJg6ujrD6EJ9t5CFiof7lL3+JOHiIgyT+M57xjOb+++9HICJyGaKZsY/4xbkdY9cU2Q6XiHb8eByeV+QhYpE+4IADkAdPeZDieNxxxyEPEbl0hVQk7ac//Wlz9tlnNyeccEJzxBFHNPvvv3+z1157Na95zWue/pLv5Xn5ubxOXi/vQ/LCF2Q3Nu0tqw7DhaEtV3x4Mi6fyEOkIs0fgxqX8C75b7/9dgQiMJu33XZbc+aZZzbvf//7m5e85CVBxFb2I/uT/cr+202Px2GKt8sJtv41BQbDMNgVR+QhcIF2QZaZGsnun+wuZkcffTSNKACbN910U3P88cc3u+yySxIe5ThyPDmuywW24ws4qw7ja4jUEj48OZ69RXmLPAQo0LNBvvHGG5MUatdorW7vueceGtAIPh977LHmrLPOal71qldl5VCOL+ch5zObI3w/rKhbze2U18WHJ4ex5puTyMOI4rwoyEceeWTWop0yMWMe6+STT6bpePD50EMPNSeddFKz5ZZbquJPzkfOS85vUe7w802FnlWHaasOrjax+rCJqZD5hTx4FOchgX/44YdVFW6XQCVut912W5rNAD5lZv+Zz3ym2WyzzVSzJ+cn58lKxLBiLk2vxLzVeM5DajevGcalixPyMKA4u2AN2X7ta18j4Uf8hkVfwbn88ssRiDmMnn/++c12221XFHMvfvGLm/POO49xnTOuUmv6coLn/VckuHXhJwZDeh3ysCCBhwSx/Zp99tmHpA8oD4cffjhNpoPR3/3ud8173/veolmT85fraOcPjzcWeW5Z+AvCPKni1gXyoLrQ3HfffUUX83nJl+tnz372s5v//ve/qsc9dcM755xzms0339wEa3IrQ64ndQy1H49bFsiDdkZZeeiY1Y0dNFmKzdVkLR/3xz/+Mc3l/5wec8wxJhmT6xqbdxbfZzmfc10bty7Crj4gDwHl4dBDDzVZ2HMluzuu/FVDiw3C55rk11b33ntv03zJ9d19993VjzW3LMKuOrg6InH1yTleO182kIeA8rD99tubLu4uCVNv3/SmN1Wd9PI/Umr5z6xynXK9NRdu5CGOPPC5h/ky4JtzyEMgebjrrrsQh4AflJwVlMcff7zKhnLNNdc0W2yxRVVsyfXKdfsWMyuvn2Wf78PJBLcuwgkE8hBIHi655JKqCnzqgvarX/2qumbys5/9rDpxcFyJQMj1WxECn+twMWAbThpcLJEH5EFdUfnc5z6HPERcefjWt76lbsx9GoLva9euXVutOLhCLwIhcfCNXcmvl+bmrp8t8qCZZVYeAq08yN8jINnDJ7uL6ac//elqmsjvf//7YP/10sWv1K38106Jh+YiGvLckId4NURygA9NsvKgrphY/yR87ubzgQ98QN2Yh2wabl9PPPFEs8ceeyCirVUsiYfExcXI8pYPSyIPpfDNykOglYeddtqJgt8q+KFlY999962ieRxxxBFw1MGRxKWUojrlPJGHuPLAb1yw8qCukDznOc+h6HcU/VASsdtuu6kb8ylNouu9a9asgaE5DEl8uuJm6TnkAXkohWdWHgKsPDz11FMU/TlFP4RAvOAFLzDdOG6++WYYGsCQxKmU4jrmPPmz1MjDGG5yvAd5CCAP8i+GQzRI9tFfOKzLw1ve8hYYGiAPEqcchTLVMZGH/hoQqj6mGkvrx0EeAsjDP//5Twr/gMI/Jfkty8MZZ5wBPx78SLysFuYpOcJ7h4mHVXZSXxfyEEAeWHkYlrRTiptVeXjggQeaZz3rWciDhzxIvCRuqYtliuOx8hC/lqQYxxqOgTwEkAc+8xA/4a3Kw0c/+lHEwUMcnIBK3CwWaOQhbi2R+FrkJsc1IQ8B5EEGbuutt6YJjGgCrhks2u66667mkv7222+HmQnMSPxyFM2Yx0QekIeYfIXcN/IQSB523HFHGsGERrBIHt761reaaxTHHHMMzExgRuIXshhq2Be/qhlXHiS+GsbZwjkgD4HkYa+99qIRTGgEi+Th0EMPNZX099xzD7wE4EXiaKEQu2tAHpAHx4L2LfIQSB4OO+wwmkGAZtAnESeeeKKpJnHyySfDSwBeJI7ai6zP+fG/LZAHH15yvhZ5CCQPn/3sZ2kGAZpBnzxccMEFpprEqlWr4CUALxLHnAU09LGRB+QhNFOx9oc8BJKH733vezSDAM2gTx5uuukmM03i0ksvhZWArEg8YxXI1PtFHuLKg8Q39ZhaPR7yEEge7rjjDhpCwIYwKxH/+te/zCS9fH5j9vr4fnzTsPZ5GFgYz8Ki2Flt5DmuC3kIJA8yeCxFx0n6N7zhDWbEQf619DOf+UzkIaBoSjwt/ctufl0zTh3hbzyE+4+a0u+Qh4DycPDBB9MUAjYFN4v45Cc/aUYerrzyShiJwIjENcfsK8YxuXURRx74NU3kQW2R+MY3vkFjiNAYrrrqKrVj7ts8Vq9eDSMRGJG4+o6F5tc7cWYbTiT4vAPyoLZI/PGPf6QxBG4M1pakd999dxgJzIg0WImrZhnwPTduXYSTBidgvmPA6+fLBrctAt62ENj23HNPmkPA5nDIIYeYaQrr1q2DjYBsuKbgthJfKwWfWxdh5YFbFvNFYEzeIA+B5eErX/kKDSJgg7j44ovNNITrrrsONgKy4aTBbSW+Y4qgxvcgD8iDRi7b54Q8BJaHBx98kAYRqEE8//nPN9MMJOnOPvts2AjEhhOG9lbi2y5upT/m1kU4gSidBY3njzwElgcZZP5UdZikP+GEE0w1Az4sGYaLtjC0H1v70CTyEIYXblmEv2UhfQ55iCAP1157LTPMADNM+cNbGo177DkdeOCBcBGAi7YwtB9LfMeOjdb3ta+Px+NkQuvYln5eyEMEeRAo3v72t9MoJjSKww8/3FwjeP3rXw8TE5hY1DwlvqUX5Nnz579sjhMGxwqrDnFWHYRT5CGSPFxxxRU0igmN4uabbzbXCHbYYQeYmMCEawh9W4nvbPO18H3f9fL8YrGwMP5arwF5iCQPMuDvete7aBYjmsWRRx5JExgRN5rJkklu+M2LxZLQxT6rDvFWHaS/IQ8R5YFfzRuX9HfeeafJJtBV4HhuHCN9cdM6S5t6Xnx40p+TqTHn/fPlA3mIKA8C30c+8hFWHzxm0aeeeqpJcRAW+hoez/s3hr6YWS34rD74McKqw/zGHyJPkIfI8vDXv/612XbbbWkcAwTi1a9+tVlxQB78in+fHCx6PkRR1LoPVh+GM6R1DC2dF/IQWR4Elosuugh5GCAPV199NfIwIE6LGmjNP7dUnGevhdWHYfLAqkP8VQdhE3lIIA8S6GOPPRaBmNMYTznlFNPiIAxsv/32MDCHganSs91225lnSBrj1DhZfj/ikEYckIdE4iCB/s9//tO89rWvJfE7msd73vMe80VfGNhtt90Y/47xD9XMJL4SZ+tfCET3CgTikJZ9Vh4SFptbb7212XLLLWkgrQay0047NQ899JD5gi8N7Z3vfCdj3xr7UNLg9iPxtS4O7vr4/MNygZB4uNiwTSMRyENCeRCoL7/8chpIq4GsXbu2mqQ/+uijGfvW2LumH2or8a2pcSAQmwSipnHXcq3IQ2J5kIE/99xzaSJLSxtESksipDiPL33pS4x7RHmQ+KYYRy3H4AOUG+VB4qBlTGo6D+QhgzwIYGvWrKm6kchvoNSUaHKtP/zhD6se81ArDH37kfjWxlTtAsHnHNLcoujKK+QhkzzIYNQqEBdeeGF1RV7G+95770UeIq48SHy7ipz152r9ACXikE8cJKeQh4zyIANQ2y2Myy67rMoC7xrYS1/6UgQigkBIXF2Ma9zKCkRNn4HgVkVecZAcQx4yy4MMgnyIcquttjLdVOQ/Ht5www1VF3gZ68MOO8z0OPfdUoj9vMS1RmmYvWbrqxD8VkV+aXDMIQ8K5EEG47bbbjP7dyDkv4vef//9FPf165vzzz8feYiw8iBxdUWt9q1VgeA2hR5xkBxDHpTIgwyG/CGpD3/4w6aay0knnURRbzH2pz/9ydT4xl5RGLp/iWvt0tC+fmsCgTjoEgfkoVXU24mX+7H8JsKqVauKbjKveMUrmh/96EcU9A7G9t5776LHdmhDT/U6iWfunNV4fAufg5DbFHy+QZ84CO+sPHQUdw2FQP4bZ6n/zvvEE09snnrqKQp6D1tnnnkm8hDw1oXEU0POaj2HUlchWG3QKQ2Oc+Shp8C7AOXeinW/+93vLqLZHHLIIc1vfvMbCvkCpuTPcaealddwnFr+vPnUWlSKRCANuqXBcYg8LCj0LlC5t1deeaXaX8V63/ve11x33XVIgwdLhx56KAIRYPVB4pg7N0s7vlaJ4BZFGdLgeEcePAq+C1rOrTTpI444Invj2WyzzZrjjjuu+fWvf03xHsHQNddck30MLaxKSBxz5mPJx9YiEUhDWdLgmEceRhR+F7yc2z//+c/NV7/61WafffZJ2oT233//5oILLmgeffRRivZEdlKPnQVZaF/DvvvuC4MTGZQaJrdGRSSkibfjG+uxHAdhKFMY2j0PeQiQfO2A5nh83333bWjo8odyQv8Fw5133rn50Ic+1MhvgDz88MMU64C8yF/bjFWga9jvD37wA3gMyKOrXTFEQmRB9stvTpQvDY4T5CFC8rng5trefffdG/5q5ec///nmqKOOamSG9vKXv7zZZpttOpvVi170ouaVr3xl8453vKM55phjmtNPP7256qqrmgceeIDiHJkPGZsaGn3oa5RmlCu/ajquNHu3MiHN34mFxL89pvK9+3Kvc+9FGOwIQ5t95CFyc2gHW8vjJ598snn88cc3/FEqLedU63lcffXVy4pwuyDzeOO/XO6KA591sNmQaq0DJV438lChPJQIquVzPvLIIxEIj9+8kNtolnng2hCjEhhAHpAHCnFmBuT/fmy99dYIxACBeN7zntc8+OCDMJuZ2RKaG+cYV8KQB5KQQqyAgfPOOw95GCAP8ps+NIW4TYH4Et8hDCAPChrHkIHiNfYT+vDDD0cg5gjEBz/4QcSBegUDShhAHpQMBHJgXw4WjfG6des2/FZM1wcEa39O/tHaI488QuOgXsGAEgaQByUDsaix8PM65OIXv/gFqw8dqw9r166laVCrYEARA8iDosFAEOoQhEXj/J3vfAeBaAnEhRdeSNOgTsGAMgaQB2UDsqix8PM6BOPLX/4yArG01Jxxxhk0DWoUDChkAHlQOCgIQh2CsGicTz311KoFQq5/UYz4ObkCA3kYQB6QBwq0YgZqFQjEIU9DoBET96EMIA8RGwd/090/EYnZypjJ/xqp6SNwGz8AAB11SURBVLct5HqHFjBet5IXYkJMUjCAPESSB/nnMK7gy+MUg1nyMUQa3D/bIV4ri983v/nNp3lyXFncynWWzHGMc3e1hLxYmRdd8Xa1hHgNi1dXDIc8hzwElgcHbldhB+aVMBOvlTHpS9yf//znzY477mhSIuS65Pr6rr3G57tyQ2qIPF9jPIZcs5uAuPor31N3h9eYITF2r0EeAsrDLLgO4PZWQAbmjTBLHNqx6XpMrJYn/l/+8pfmoIMOWhi3rlhqfU6uR67LFSW26zfUiHnjRV4sz4tFtYR4LY9XiBxDHgLIg8wE5iV6189qhnlRohOvxYl+1llneTPXFdfcz8l1hChkVvbRtdowb4xqriMy5sRrca2IlRvIw0R5GLLaQPJvBNw30WfjJrGOlQgl7vfOO+8sdhVCVhvk/EuMe6xznlJLapOIKbWktljF4hV5GCkPU+CdbYryvQBtEWqJk1zXlMI4Gy/ZZ6yEKHG/l156abP77rsXsRIh5ynnW2KcY51zyFpisYa04x4yVtSRaasWyMMIeRDoZhtayO+lAJQOdsgk74qt9SLZLphDH8u/q951112jstk1FkOek/Pi32mvLNaxaonkh5UccbUk5ATEMWslRkNrRMjXIQ+e8iCwOfBibyVZSoLbJXnsuLj9lxSbkEm7aF/f/e53m7e97W3JOHXj0bWV85DzWXTONf48VS2R40hulhbjVPWEOrJSaoewgjx4yEOqZO8qwk4kNIEuye0SPMasoCsOs89piseQhEv5mltuuaU54YQTkv96p/zapRxXjp/yeks6Vo5a4mqIZpFw9WQ2z2N/Tx3xFwjkYaA85Ej2eQnjCkFK6CWx5Xhy7Fyy0BUTOZeSGkeOc5V/9X3KKac0b37zm6OsSOy1114b9i/HyXF9JR1TS+7IeUg+55IJOa6TBQ0xSVlLS+K171yRhwHyoAHsrqY5+5zA3/5yyTmkOLRfK4/dfuTaS7h+Occ+yHl++aziscce2/AHmdasWdMcffTRzT777NPssMMOzeabbz5XLOTnL3vZyza8Xt4n75c/7CT7I8bLY9wXD825JOfm8n5Izei7xr7nXV3RHoO+8+f55YwjDwvkQZJptklb+F5zAo+Nr1wTCb48wX3j8fe//7259957mzvuuKP57W9/u2Er38vzvvvi9cvHouSck3N3X04wurbuNW47Npdzvk/OHXaXs9sVD+RhjjxYFYeciRn72CT+4qTvKgQ8FzduwmVs9tn/UrAYU0cW5wPy0CMPiEO4RExd1GTsaIaLk58YpYkRtaTMWoJAzM8P5KFDHkj2MpO9LSkIxPzERxzSxIdaUnYtoY705wnyMCMPJHvZyY5A9Cc7wpA2NtQSG7UEgejOG+ShJQ8ku41kRyC6kx15SBcXaomtWoJArMwd5OH/8iC/RtRuOjy2k/wxfu2MRryymBCTjTFBHOzUjnYfQCCW5zzy8H954NPQNhNekp8PPi1Pepp83Hi0Gw6PbdUVJiKbcgd5WL9+wx9GIcltJfnseDJr2JT0yEO8WLDqYLuOMBHZlDvVywPJbjvZ2xKBQGxKfAQifCyoJXXUEurIxtypXh7azYXH9pOfZcfwTRMRYfWyttpJHVnfVC0PzBTsy8JsUdM2a6AI2ZCZWc743nZt4fZFxfKAONhO7q7irS3h2wxqkxqNqwkiWjKGMrba4tUeyy72eM5evdFWT1LnbLUrDySzvWReNKapk6vveO0m2D5naUDammLfNaR8vi9eUrw1rdw4sWmPKY9t1xlN/KXMSTlWlfLALMF2QncVbC1JPoQ9BGLTrYzS4oVA1FdbUjdtLcerUh66mgvP2U16Dc24b/Y8jzsN552rUJUaLznveWPKz+zVmVrztDp5GDKTIcHtJLiGxJ7KnIZrSCURY6Shna8aYoVA2KkfbbbmPU6VH5qOU508zAOAn9lKeg0faJoqDm0mZV8ammOMAjZVGtpxsjbu7Wvjsc4aZTUv5+V6VfIQspCTxDqTuD0u0pDmwR/7ZzHvf1soViGFoT3u7nHu8afe6K8RjpUQ29j1RNv+q5KHEICwjzIKQu7mGlMc2gzKdea+Vp+iJg09tjTMxsfn/EK/NhUH7WvmcZ4apWHFKzS/8/ZXjTwwC8iTUDkKWc4klsaY45rlmE4kcs+4ZwtOamGYjX9OucrJw2wc+D5+DdSWe7O5GPL7auSBxImfOFpinCuBtTWKHDIhMZAvEThNs+6cAiHH1pIbnEfcOphz4hJSDIbsqwp5IHnjJoymgpSrSZTAmBQ2OU/35Rr9kELRfo17n9vK/rTJQheTcp7t60j5WJNIdcWG58LVSMmLlGzlOlYV8kBihEsMzbHMZf3SlDTHxffcnAi0t7770Pr6XAIhDUVrTDivsPUReVi/6a+85TKbEMe1VthJ9P5Ez5G0NIX+8dDKai6BoBaVx8oYhnNNYkL0S599mF95IGHrSNgcDQFxKJetHLxIYZbGMqYh8Z6yWMsxkfFp/CFea14eSLqykm7seIVIBt99jD1X3qeDyRwCgXDqGPvYOVjD6oNpeWDVoY5EzdEEmEHaYAt2bIxjbBnw3T/yUPjnHijwdRQG3xWDqa9HSm1xlXqJmdUHW/z0iUVqrqbWNd/3m1556BtUnreTvKlnjoiDHXbadSB1oWdiY5OjNlPWVx/MygNF3n5ySqL62vKU18OUXaZSF3pWH+yy1BaIKfVG+3vNygNmbz85U686tIsCj+3xlZonZNQeQ7N1IfWKVkrhMCsPs4PI9/YSNWWiUOjt8dNVE1IX+65z4Dk7rKUW0pQ10aQ8sCRoJ/n6CmnKpEQc7PPkOEt9+4IVUttspeYJeZj4Wx4Ue9sJKYU+aZIs2Y+na55sN/530lR8MdGxn1upWEp9HJMrD8iD7YRk1cH2+GoQmJS3L1h9sM1zSpZSCoRJeSAZbSdjqgRBQm1zNE9SUi43s/pgmzPkYeKthFQFX44zryjws7ITNeWqA6yUzcrU8UvJGhMeu6yl5Chpn015sBTHwuLtJqE0g1SJKMeZ2nx4f/ksppo1UrfKZ6Uv31OuYqXose4Y5m5bUPTtJqEkpwM39ravEPC8bb5mxzdl4Z89Nt/bYS12vcqxf+SBT9IXM8Nm1cFOMS2pMaZafeDWhV2+UzGUUiLMyQMJSAJOTaCSGhvnGp/3VKsP3LqIP5a58gV5KOBDk8iD3QScKgVD3s9tL7v8TGkcqYo/9csmf6n4GVLjQr3G3MrDlALBe/UmbqpbFjCgl4GcY5Nq9QF5sMkf8lDAykPOAsOx4yV+iuRj1SHe+FnIjRQMyjEsxIprWJ5LqSY/oVYVhuyHlQc+MFlEsRoC89TXUPCWFzzisTwerD4sjwd8DI8H8sDKQxGN1lpSp0g8Vh2GF0JrfPlcz1RBHfJ+bl3YYzGVeA7hK9RrTK08sORnL+mksKdYLqZg22THRwyGvDYFi9QxeywiD8pXHkg6e0knBT2UKfftB25scjNEBnxfk6oJ+J4Xr9fNcCpu+mpcjOdZeeAzD6pvxXDLQndRrLFpxSjEs/tkJcwW98gDKw+qG63FQp5CHizGjWuK13xS3LrgMzjxxi9HbiAPyAPykHilJnahpkjbKtIpGkOKRsCtNFtcpmBmdvUq9vfctkjcDFMUN0vHiJ0AyIOtIp2K/dhSK9ynuhaOEz8HkAdWHkjohLKVIuEonPELp8UYp7idJvxbjF2N15SilsWeaM3un5WHhM2wxqSZcs2xCzRLw4jDWD5TNAPkwQ6fKXiZbe6xv0cekAe1s5vY8sAtCzvFeawETHlf7OKM3NrhE3ngtoXaRjulCGp9b+zijDzYKc45GI79uQfkwQ6fyAPygDwkXKmJLQ85Gg7HtNMQYsuD8A8vNnhBHpAHkjmRPKRINgqzjcKcaxxTMCrHyHV9HDdcfqRgJfZka3b/fOYhUTMkEf0SMXayccvCbzzgd2W8YjMqxRp5WBn3EllMwcpsc4/9PfKAPKic2fBhSRtFs8RC73POsQs0kmsjD5AH5bctJJF9Ep/X6k3M2PLAjE7v2JeUl7E/98CHJm1wijwgD8hJopWa2EW5pAbFueptILElF3nQO/Y+eRmbk9grYF37N3XbQi6QGaWNZOuCNdRzFGQbjPgU71ivjT2jhFUbrCIPBaw8kGw2ki2UKHTtB0ZsMBJLCHz2G1sehF+f8+G1OtnuqkOlP2du5YHGoDN5fItazMSCERuM+DIV4/XIAywN4SpmPcu1b3PyIIHk1kX5CR0zIWQJcUjC85ryOUoxhjFZlX2nuAaOEY91i7csNnAZG/wc+2dmGS8RUhSZ2LM55KFsPlIw6HOM2DWOyVDZvMbmI9f+Ta48SDBJuHITDnkod+x8mq6V18Yu3tSycvPB6qqDMG9WHlh9KDfhkIdyx86KEPhch9SamAKBPJSbDzG5yL1vs/IggUUgykw65KHMcfNpuJZeizzAaxfPsblAHiL/+if3t8tL7NjywEyuPCa6irOW52I3CXgtj1fLtyuctJheeXAXiUCUlXyxE49iXBYPWiSh7zyQB3hqsxG7frm+lntbhTxIkBGIchI8dvIhD+Ww0C7KWh/HlgdqVzm8xq5duYWhffxq5MFdNImoPxFjJyDyoJ8BraLQdV7IAzxJTYnNgethWrbVyYMLPBKhN+GRB71j09U8a38udtOgVunNhxqlwfXQauXBBUASU76YjepJUORBz1jULgZDrh95qI/XmqXB9c7q5cEFor2VYsBX3hi0xyP0Y0SxvmI/RALGvia2PMj+3SSH7cbJXo44uJ4Quh6Vuj/kIfKvipYKhuXzRh6Qh7Gi0PW+2PJgORe5tvVR/8BYzPgiD8hDsfCOTQzkAXnokoCxzyEP5TbAsTWE9xn+89QMLgndxwDygDyMFYWu9yEP1Jq+WmP5eVYeWHlg5WGJZtrVFHluGBfIA/JgWRL6rg15QB6QB+ShQRSGiUJXnJAH5KGvwVp+HnlAHpAH5AF5mMAA8oA8WJaEvmtDHpAH5GFC4+iaifLc+Fl8ibFDHpCHvgZr+XnkAXmoTh7kd8RLbFKcs04psdwguDbEqI8B5AF5qE4eZKZII9bZiEscl77iyvM0XssMIA/IQ3XyIAldYpPinPUJj6xiWW4QXBsC1McA8oA8VFn8+FsP+hpxiXLE5x1orn3N1frzyAPyUKU8cOsCeQghK9YbBNeHHPUxgDwgD1XKgyQEqw8IxBSB4JYFjbWvsdbwPPKAPFQrD6w+IA9j5UHEs4YGwTUiSH0MIA/IQ9VFkNUHBGKMQLDqQFPta6q1PI88IA9Vy4MkOgKBQPgIBOKAONQiCPOuE3lAHqqXB25fIA9D5QFxQBzmNdSafoY8IA/Vy4MkPAKBQCwSCMQBcahJDhZdK/KAPCAPLQa4hYFEdEkE4oA4LGqmtf0ceWg1jtoGn+vtLojSKLoaCM/VJxYik7IqRa505wpxqTcuyAPyQGHsYQCJqE8WnCAiDfU2RYRo2NgjDz2NA4CGAVRDnEQiEAn7IiHCgDSQ9zXUtBDXiDwgD6w8eDIgy9h82YlBiELKPpCO2hhAHjwbR22AcL0URRiAARiAgVkGkAfkgZUHGIABGIABGPBiAHkAGC9gZu2T75mRwAAMwEB9DCAPyuRBPpjnPriVa8uvptVXCCj+jPk8BnLVovZx550fP0vPL/KgTB4kCdyvi+XcIhDpk5ECSMw1MqDhN43kHDTGpuZzQh4UyoM07pzi4I5dc2Jw7TRyGFiv4leUEQeduYg8KJQHKVoabF+WDCmgOhOXcWFcYjOgoQbJRCb2dbL/cbmEPCiVBwFamrdbBci1RSDGJRYFibiVzIAWcWDVQW8eIQ+K5UHL7QsSWG8Cl9ygOHedXFF3dI6LtnxBHhTLg8DCDIBE1lY0OB+7TGoRB25X6GcMeVAuD1KoNdy+kGRmBUJ/QtPYGaMpDFBr4GcoP8hDAfKgaTaAQFBchhYXXlcWK4hDWeOVO7+QhwLkQSDRcvtCViBEZnKDy/EpdDAQjgEt4iDnwbiGG9eYsUQeCpEHgUBLgiMQZSR3zMLBvu0wQF2xM5Yp8xJ5KEgeBAxp3Fq+WIGg6KQsVhwrPG+axIFbouHHN2bOIA+FyYOmzz+wAlFWsscsJOy7PBYQh/LGTFOeIQ+FyYPAo+nzDwgEBUhTQeNchvGIOAyLEzz1xwl5KFAeEIh+oEl2YgMD8xnQJA4y+WC85o+X1vggD4XKgwClrQjwGYgyi4DW4sR5heeJmhE+prVyijwULA/aPv8gswg+9ERxqrWYar5uqRXaxIFaUXatQB4KlgcpVghE2QmoueFwbjbYokbYGEdt+Yg8FC4PApS2D1CyAkGx0lboaj0fjeIgKyC1joel60YeDMiDAKltSRKBQCAsFcoSr0WjOPABSTt1AXkwIg8IhJ2kLLFRcc66+NO4GiniIEIDK7pYGTseyIMheRAIWIGwkZhjE5r3Mf5axYEPSNpiE3kwJg9alyq5z2mrcCApOsdT4+SBW5g6WZmaw8iDMXkQILQKBMuWNovI1CLE+6dzITmPOEyPIywOjyHyYFAeJAG0Ll0yCxmenBQyYjWEAc2TBW5V2GUYeTAqDwiE3aQd0lB4TR3jzyShjnHWmM/Ig2F5QCAoLBqLDucUhkvN4sBnnMKMseZcQR6My4N2geA2hv0io7kAlnhumj/fIPmMONSR08hDBfKAQNSRzCU2Qs7Zj03Nqw2Ig99Yls4+8lCJPCAQdSV26YWJ81/JK+KwMiZwki8myENF8lCCQHAbI18xoBDrjL322xSsOOjkJnY+Iw+VyQMCUWeixy4k7D8OV9pXGxCHOONeQj4hDxXKQykCIR+8kllXCYnEOdZbRGOMfQmrDYhD3cwjD5XKQykCwW2MugtUjMasfZ8lrDYgDuQl8lCxPJQkEKxCUKy0N/2p51fKagPiQC4K68hD5fJQkkCwCkHRmtqgtb6/lNUGxIEcdDmEPCAPGz5TUFrxkvN1ELOloJXKQEmrDYgDedbOM+QBeXi6CZckEKxCUMjahazEx6XlG385kpxr5xnygDw8LQ8CRmkFDYmgoLULWgmPZbVBuC3pi5U+8mw2t5AH5GGZPJQqEEgExW22uGn7vrRbFE5uEAdyqyuXkAfkYYU8IBAUi65iwXPjuZAlf9eMS9oiDuPH3Hq+IA/IQ6c8CPglLq+6wkzRo+hpKN7CoWOytK3kv4YYcg46cxl5QB4WFohSZ01SrJEInYXHekMoWRokbxAH8mZRjiIPyMNCeRCIShYIJIJCuKgQhvp56dIgeY44kC9D8gF5QB4GyYPAVHphRCIoikOK4pjXSMMtXbDl/MdcO++pM6+QB+TBq2BYEAgkos5iF6PJWZAG8oF8GJMbyAPy4CUPApkUTCk4Fr5EhsYkDu+pu+BakWjJYW5T1M3y2FqGPCAPo5unpQKKRFBAFxVRK6sMTvr5fAPML2J+3s+RB+RhtDwIWJYEQoqqXA8iQVFtF01r0uA4b18jj2HelwHkAXmYJA8CnDWBcDMzJKLugmpRGhCHupn2FYR5r0cekIfJ8iCAWS20rtgiEnUUXcscc5uiDobnNfyQP0MekIcg8uCgtLoKwWqE3cIrwiDclv6rlo7Rri2/hmmXX1d7U2+RB+QhqDwIwNYFgtUIG4XY8ipDWyBYNbPBa2o5WHQ85AF5CC4PDroaJAKRKKsw1yIMwiW3Kcpi09XNUrbIA/IQTR4kCWoRCDfTk4LNTE9P0RZZqEkYHIcwqIfBUmTA9zyRB+Qhqjw4IC3fT3YFe3brREKal4sD2/hFXeItzbNW5uAtPmPk8foGeUAekjW22lYhZmVCrl++KO5hi7vEU75qlIU2Y8IWTS0sW8SzP57IA/KQtOBQ5Df9WW8nExSo/gLVFRtkYRNDIg8iTRKTrljxnB9bxGt4vJAH5CFL0ZHG2Z418XhjE0AolhcvJwoSl9pXFrpyROJCw1vODPFIEw/kAXnIWnyQiOWzyNkGIQ3TCYX12SWiMJ+FNhusNqRpkIhIf5yRB+QhqzxIciIQw5uGayBtqZD4lSIWs4LAaoL/2Jcy1jTe/sZrITbIA/KQXR5cIiER/o3EyUR7Kw3ZfblVCycYrnm7mIfYun26rTumOwcEIcy4SlxDjBf7sN3UU40v8oA8qCtIUiTbzZDHYZqPbxxd8/d9H68PO14yDqw20PBTScHQ4yAPyIM6eRB4EYiwDYiGXmY8kQakYWgzT/065AF5UCkPLhGQiDKbHrIybdy4RYE0uBqodYs8IA+q5cElDhIxrRnRzMuIH7cokAZX87RvkQfkoQh5cImERJTRBJEVv3FCGpAGV+NK2SIPyENR8uASC4nwa040c53xQhqQBlfTStsiD8hDkfIgiSYfJkMidDZFZGX+uCANSENpsjB7vsgD8lCsPDiYRSCQiPnNimauIz5IA9Lg6lbpW+QBeSheHlwSIhE6GiSisnIckAakwdUpK1vkAXkwIw/tpGQlYmUDo6mnjwnSgDS065Klx8gD8mBSHlySIhHpG2btkiLCINw5BtkiEBYZQB6QhyqKHLc0kIjYUsMqA5JgURL6rgl5QB6qkAeXAEgEEhFaIpAGpMHVl5q2yAPyUJU8tJObWxqIxFiRcLcm+N8TiEO7ptT0GHlAHqqVB5fo/L0IJGKoRLDKgCy4ulH7FnlAHqqXh3YR4LYGIjErEggDwtCuETzeyAPygDwgDz0MiEhI45htJnxvXzAQBoQBSZjPAPLQ0zgAZz44NcXH3dZAJGxLg4wv0kDe11Tbplwr8oA8sPLgyQC3NuxIhJMFPviINExppDW+F3nwbBw1QsI19xdWRKIskWB1oZ9l8pzY+DCAPCAPrDwEYoDbGzpFQoRBJI/VBZqjT3PktfN5QR4CNQ5Amw9ajfFBJvLIBLJALtZYb1JfM/KAPLDykIgBJxMyC+Y3NsKIRfs2BCsLSEPqBlrz8ZCHRI2jZsi49v6i7j4zIU0QoVgsFMhCP0vkGbFJyQDygDyw8qCMgfYKRa1SgSTQCFM2Qo7lzxvyoKxxALE/xLXEbFYqShcLJwjuw4zcdoD9WnLZwnUiD8gDKw9GGJDm2xYMacquQacSjfbx3C0Zd17IAXJgoWlyDRs5Rh6MNA6ApjBPYaDd4Bc9nnIc3gunMGCDAeQBeWDlAQZgAAZgAAa8GEAeAMYLGGYNNmYNjCPjCAMwMIUB5AF5QB5gAAZgAAZgwIsB5AFgvICZYqq8l5kODMAADNhgAHlAHpAHGIABGIABGPBiAHkAGC9gmDXYmDUwjowjDMDAFAaQB+QBeYABGIABGIABLwaQB4DxAmaKqfJeZjowAAMwYIMB5AF5QB5gAAZgAAZgwIsB5AFgvIBh1mBj1sA4Mo4wAANTGEAekAfkAQZgAAZgAAa8GEAeAMYLmCmmynuZ6cAADMCADQaQB+QBeYABGIABGIABLwaQB4DxAoZZg41ZA+PIOMIADExhAHlAHpAHGIABGIABGPBiAHkAGC9gppgq72WmAwMwAAM2GEAekAfkAQZgAAZgAAa8GEAeAMYLGGYNNmYNjCPjCAMwMIUB5AF5QB5gAAZgAAZgwIsB5AFgvICZYqq8l5kODMAADNhgAHlAHpAHGIABGIABGPBiAHkAGC9gmDXYmDUwjowjDMDAFAaQB+QBeYABGIABGIABLwaQB4DxAmaKqfJeZjowAAMwYIMB5AF5QB5gAAZgAAZgwIsB5AFgvIBh1mBj1sA4Mo4wAANTGEAekAfkAQZgAAZgAAa8GEAeAMYLmCmmynuZ6cAADMCADQaQB+QBeYABGIABGIABLwaQB4DxAoZZg41ZA+PIOMIADExhAHlAHpAHGIABGIABGPBiAHkAGC9gppgq72WmAwMwAAM2GEAekAfkAQZgAAZgAAa8GEAeAMYLGGYNNmYNjCPjCAMwMIUB5AF5QB5gAAZgAAZgwIsB5AFgvICZYqq8l5kODMAADNhgAHlAHpAHGIABGIABGPBiAHkAGC9gmDXYmDUwjowjDMDAFAaQB+QBeYABGIABGIABLwaQB4DxAmaKqfJeZjowAAMwYIOB/wHg2Cy8KM4+gQAAAABJRU5ErkJggg==;" vertex="1" parent="1">
          <mxGeometry x="552.39" y="248.46999999999997" width="42.61" height="38.32" as="geometry" />
        </mxCell>
        <mxCell id="shZay32Vncn5JO2l-WHq-23" value="Zoom mentorship meetings" style="rounded=0;whiteSpace=wrap;html=1;strokeWidth=1;" vertex="1" parent="1">
          <mxGeometry x="520" y="380" width="200" height="20" as="geometry" />
        </mxCell>
      </root>
    </mxGraphModel>
  </diagram>
</mxfile>
